{
.appVersion = "3205";
.formatVersion = 3;
DisplayStrings = (
"'"
);
axes = (
{
name = Weight;
tag = wght;
},
{
name = Width;
tag = wdth;
}
);
classes = (
{
code = "maiHanaKat-thai
maiHanaKat-thai.narrow
maiEk-thai
maiEk-thai.small
maiEk-thai.narrow
maiTho-thai
maiTho-thai.small
maiTho-thai.narrow
maiTri-thai
maiTri-thai.small
maiTri-thai.narrow
maiChattawa-thai
maiChattawa-thai.small
thanthakhat-thai
thanthakhat-thai.small
thanthakhat-thai.narrow
maitaikhu-thai
maitaikhu-thai.narrow
yamakkan-thai
saraI-thai
saraI-thai.narrow
saraIi-thai
saraIi-thai.narrow
saraUe-thai
saraUe-thai.narrow
saraUee-thai
saraUee-thai.narrow
nikhahit-thai
nikhahit_maiEk-thai
nikhahit_maiTho-thai
nikhahit_maiTri-thai
nikhahit_maiChattawa-thai
maiChattawa-thai.narrow
nikhahit-thai.narrow
nikhahit_maiEk-thai.narrow
nikhahit_maiTho-thai.narrow
nikhahit_maiTri-thai.narrow
nikhahit_maiChattawa-thai.narrow
maitaikhu-thai.small
";
name = abovemarks;
}
);
customParameters = (
{
name = "Enforce Compatibility Check";
value = 1;
},
{
name = fsType;
value = (
);
},
{
name = unicodeRanges;
value = (
24
);
},
{
name = codePageRanges;
value = (
874
);
},
{
name = "Family Alignment Zones";
value = (
{
pos = 550;
size = 8;
},
{
pos = 0;
size = -8;
}
);
},
{
name = "Get Hints From Master";
value = "9148514D-BEB8-4275-B264-8F51401A425F";
},
{
name = "Use Typo Metrics";
value = 1;
},
{
name = blueScale;
value = 0.05;
},
{
name = blueShift;
value = 7;
},
{
name = blueFuzz;
value = 1;
}
);
date = "2022-10-15 17:17:10 +0000";
familyName = "Noto Sans Thai Looped";
featurePrefixes = (
{
automatic = 1;
code = "languagesystem DFLT dflt;

languagesystem thai dflt;
languagesystem thai MLY;
languagesystem thai MFA;
languagesystem thai PAL;
languagesystem thai SAN;
";
name = Languagesystems;
},
{
code = "lookup to_macron {
sub [saraU-thai saraUu-thai] by macronbelowcomb;
} to_macron;

lookup to_sarau {
sub macronbelowcomb by saraU-thai;
} to_sarau;

lookup to_sarauu {
sub macronbelowcomb by saraUu-thai;
} to_sarauu;

glyphs = (
{
glyphname = "koKai-thai";
kernRight = "koKai-thai";
lastChange = "2022-09-01 04:16:00 +0000";
layers = (
{
anchors = (
{
name = bottom;
pos = (599,0);
},
{
name = top;
pos = (589,563);
}
);
layerId = "EB3A5D6C-8260-43A6-9EF2-63971FC08D48";
shapes = (
{
closed = 1;
nodes = (
(251,0,l),
(251,177,ls),
(251,226,o),
(269,247,o),
(319,256,c),
(329,334,l),
(146,415,l),
(219,334,l),
(219,358,ls),
(219,409,o),
(254,438,o),
(315,438,cs),
(381,438,o),
(413,403,o),
(413,329,cs),
(413,0,l),
(599,0,l),
(599,334,ls),
(599,501,o),
(511,578,o),
(319,578,cs),
(150,578,o),
(43,493,o),
(43,360,cs),
(43,344,l),
(165,300,l),
(165,296,l),
(96,271,o),
(65,231,o),
(65,169,cs),
(65,0,l)
);
}
);
userData = {
com.schriftgestaltung.Glyphs.glyph.rightMetricsKey = "khoKhwai-thai";
};
width = 671;
},
{
anchors = (
{
name = bottom;
pos = (483,0);
},
{
name = top;
pos = (473,550);
}
);
layerId = "90A34054-68E4-499D-AE50-276C7B026D8B";
shapes = (
{
closed = 1;
nodes = (
(122,0,l),
(122,204,ls),
(122,278,o),
(148,308,o),
(228,325,c),
(231,346,l),
(83,392,l),
(94,377,l),
(94,384,ls),
(94,477,o),
(167,535,o),
(283,535,cs),
(400,535,o),
(458,482,o),
(458,377,cs),
(458,0,l),
(483,0,l),
(483,382,ls),
(483,496,o),
(412,558,o),
(283,558,cs),
(153,558,o),
(69,490,o),
(69,384,cs),
(69,373,l),
(196,338,l),
(196,335,l),
(125,315,o),
(97,278,o),
(97,204,cs),
(97,0,l)
);
}
);
width = 578;
},
{
anchors = (
{
name = bottom;
pos = (530,0);
},
{
name = top;
pos = (520,555);
}
);
hints = (
{
horizontal = 1;
origin = (0,30);
target = up;
type = BottomGhost;
},
{
horizontal = 1;
origin = (0,20);
target = (0,11);
type = Stem;
},
{
origin = (0,30);
target = (0,0);
type = Stem;
},
{
origin = (0,15);
target = (0,16);
type = Stem;
}
);
layerId = "9148514D-BEB8-4275-B264-8F51401A425F";
shapes = (
{
closed = 1;
nodes = (
(174,0,l),
(174,193,ls),
(174,257,o),
(197,283,o),
(265,297,c),
(271,351,l),
(104,411,l),
(140,360,l),
(140,374,ls),
(140,451,o),
(199,498,o),
(294,498,cs),
(392,498,o),
(440,452,o),
(440,358,cs),
(440,0,l),
(530,0,l),
(530,358,ls),
(530,497,o),
(452,566,o),
(296,566,cs),
(149,566,o),
(55,491,o),
(55,374,cs),
(55,361,l),
(183,323,l),
(183,319,l),
(114,297,o),
(84,259,o),
(84,190,cs),
(84,0,l)
);
}
);
width = 616;
},
{
anchors = (
{
name = bottom;
pos = (315,0);
},
{
name = top;
pos = (309,550);
}
);
layerId = "54E3FB14-E6D2-4DF3-BA4A-5621168F9335";
shapes = (
{
closed = 1;
nodes = (
(85,0,l),
(85,204,ls),
(85,277,o),
(102,308,o),
(151,325,c),
(153,346,l),
(56,392,l),
(66,377,l),
(66,384,ls),
(66,480,o),
(107,535,o),
(180,535,cs),
(251,535,o),
(290,483,o),
(290,387,cs),
(290,0,l),
(315,0,l),
(315,391,ls),
(315,498,o),
(266,558,o),
(180,558,cs),
(92,558,o),
(42,495,o),
(42,384,cs),
(42,373,l),
(123,338,l),
(123,335,l),
(78,315,o),
(60,277,o),
(60,204,cs),
(60,0,l)
);
}
);
width = 375;
},
{
anchors = (
{
name = bottom;
pos = (461,0);
},
{
name = top;
pos = (455,563);
}
);
layerId = "E703E12A-5DA7-48FA-B69F-BB282FBD8E56";
shapes = (
{
closed = 1;
nodes = (
(201,0,l),
(201,177,ls),
(201,225,o),
(214,247,o),
(248,256,c),
(257,334,l),
(117,415,l),
(178,334,l),
(178,358,ls),
(178,410,o),
(200,438,o),
(240,438,cs),
(284,438,o),
(305,402,o),
(305,329,cs),
(305,0,l),
(461,0,l),
(461,334,ls),
(461,502,o),
(393,578,o),
(243,578,cs),
(113,578,o),
(30,493,o),
(30,360,cs),
(30,344,l),
(120,300,l),
(120,296,l),
(69,271,o),
(45,230,o),
(45,169,cs),
(45,0,l)
);
}
);
userData = {
com.schriftgestaltung.Glyphs.glyph.rightMetricsKey = "khoKhwai-thai";
};
width = 507;
},
{
anchors = (
{
name = bottom;
pos = (373,0);
},
{
name = top;
pos = (367,555);
}
);
layerId = "94F80E8F-7C96-497F-B870-569C37B7A2A5";
shapes = (
{
closed = 1;
nodes = (
(131,0,l),
(131,193,ls),
(131,256,o),
(146,283,o),
(189,298,c),
(194,341,l),
(80,401,l),
(110,360,l),
(110,374,ls),
(110,453,o),
(144,499,o),
(204,499,cs),
(263,499,o),
(296,451,o),
(296,364,cs),
(296,0,l),
(373,0,l),
(373,369,ls),
(373,499,o),
(316,566,o),
(205,566,cs),
(100,566,o),
(37,494,o),
(37,375,cs),
(37,362,l),
(122,323,l),
(122,320,l),
(75,297,o),
(54,257,o),
(54,190,cs),
(54,0,l)
);
}
);
width = 429;
}
);
note = "
uni0E01
";
unicode = 3585;
},
{
glyphname = "khoKhai-thai";
kernLeft = "khoKhai-thai";
lastChange = "2022-09-01 04:16:00 +0000";
layers = (
{
anchors = (
{
name = bottom;
pos = (414,0);
},
{
name = top;
pos = (414,550);
}
);
layerId = "90A34054-68E4-499D-AE50-276C7B026D8B";
shapes = (
{
closed = 1;
nodes = (
(333,0,ls),
(389,0,o),
(414,26,o),
(414,81,cs),
(414,550,l),
(389,550,l),
(389,85,ls),
(389,41,o),
(371,23,o),
(328,23,cs),
(144,23,l),
(144,212,ls),
(144,266,o),
(152,298,o),
(173,331,cs),
(209,387,o),
(220,419,o),
(220,465,cs),
(220,520,o),
(188,554,o),
(137,554,cs),
(87,554,o),
(54,522,o),
(54,474,cs),
(54,427,o),
(86,395,o),
(135,395,cs),
(179,395,o),
(206,425,o),
(206,474,c),
(197,442,l),
(199,421,o),
(186,391,o),
(155,346,cs),
(127,305,o),
(119,275,o),
(119,212,cs),
(119,23,l),
(67,18,l),
(67,0,l)
);
},
{
closed = 1;
nodes = (
(101,416,o),
(78,439,o),
(78,474,cs),
(78,509,o),
(101,532,o),
(136,532,cs),
(171,532,o),
(194,509,o),
(194,474,cs),
(194,439,o),
(171,416,o),
(136,416,cs)
);
}
);
width = 514;
},
{
anchors = (
{
name = bottom;
pos = (544,0);
},
{
name = top;
pos = (544,563);
}
);
layerId = "EB3A5D6C-8260-43A6-9EF2-63971FC08D48";
shapes = (
{
closed = 1;
nodes = (
(414,0,ls),
(498,0,o),
(544,46,o),
(544,130,cs),
(544,563,l),
(362,563,l),
(362,165,ls),
(362,146,o),
(351,135,o),
(332,135,cs),
(270,135,l),
(270,242,ls),
(270,301,o),
(278,331,o),
(288,363,cs),
(299,398,o),
(303,423,o),
(303,451,cs),
(303,526,o),
(250,571,o),
(163,571,cs),
(74,571,o),
(19,527,o),
(19,455,cs),
(19,389,o),
(63,348,o),
(134,348,cs),
(186,348,o),
(223,381,o),
(223,426,c),
(172,399,l),
(188,381,o),
(184,363,o),
(159,346,cs),
(106,311,o),
(88,287,o),
(88,225,cs),
(88,128,l),
(48,103,l),
(48,0,l)
);
},
{
closed = 1;
nodes = (
(124,415,o),
(108,429,o),
(108,454,cs),
(108,479,o),
(124,493,o),
(150,493,cs),
(176,493,o),
(192,479,o),
(192,454,cs),
(192,429,o),
(176,415,o),
(150,415,cs)
);
}
);
userData = {
com.schriftgestaltung.Glyphs.glyph.rightMetricsKey = "boBaimai-thai";
};
width = 618;
},
{
anchors = (
{
name = bottom;
pos = (466,0);
},
{
name = top;
pos = (466,555);
}
);
hints = (
{
origin = (0,37);
target = (0,10);
type = Stem;
},
{
origin = (0,6);
target = (0,3);
type = Stem;
},
{
horizontal = 1;
origin = (0,39);
target = (0,10);
type = Stem;
},
{
horizontal = 1;
origin = (0,20);
target = (1,5);
type = Stem;
},
{
horizontal = 1;
origin = (0,5);
target = down;
type = TopGhost;
}
);
layerId = "9148514D-BEB8-4275-B264-8F51401A425F";
shapes = (
{
closed = 1;
nodes = (
(366,0,ls),
(433,0,o),
(466,34,o),
(466,101,cs),
(466,555,l),
(376,555,l),
(376,117,ls),
(376,82,o),
(362,68,o),
(330,68,cs),
(196,68,l),
(196,224,ls),
(196,280,o),
(203,313,o),
(227,361,cs),
(247,401,o),
(254,427,o),
(254,456,cs),
(254,524,o),
(215,561,o),
(145,561,cs),
(80,561,o),
(40,524,o),
(40,466,cs),
(40,411,o),
(77,376,o),
(135,376,cs),
(183,376,o),
(212,408,o),
(212,455,c),
(187,425,l),
(187,408,o),
(174,382,o),
(147,346,cs),
(113,300,o),
(106,281,o),
(106,237,cs),
(106,65,l),
(59,52,l),
(59,0,l)
);
},
{
closed = 1;
nodes = (
(114,422,o),
(98,438,o),
(98,465,cs),
(98,492,o),
(114,508,o),
(142,508,cs),
(170,508,o),
(186,492,o),
(186,465,cs),
(186,438,o),
(170,422,o),
(142,422,cs)
);
}
);
width = 555;
},
{
anchors = (
{
name = bottom;
pos = (273,0);
},
{
name = top;
pos = (273,550);
}
);
layerId = "54E3FB14-E6D2-4DF3-BA4A-5621168F9335";
shapes = (
{
closed = 1;
nodes = (
(209,0,ls),
(254,0,o),
(273,22,o),
(273,72,cs),
(273,550,l),
(248,550,l),
(248,75,ls),
(248,35,o),
(238,23,o),
(205,23,cs),
(100,23,l),
(100,212,ls),
(100,269,o),
(104,297,o),
(118,331,cs),
(139,384,o),
(146,416,o),
(146,465,cs),
(146,524,o),
(127,554,o),
(89,554,cs),
(53,554,o),
(33,525,o),
(33,474,cs),
(33,424,o),
(53,395,o),
(87,395,cs),
(115,395,o),
(133,425,o),
(133,474,c),
(129,474,l),
(131,434,o),
(123,400,o),
(99,346,cs),
(80,303,o),
(75,274,o),
(75,212,cs),
(75,23,l),
(42,18,l),
(42,0,l)
);
},
{
closed = 1;
nodes = (
(67,416,o),
(56,437,o),
(56,474,cs),
(56,511,o),
(67,532,o),
(87,532,cs),
(107,532,o),
(118,511,o),
(118,474,cs),
(118,437,o),
(107,416,o),
(87,416,cs)
);
}
);
width = 335;
},
{
anchors = (
{
name = bottom;
pos = (422,0);
},
{
name = top;
pos = (422,563);
}
);
layerId = "E703E12A-5DA7-48FA-B69F-BB282FBD8E56";
shapes = (
{
closed = 1;
nodes = (
(309,0,ls),
(384,0,o),
(422,44,o),
(422,130,cs),
(422,563,l),
(269,563,l),
(269,165,ls),
(269,145,o),
(260,135,o),
(240,135,cs),
(216,135,l),
(216,242,ls),
(216,306,o),
(220,329,o),
(227,363,cs),
(234,398,o),
(236,427,o),
(236,451,cs),
(236,525,o),
(194,571,o),
(126,571,cs),
(55,571,o),
(11,527,o),
(11,455,cs),
(11,389,o),
(45,348,o),
(101,348,cs),
(141,348,o),
(167,379,o),
(167,426,c),
(127,399,l),
(142,379,o),
(140,362,o),
(121,346,cs),
(79,311,o),
(63,287,o),
(63,225,cs),
(63,128,l),
(34,103,l),
(34,0,l)
);
},
{
closed = 1;
nodes = (
(95,415,o),
(83,430,o),
(83,454,cs),
(83,478,o),
(95,493,o),
(114,493,cs),
(133,493,o),
(145,478,o),
(145,454,cs),
(145,430,o),
(133,415,o),
(114,415,cs)
);
}
);
userData = {
com.schriftgestaltung.Glyphs.glyph.rightMetricsKey = "boBaimai-thai";
};
width = 470;
},
{
anchors = (
{
name = bottom;
pos = (332,0);
},
{
name = top;
pos = (332,555);
}
);
layerId = "94F80E8F-7C96-497F-B870-569C37B7A2A5";
shapes = (
{
closed = 1;
nodes = (
(252,0,ls),
(306,0,o),
(332,31,o),
(332,95,cs),
(332,555,l),
(255,555,l),
(255,108,ls),
(255,77,o),
(246,65,o),
(222,65,cs),
(147,65,l),
(147,225,ls),
(147,281,o),
(151,310,o),
(162,345,cs),
(176,389,o),
(181,417,o),
(181,460,cs),
(181,524,o),
(153,562,o),
(104,562,cs),
(54,562,o),
(24,527,o),
(24,468,cs),
(24,411,o),
(50,377,o),
(93,377,cs),
(126,377,o),
(147,408,o),
(147,456,c),
(137,456,l),
(138,414,o),
(132,396,o),
(102,347,cs),
(76,304,o),
(70,281,o),
(70,218,cs),
(70,64,l),
(40,51,l),
(40,0,l)
);
},
{
closed = 1;
nodes = (
(79,418,o),
(69,436,o),
(69,468,cs),
(69,500,o),
(79,518,o),
(97,518,cs),
(115,518,o),
(125,500,o),
(125,468,cs),
(125,436,o),
(115,418,o),
(97,418,cs)
);
}
);
width = 388;
}
);
metricRight = "boBaimai-thai";
note = "
uni0E02
";
unicode = 3586;
},
{
glyphname = "khoKhuat-thai";
kernLeft = "khoKhai-thai";
lastChange = "2022-09-01 04:16:00 +0000";
layers = (
{
anchors = (
{
name = bottom;
pos = (569,0);
},
{
name = top;
pos = (569,563);
}
);
layerId = "EB3A5D6C-8260-43A6-9EF2-63971FC08D48";
shapes = (
{
closed = 1;
nodes = (
(439,0,ls),
(523,0,o),
(569,46,o),
(569,130,cs),
(569,563,l),
(387,563,l),
(387,165,ls),
(387,146,o),
(376,135,o),
(357,135,cs),
(279,135,l),
(279,218,ls),
(279,255,o),
(284,282,o),
(297,312,cs),
(322,370,o),
(332,414,o),
(332,470,cs),
(332,563,l),
(248,563,l),
(242,511,o),
(229,470,o),
(212,443,c),
(214,427,l),
(225,440,o),
(232,458,o),
(232,475,cs),
(232,533,o),
(187,573,o),
(122,573,cs),
(49,573,o),
(4,532,o),
(4,465,cs),
(4,400,o),
(52,357,o),
(123,357,cs),
(152,357,o),
(182,370,o),
(202,391,c),
(205,389,l),
(198,377,o),
(188,369,o),
(160,347,cs),
(115,312,o),
(97,273,o),
(97,211,cs),
(97,128,l),
(47,103,l),
(47,0,l)
);
},
{
closed = 1;
nodes = (
(98,426,o),
(82,440,o),
(82,465,cs),
(82,490,o),
(98,504,o),
(124,504,cs),
(150,504,o),
(166,490,o),
(166,465,cs),
(166,440,o),
(150,426,o),
(124,426,cs)
);
}
);
userData = {
com.schriftgestaltung.Glyphs.glyph.leftMetricsKey = "soSo-thai";
com.schriftgestaltung.Glyphs.glyph.rightMetricsKey = "boBaimai-thai";
};
width = 643;
},
{
anchors = (
{
name = bottom;
pos = (427,0);
},
{
name = top;
pos = (427,550);
}
);
layerId = "90A34054-68E4-499D-AE50-276C7B026D8B";
shapes = (
{
closed = 1;
nodes = (
(346,0,ls),
(401,0,o),
(427,26,o),
(427,82,cs),
(427,550,l),
(402,550,l),
(402,85,ls),
(402,41,o),
(384,23,o),
(341,23,cs),
(157,23,l),
(157,202,ls),
(157,272,o),
(164,289,o),
(215,349,cs),
(255,396,o),
(267,435,o),
(267,514,cs),
(267,550,l),
(248,550,l),
(238,492,o),
(192,430,o),
(157,427,c),
(157,417,l),
(176,431,o),
(188,454,o),
(188,478,cs),
(188,523,o),
(155,554,o),
(108,554,cs),
(59,554,o),
(27,522,o),
(27,474,cs),
(27,427,o),
(61,396,o),
(114,396,cs),
(172,396,o),
(226,436,o),
(246,493,c),
(248,493,l),
(244,431,o),
(235,408,o),
(198,364,cs),
(141,297,o),
(132,275,o),
(132,202,cs),
(132,23,l),
(80,18,l),
(80,0,l)
);
},
{
closed = 1;
nodes = (
(73,416,o),
(51,439,o),
(51,474,cs),
(51,509,o),
(73,532,o),
(108,532,cs),
(143,532,o),
(165,509,o),
(165,474,cs),
(165,439,o),
(143,416,o),
(108,416,cs)
);
}
);
width = 527;
},
{
anchors = (
{
name = bottom;
pos = (484,0);
},
{
name = top;
pos = (484,555);
}
);
hints = (
{
horizontal = 1;
origin = (0,29);
target = (1,5);
type = Stem;
},
{
horizontal = 1;
origin = (0,5);
target = down;
type = TopGhost;
},
{
horizontal = 1;
origin = (0,48);
target = (0,10);
type = Stem;
},
{
origin = (0,46);
target = (0,10);
type = Stem;
},
{
origin = (0,6);
target = (0,3);
type = Stem;
}
);
layerId = "9148514D-BEB8-4275-B264-8F51401A425F";
shapes = (
{
closed = 1;
nodes = (
(384,0,ls),
(450,0,o),
(484,34,o),
(484,101,cs),
(484,555,l),
(394,555,l),
(394,117,ls),
(394,82,o),
(380,68,o),
(347,68,cs),
(206,68,l),
(206,217,ls),
(206,259,o),
(215,282,o),
(254,337,cs),
(283,378,o),
(293,419,o),
(293,496,cs),
(293,555,l),
(244,555,l),
(237,509,o),
(207,456,o),
(175,433,c),
(180,421,l),
(196,434,o),
(206,455,o),
(206,477,cs),
(206,527,o),
(168,562,o),
(114,562,cs),
(55,562,o),
(18,526,o),
(18,470,cs),
(18,415,o),
(57,380,o),
(118,380,cs),
(163,380,o),
(207,409,o),
(228,452,c),
(231,451,l),
(225,413,o),
(217,397,o),
(183,357,cs),
(130,294,o),
(118,267,o),
(118,217,cs),
(118,65,l),
(67,52,l),
(67,0,l)
);
},
{
closed = 1;
nodes = (
(86,427,o),
(70,443,o),
(70,470,cs),
(70,497,o),
(86,513,o),
(114,513,cs),
(142,513,o),
(158,497,o),
(158,470,cs),
(158,443,o),
(142,427,o),
(114,427,cs)
);
}
);
width = 573;
},
{
anchors = (
{
name = bottom;
pos = (281,0);
},
{
name = top;
pos = (281,550);
}
);
layerId = "54E3FB14-E6D2-4DF3-BA4A-5621168F9335";
shapes = (
{
closed = 1;
nodes = (
(217,0,ls),
(262,0,o),
(281,22,o),
(281,72,cs),
(281,550,l),
(256,550,l),
(256,75,ls),
(256,35,o),
(246,23,o),
(213,23,cs),
(107,23,l),
(107,202,ls),
(107,265,o),
(114,294,o),
(143,351,cs),
(170,404,o),
(174,425,o),
(174,498,cs),
(174,550,l),
(156,550,l),
(150,496,o),
(126,441,o),
(103,427,c),
(104,417,l),
(116,432,o),
(122,453,o),
(122,478,cs),
(122,527,o),
(104,554,o),
(70,554,cs),
(36,554,o),
(16,525,o),
(16,474,cs),
(16,424,o),
(37,396,o),
(73,396,cs),
(107,396,o),
(141,432,o),
(155,483,c),
(156,483,l),
(153,428,o),
(148,409,o),
(124,363,cs),
(91,299,o),
(83,268,o),
(83,202,cs),
(83,23,l),
(49,18,l),
(49,0,l)
);
},
{
closed = 1;
nodes = (
(50,416,o),
(39,437,o),
(39,474,cs),
(39,511,o),
(50,532,o),
(70,532,cs),
(90,532,o),
(101,511,o),
(101,474,cs),
(101,437,o),
(90,416,o),
(70,416,cs)
);
}
);
width = 343;
},
{
anchors = (
{
name = bottom;
pos = (443,0);
},
{
name = top;
pos = (443,563);
}
);
layerId = "E703E12A-5DA7-48FA-B69F-BB282FBD8E56";
shapes = (
{
closed = 1;
nodes = (
(340,0,ls),
(406,0,o),
(443,46,o),
(443,130,cs),
(443,563,l),
(290,563,l),
(290,165,ls),
(290,145,o),
(281,135,o),
(261,135,cs),
(223,135,l),
(223,218,ls),
(223,258,o),
(225,285,o),
(232,312,cs),
(253,391,o),
(257,419,o),
(257,470,cs),
(257,563,l),
(188,563,l),
(183,502,o),
(176,466,o),
(167,443,c),
(168,427,l),
(176,441,o),
(180,458,o),
(180,475,cs),
(180,533,o),
(144,573,o),
(92,573,cs),
(37,573,o),
(2,531,o),
(2,466,cs),
(2,402,o),
(37,357,o),
(87,357,cs),
(111,357,o),
(132,369,o),
(148,391,c),
(151,389,l),
(145,378,o),
(140,371,o),
(117,347,cs),
(84,312,o),
(71,273,o),
(71,211,cs),
(71,128,l),
(33,103,l),
(33,0,l)
);
},
{
closed = 1;
nodes = (
(77,426,o),
(65,441,o),
(65,465,cs),
(65,489,o),
(77,504,o),
(96,504,cs),
(115,504,o),
(127,489,o),
(127,465,cs),
(127,441,o),
(115,426,o),
(96,426,cs)
);
}
);
userData = {
com.schriftgestaltung.Glyphs.glyph.leftMetricsKey = "soSo-thai";
com.schriftgestaltung.Glyphs.glyph.rightMetricsKey = "boBaimai-thai";
};
width = 491;
},
{
anchors = (
{
name = bottom;
pos = (345,0);
},
{
name = top;
pos = (345,555);
}
);
layerId = "94F80E8F-7C96-497F-B870-569C37B7A2A5";
shapes = (
{
closed = 1;
nodes = (
(265,0,ls),
(319,0,o),
(345,31,o),
(345,95,cs),
(345,555,l),
(268,555,l),
(268,108,ls),
(268,77,o),
(259,65,o),
(235,65,cs),
(155,65,l),
(155,209,ls),
(155,267,o),
(160,295,o),
(178,337,cs),
(202,394,o),
(207,422,o),
(207,488,cs),
(207,555,l),
(169,555,l),
(163,505,o),
(149,473,o),
(123,447,c),
(129,422,l),
(139,436,o),
(145,456,o),
(145,478,cs),
(145,531,o),
(120,562,o),
(79,562,cs),
(36,562,o),
(10,528,o),
(10,471,cs),
(10,416,o),
(37,382,o),
(82,382,cs),
(108,382,o),
(135,408,o),
(152,448,c),
(154,447,l),
(149,408,o),
(143,393,o),
(121,358,cs),
(88,305,o),
(78,271,o),
(78,207,cs),
(78,64,l),
(43,51,l),
(43,0,l)
);
},
{
closed = 1;
nodes = (
(63,421,o),
(53,439,o),
(53,471,cs),
(53,503,o),
(63,521,o),
(81,521,cs),
(99,521,o),
(109,503,o),
(109,471,cs),
(109,439,o),
(99,421,o),
(81,421,cs)
);
}
);
width = 401;
}
);
metricRight = "boBaimai-thai";
unicode = 3587;
},
{
glyphname = "khoKhwai-thai";
kernLeft = "khoKhwai-thai";
kernRight = "koKai-thai";
lastChange = "2022-09-01 04:16:00 +0000";
layers = (
{
anchors = (
{
name = bottom;
pos = (624,0);
},
{
name = top;
pos = (614,563);
}
);
layerId = "EB3A5D6C-8260-43A6-9EF2-63971FC08D48";
shapes = (
{
closed = 1;
nodes = (
(259,0,l),
(259,43,ls),
(259,110,o),
(269,142,o),
(302,181,c),
(284,252,l),
(263,247,o),
(252,231,o),
(252,207,cs),
(252,174,o),
(296,146,o),
(347,146,cs),
(415,146,o),
(457,187,o),
(457,255,cs),
(457,325,o),
(417,364,o),
(346,364,cs),
(281,364,o),
(239,324,o),
(213,238,c),
(209,238,l),
(213,254,o),
(214,267,o),
(214,319,cs),
(214,337,ls),
(214,401,o),
(257,440,o),
(328,440,cs),
(401,440,o),
(442,401,o),
(442,332,cs),
(442,0,l),
(624,0,l),
(624,334,ls),
(624,493,o),
(525,578,o),
(341,578,cs),
(159,578,o),
(51,485,o),
(51,328,cs),
(51,227,o),
(81,175,o),
(81,67,cs),
(81,0,l)
);
},
{
closed = 1;
nodes = (
(321,219,o),
(308,232,o),
(308,255,cs),
(308,278,o),
(321,291,o),
(346,291,cs),
(370,291,o),
(384,278,o),
(384,255,cs),
(384,232,o),
(370,219,o),
(346,219,cs)
);
}
);
width = 696;
},
{
anchors = (
{
name = bottom;
pos = (499,0);
},
{
name = top;
pos = (489,550);
}
);
layerId = "90A34054-68E4-499D-AE50-276C7B026D8B";
shapes = (
{
closed = 1;
nodes = (
(126,0,l),
(126,87,ls),
(126,222,o),
(204,314,o),
(238,321,c),
(241,328,l),
(225,320,o),
(214,301,o),
(214,278,cs),
(214,233,o),
(244,199,o),
(293,199,cs),
(342,199,o),
(374,234,o),
(374,279,cs),
(374,324,o),
(342,359,o),
(292,359,cs),
(218,359,o),
(135,279,o),
(116,169,c),
(114,169,l),
(113,211,o),
(100,248,o),
(100,329,cs),
(100,342,ls),
(100,466,o),
(174,535,o),
(292,535,cs),
(406,535,o),
(474,475,o),
(474,361,cs),
(474,0,l),
(499,0,l),
(499,366,ls),
(499,487,o),
(423,558,o),
(292,558,cs),
(149,558,o),
(75,476,o),
(75,334,cs),
(75,234,o),
(101,170,o),
(101,77,cs),
(101,0,l)
);
},
{
closed = 1;
nodes = (
(258,221,o),
(236,244,o),
(236,279,cs),
(236,314,o),
(258,337,o),
(293,337,cs),
(328,337,o),
(350,314,o),
(350,279,cs),
(350,244,o),
(328,221,o),
(293,221,cs)
);
}
);
width = 594;
},
{
anchors = (
{
name = bottom;
pos = (549,0);
},
{
name = top;
pos = (539,555);
}
);
hints = (
{
origin = (0,32);
target = (0,33);
type = Stem;
},
{
horizontal = 1;
origin = (0,37);
target = (0,28);
type = Stem;
},
{
horizontal = 1;
origin = (0,44);
target = up;
type = BottomGhost;
},
{
origin = (0,40);
target = (0,24);
type = Stem;
}
);
layerId = "9148514D-BEB8-4275-B264-8F51401A425F";
shapes = (
{
closed = 1;
nodes = (
(180,0,l),
(180,69,ls),
(180,152,o),
(216,235,o),
(264,264,c),
(258,297,l),
(240,290,o),
(229,272,o),
(229,249,cs),
(229,209,o),
(267,178,o),
(316,178,cs),
(376,178,o),
(416,214,o),
(416,269,cs),
(416,325,o),
(376,361,o),
(314,361,cs),
(237,361,o),
(178,300,o),
(155,197,c),
(152,197,l),
(152,242,o),
(145,287,o),
(145,329,cs),
(145,337,ls),
(145,438,o),
(207,497,o),
(308,497,cs),
(404,497,o),
(459,444,o),
(459,342,cs),
(459,0,l),
(549,0,l),
(549,342,ls),
(549,488,o),
(461,566,o),
(308,566,cs),
(148,566,o),
(59,479,o),
(59,332,cs),
(59,231,o),
(93,172,o),
(93,73,cs),
(93,0,l)
);
},
{
closed = 1;
nodes = (
(287,226,o),
(270,242,o),
(270,269,cs),
(270,296,o),
(286,312,o),
(314,312,cs),
(342,312,o),
(358,296,o),
(358,269,cs),
(358,242,o),
(343,226,o),
(315,226,cs)
);
}
);
width = 635;
},
{
anchors = (
{
name = bottom;
pos = (326,0);
},
{
name = top;
pos = (320,550);
}
);
layerId = "54E3FB14-E6D2-4DF3-BA4A-5621168F9335";
shapes = (
{
closed = 1;
nodes = (
(88,0,l),
(88,87,ls),
(88,184,o),
(117,283,o),
(156,319,c),
(157,328,l),
(146,319,o),
(139,300,o),
(139,278,cs),
(139,228,o),
(158,199,o),
(191,199,cs),
(225,199,o),
(245,228,o),
(245,279,cs),
(245,330,o),
(225,359,o),
(190,359,cs),
(139,359,o),
(95,284,o),
(79,169,c),
(77,169,l),
(77,211,o),
(70,249,o),
(70,329,cs),
(70,342,ls),
(70,464,o),
(108,535,o),
(189,535,cs),
(269,535,o),
(301,474,o),
(301,364,cs),
(301,0,l),
(326,0,l),
(326,364,ls),
(326,487,o),
(288,558,o),
(189,558,cs),
(87,558,o),
(46,475,o),
(46,334,cs),
(46,234,o),
(64,170,o),
(64,77,cs),
(64,0,l)
);
},
{
closed = 1;
nodes = (
(171,221,o),
(160,242,o),
(160,279,cs),
(160,316,o),
(171,337,o),
(191,337,cs),
(211,337,o),
(222,316,o),
(222,279,cs),
(222,242,o),
(211,221,o),
(191,221,cs)
);
}
);
width = 386;
},
{
anchors = (
{
name = bottom;
pos = (481,0);
},
{
name = top;
pos = (475,563);
}
);
layerId = "E703E12A-5DA7-48FA-B69F-BB282FBD8E56";
shapes = (
{
closed = 1;
nodes = (
(208,0,l),
(208,43,ls),
(208,126,o),
(212,148,o),
(233,181,c),
(218,252,l),
(202,247,o),
(193,231,o),
(193,207,cs),
(193,175,o),
(227,146,o),
(266,146,cs),
(318,146,o),
(350,187,o),
(350,255,cs),
(350,325,o),
(320,364,o),
(265,364,cs),
(212,364,o),
(183,325,o),
(170,238,c),
(164,238,l),
(168,257,o),
(169,276,o),
(169,319,cs),
(169,337,ls),
(169,399,o),
(201,440,o),
(250,440,cs),
(300,440,o),
(329,400,o),
(329,332,cs),
(329,0,l),
(481,0,l),
(481,334,ls),
(481,492,o),
(403,578,o),
(260,578,cs),
(120,578,o),
(37,485,o),
(37,328,cs),
(37,227,o),
(59,175,o),
(59,67,cs),
(59,0,l)
);
},
{
closed = 1;
nodes = (
(247,219,o),
(237,232,o),
(237,255,cs),
(237,278,o),
(247,291,o),
(265,291,cs),
(282,291,o),
(293,278,o),
(293,255,cs),
(293,232,o),
(282,219,o),
(265,219,cs)
);
}
);
width = 527;
},
{
anchors = (
{
name = bottom;
pos = (387,0);
},
{
name = top;
pos = (381,555);
}
);
layerId = "94F80E8F-7C96-497F-B870-569C37B7A2A5";
shapes = (
{
closed = 1;
nodes = (
(135,0,l),
(135,70,ls),
(135,156,o),
(154,243,o),
(181,276,c),
(181,298,l),
(168,291,o),
(160,273,o),
(160,250,cs),
(160,208,o),
(185,179,o),
(221,179,cs),
(262,179,o),
(286,212,o),
(286,270,cs),
(286,330,o),
(263,362,o),
(220,362,cs),
(172,362,o),
(133,300,o),
(115,196,c),
(112,196,l),
(114,249,o),
(110,274,o),
(110,325,cs),
(110,340,ls),
(110,442,o),
(147,499,o),
(213,499,cs),
(278,499,o),
(310,450,o),
(310,351,cs),
(310,0,l),
(387,0,l),
(387,352,ls),
(387,494,o),
(330,566,o),
(218,566,cs),
(99,566,o),
(42,490,o),
(42,332,cs),
(42,231,o),
(62,172,o),
(62,73,cs),
(62,0,l)
);
},
{
closed = 1;
nodes = (
(202,219,o),
(192,237,o),
(192,269,cs),
(192,301,o),
(202,319,o),
(220,319,cs),
(238,319,o),
(248,301,o),
(248,269,cs),
(248,237,o),
(238,219,o),
(220,219,cs)
);
}
);
width = 443;
}
);
metricRight = "koKai-thai";
note = "
uni0E04
";
unicode = 3588;
},
{
glyphname = "khoKhon-thai";
kernLeft = "khoKhwai-thai";
lastChange = "2022-09-01 04:16:00 +0000";
layers = (
{
anchors = (
{
name = bottom;
pos = (624,0);
},
{
name = top;
pos = (614,563);
}
);
layerId = "EB3A5D6C-8260-43A6-9EF2-63971FC08D48";
shapes = (
{
closed = 1;
nodes = (
(259,0,l),
(259,43,ls),
(259,104,o),
(269,136,o),
(302,174,c),
(278,231,l),
(261,227,o),
(252,216,o),
(252,200,cs),
(252,166,o),
(294,139,o),
(347,139,cs),
(415,139,o),
(457,180,o),
(457,248,cs),
(457,318,o),
(417,357,o),
(346,357,cs),
(282,357,o),
(239,316,o),
(213,231,c),
(209,231,l),
(213,250,o),
(214,272,o),
(214,312,cs),
(214,337,ls),
(214,396,o),
(233,431,o),
(265,431,c),
(329,386,l),
(339,386,l),
(401,431,l),
(425,431,o),
(442,409,o),
(442,376,cs),
(442,0,l),
(624,0,l),
(624,354,ls),
(624,485,o),
(541,573,o),
(418,573,c),
(332,511,l),
(247,573,l),
(132,573,o),
(51,475,o),
(51,337,cs),
(51,227,o),
(81,175,o),
(81,67,cs),
(81,0,l)
);
},
{
closed = 1;
nodes = (
(321,212,o),
(308,225,o),
(308,248,cs),
(308,271,o),
(321,284,o),
(346,284,cs),
(370,284,o),
(384,271,o),
(384,248,cs),
(384,225,o),
(370,212,o),
(346,212,cs)
);
}
);
userData = {
com.schriftgestaltung.Glyphs.glyph.leftMetricsKey = "khoKhwai-thai";
com.schriftgestaltung.Glyphs.glyph.rightMetricsKey = "khoKhwai-thai";
};
width = 696;
},
{
anchors = (
{
name = bottom;
pos = (501,0);
},
{
name = top;
pos = (491,550);
}
);
layerId = "90A34054-68E4-499D-AE50-276C7B026D8B";
shapes = (
{
closed = 1;
nodes = (
(126,0,l),
(126,87,ls),
(126,217,o),
(205,310,o),
(239,317,c),
(242,324,l),
(226,316,o),
(215,297,o),
(215,274,cs),
(215,229,o),
(245,195,o),
(294,195,cs),
(343,195,o),
(375,230,o),
(375,275,cs),
(375,320,o),
(343,355,o),
(293,355,cs),
(219,355,o),
(135,274,o),
(116,169,c),
(114,169,l),
(113,216,o),
(100,259,o),
(100,348,cs),
(100,365,ls),
(100,447,o),
(133,502,o),
(198,530,c),
(286,450,l),
(290,450,l),
(380,530,l),
(446,513,o),
(476,462,o),
(476,366,cs),
(476,0,l),
(501,0,l),
(501,366,ls),
(501,478,o),
(464,534,o),
(374,555,c),
(288,477,l),
(203,555,l),
(116,528,o),
(75,463,o),
(75,353,cs),
(75,246,o),
(101,177,o),
(101,77,cs),
(101,0,l)
);
},
{
closed = 1;
nodes = (
(259,217,o),
(237,240,o),
(237,275,cs),
(237,310,o),
(259,333,o),
(294,333,cs),
(329,333,o),
(351,310,o),
(351,275,cs),
(351,240,o),
(329,217,o),
(294,217,cs)
);
}
);
width = 596;
},
{
anchors = (
{
name = bottom;
pos = (545,0);
},
{
name = top;
pos = (535,555);
}
);
hints = (
{
origin = (0,45);
target = (0,24);
type = Stem;
},
{
origin = (0,35);
target = (0,36);
type = Stem;
},
{
horizontal = 1;
origin = (0,49);
target = up;
type = BottomGhost;
},
{
horizontal = 1;
origin = (0,42);
target = down;
type = TopGhost;
}
);
layerId = "9148514D-BEB8-4275-B264-8F51401A425F";
shapes = (
{
closed = 1;
nodes = (
(174,0,l),
(174,69,ls),
(174,152,o),
(210,235,o),
(258,264,c),
(252,297,l),
(234,290,o),
(223,272,o),
(223,249,cs),
(223,209,o),
(261,178,o),
(310,178,cs),
(370,178,o),
(410,214,o),
(410,269,cs),
(410,325,o),
(370,361,o),
(308,361,cs),
(231,361,o),
(172,300,o),
(149,197,c),
(146,197,l),
(146,242,o),
(139,287,o),
(139,329,cs),
(139,347,ls),
(139,427,o),
(169,475,o),
(206,487,c),
(295,422,l),
(305,422,l),
(394,487,l),
(432,480,o),
(455,447,o),
(455,381,cs),
(455,0,l),
(545,0,l),
(545,381,ls),
(545,490,o),
(491,553,o),
(388,562,c),
(299,497,l),
(210,562,l),
(117,546,o),
(59,469,o),
(59,347,cs),
(59,238,o),
(87,176,o),
(87,73,cs),
(87,0,l)
);
},
{
closed = 1;
nodes = (
(281,226,o),
(264,242,o),
(264,269,cs),
(264,296,o),
(280,312,o),
(308,312,cs),
(336,312,o),
(352,296,o),
(352,269,cs),
(352,242,o),
(337,226,o),
(309,226,cs)
);
}
);
width = 631;
},
{
anchors = (
{
name = bottom;
pos = (327,0);
},
{
name = top;
pos = (321,550);
}
);
layerId = "54E3FB14-E6D2-4DF3-BA4A-5621168F9335";
shapes = (
{
closed = 1;
nodes = (
(88,0,l),
(88,87,ls),
(88,184,o),
(117,283,o),
(156,319,c),
(157,328,l),
(146,319,o),
(139,300,o),
(139,278,cs),
(139,228,o),
(158,199,o),
(191,199,cs),
(225,199,o),
(245,228,o),
(245,279,cs),
(245,330,o),
(225,359,o),
(190,359,cs),
(139,359,o),
(95,284,o),
(79,169,c),
(77,169,l),
(77,211,o),
(70,249,o),
(70,329,cs),
(70,342,ls),
(70,451,o),
(93,503,o),
(132,527,c),
(190,445,l),
(193,445,l),
(251,526,l),
(285,506,o),
(302,468,o),
(302,376,cs),
(302,0,l),
(327,0,l),
(327,376,ls),
(327,481,o),
(305,529,o),
(247,555,c),
(192,477,l),
(138,555,l),
(77,528,o),
(46,464,o),
(46,334,cs),
(46,234,o),
(64,170,o),
(64,77,cs),
(64,0,l)
);
},
{
closed = 1;
nodes = (
(171,221,o),
(160,242,o),
(160,279,cs),
(160,316,o),
(171,337,o),
(191,337,cs),
(211,337,o),
(222,316,o),
(222,279,cs),
(222,242,o),
(211,221,o),
(191,221,cs)
);
}
);
width = 387;
},
{
anchors = (
{
name = bottom;
pos = (482,0);
},
{
name = top;
pos = (476,563);
}
);
layerId = "E703E12A-5DA7-48FA-B69F-BB282FBD8E56";
shapes = (
{
closed = 1;
nodes = (
(209,0,l),
(209,43,ls),
(209,112,o),
(215,143,o),
(234,174,c),
(213,231,l),
(201,227,o),
(194,216,o),
(194,200,cs),
(194,166,o),
(226,139,o),
(267,139,cs),
(319,139,o),
(351,180,o),
(351,248,cs),
(351,318,o),
(321,357,o),
(266,357,cs),
(213,357,o),
(183,316,o),
(171,231,c),
(165,231,l),
(170,251,o),
(171,270,o),
(171,312,cs),
(171,337,ls),
(171,396,o),
(185,431,o),
(209,431,c),
(253,386,l),
(260,386,l),
(302,431,l),
(318,431,o),
(329,409,o),
(329,376,cs),
(329,0,l),
(482,0,l),
(482,354,ls),
(482,482,o),
(414,573,o),
(319,573,c),
(255,511,l),
(192,573,l),
(102,573,o),
(37,474,o),
(37,337,cs),
(37,227,o),
(60,175,o),
(60,67,cs),
(60,0,l)
);
},
{
closed = 1;
nodes = (
(248,212,o),
(238,225,o),
(238,248,cs),
(238,271,o),
(248,284,o),
(266,284,cs),
(283,284,o),
(294,271,o),
(294,248,cs),
(294,225,o),
(283,212,o),
(266,212,cs)
);
}
);
userData = {
com.schriftgestaltung.Glyphs.glyph.leftMetricsKey = "khoKhwai-thai";
com.schriftgestaltung.Glyphs.glyph.rightMetricsKey = "khoKhwai-thai";
};
width = 528;
},
{
anchors = (
{
name = bottom;
pos = (388,0);
},
{
name = top;
pos = (382,555);
}
);
layerId = "94F80E8F-7C96-497F-B870-569C37B7A2A5";
shapes = (
{
closed = 1;
nodes = (
(136,0,l),
(136,70,ls),
(136,156,o),
(155,243,o),
(182,276,c),
(182,298,l),
(169,291,o),
(161,273,o),
(161,250,cs),
(161,208,o),
(186,179,o),
(222,179,cs),
(263,179,o),
(287,212,o),
(287,270,cs),
(287,330,o),
(264,362,o),
(221,362,cs),
(173,362,o),
(134,300,o),
(116,196,c),
(113,196,l),
(115,249,o),
(110,274,o),
(110,325,cs),
(110,340,ls),
(110,426,o),
(128,475,o),
(162,489,c),
(215,422,l),
(219,422,l),
(271,489,l),
(299,476,o),
(311,442,o),
(311,376,cs),
(311,0,l),
(388,0,l),
(388,367,ls),
(388,479,o),
(350,545,o),
(275,562,c),
(217,490,l),
(159,562,l),
(84,545,o),
(42,464,o),
(42,335,cs),
(42,231,o),
(62,172,o),
(62,73,cs),
(62,0,l)
);
},
{
closed = 1;
nodes = (
(203,219,o),
(193,237,o),
(193,269,cs),
(193,301,o),
(203,319,o),
(221,319,cs),
(239,319,o),
(249,301,o),
(249,269,cs),
(249,237,o),
(239,219,o),
(221,219,cs)
);
}
);
width = 444;
}
);
metricLeft = "khoKhwai-thai";
metricRight = "koKai-thai";
unicode = 3589;
},
{
glyphname = "khoRakhang-thai";
kernLeft = "khoRakhang-thai";
lastChange = "2022-10-15 14:56:47 +0000";
layers = (
{
anchors = (
{
name = bottom;
pos = (598,0);
},
{
name = top;
pos = (598,563);
}
);
layerId = "EB3A5D6C-8260-43A6-9EF2-63971FC08D48";
shapes = (
{
closed = 1;
nodes = (
(598,0,l),
(598,563,l),
(412,563,l),
(412,254,ls),
(412,219,o),
(414,184,o),
(417,146,c),
(413,146,l),
(365,191,o),
(309,220,o),
(247,233,c),
(297,197,l),
(297,255,ls),
(297,279,o),
(301,300,o),
(311,335,cs),
(326,385,o),
(332,422,o),
(332,470,cs),
(332,563,l),
(248,563,l),
(242,511,o),
(229,470,o),
(212,443,c),
(214,427,l),
(225,440,o),
(232,458,o),
(232,475,cs),
(232,533,o),
(187,573,o),
(122,573,cs),
(49,573,o),
(4,532,o),
(4,465,cs),
(4,400,o),
(52,357,o),
(123,357,cs),
(150,357,o),
(177,369,o),
(198,391,c),
(201,389,l),
(194,378,o),
(187,371,o),
(160,347,cs),
(128,319,o),
(112,292,o),
(112,262,cs),
(112,254,ls),
(112,231,o),
(116,211,o),
(123,194,c),
(237,146,l),
(314,99,o),
(370,54,o),
(417,0,c)
);
},
{
closed = 1;
nodes = (
(98,426,o),
(82,440,o),
(82,465,cs),
(82,490,o),
(98,504,o),
(124,504,cs),
(150,504,o),
(166,490,o),
(166,465,cs),
(166,440,o),
(150,426,o),
(124,426,cs)
);
},
{
closed = 1;
nodes = (
(246,-10,o),
(300,36,o),
(300,109,cs),
(300,182,o),
(246,228,o),
(162,228,cs),
(78,228,o),
(25,182,o),
(25,109,cs),
(25,36,o),
(78,-10,o),
(162,-10,cs)
);
},
{
closed = 1;
nodes = (
(129,70,o),
(113,84,o),
(113,109,cs),
(113,134,o),
(129,148,o),
(155,148,cs),
(181,148,o),
(197,134,o),
(197,109,cs),
(197,84,o),
(181,70,o),
(155,70,cs)
);
}
);
userData = {
com.schriftgestaltung.Glyphs.glyph.rightMetricsKey = "boBaimai-thai";
};
width = 672;
},
{
anchors = (
{
name = bottom;
pos = (502,0);
},
{
name = top;
pos = (502,550);
}
);
layerId = "90A34054-68E4-499D-AE50-276C7B026D8B";
shapes = (
{
closed = 1;
nodes = (
(502,0,l),
(502,550,l),
(477,550,l),
(477,236,ls),
(477,131,o),
(477,78,o),
(478,28,c),
(475,28,l),
(407,67,o),
(288,112,o),
(185,137,c),
(196,121,l),
(196,232,ls),
(196,282,o),
(201,298,o),
(234,353,cs),
(265,405,o),
(273,439,o),
(273,514,cs),
(273,550,l),
(254,550,l),
(244,492,o),
(198,430,o),
(163,427,c),
(163,417,l),
(182,431,o),
(194,454,o),
(194,478,cs),
(194,523,o),
(161,554,o),
(114,554,cs),
(65,554,o),
(33,522,o),
(33,474,cs),
(33,427,o),
(67,396,o),
(120,396,cs),
(178,396,o),
(232,436,o),
(252,493,c),
(254,493,l),
(250,438,o),
(243,414,o),
(214,364,cs),
(179,305,o),
(171,280,o),
(171,232,cs),
(171,210,ls),
(171,183,o),
(171,157,o),
(171,130,c),
(196,112,l),
(272,94,o),
(404,48,o),
(477,0,c)
);
},
{
closed = 1;
nodes = (
(79,416,o),
(57,439,o),
(57,474,cs),
(57,509,o),
(79,532,o),
(114,532,cs),
(149,532,o),
(171,509,o),
(171,474,cs),
(171,439,o),
(149,416,o),
(114,416,cs)
);
},
{
closed = 1;
nodes = (
(177,-5,o),
(211,29,o),
(211,77,cs),
(211,125,o),
(177,158,o),
(127,158,cs),
(77,158,o),
(43,125,o),
(43,77,cs),
(43,29,o),
(77,-5,o),
(127,-5,cs)
);
},
{
closed = 1;
nodes = (
(91,17,o),
(67,41,o),
(67,77,cs),
(67,112,o),
(91,136,o),
(127,136,cs),
(163,136,o),
(187,112,o),
(187,77,cs),
(187,41,o),
(163,17,o),
(127,17,cs)
);
}
);
width = 602;
},
{
anchors = (
{
name = bottom;
pos = (541,0);
},
{
name = top;
pos = (541,555);
}
);
hints = (
{
horizontal = 1;
origin = (0,30);
target = (1,5);
type = Stem;
},
{
horizontal = 1;
origin = (2,11);
target = (3,11);
type = Stem;
},
{
horizontal = 1;
origin = (0,2);
target = down;
type = TopGhost;
},
{
horizontal = 1;
origin = (0,54);
target = up;
type = BottomGhost;
},
{
origin = (0,47);
target = (0,12);
type = Stem;
},
{
origin = (0,3);
target = (0,0);
type = Stem;
}
);
layerId = "9148514D-BEB8-4275-B264-8F51401A425F";
shapes = (
{
closed = 1;
nodes = (
(541,0,l),
(541,555,l),
(451,555,l),
(451,243,ls),
(451,162,o),
(452,119,o),
(453,76,c),
(450,76,l),
(390,116,o),
(298,155,o),
(210,176,c),
(237,152,l),
(237,217,ls),
(237,278,o),
(242,295,o),
(271,337,cs),
(300,379,o),
(310,420,o),
(310,496,cs),
(310,555,l),
(261,555,l),
(254,509,o),
(224,456,o),
(192,433,c),
(197,421,l),
(213,434,o),
(223,455,o),
(223,477,cs),
(223,527,o),
(185,562,o),
(131,562,cs),
(72,562,o),
(35,526,o),
(35,470,cs),
(35,415,o),
(74,380,o),
(135,380,cs),
(180,380,o),
(224,409,o),
(245,452,c),
(248,451,l),
(242,412,o),
(233,396,o),
(200,357,cs),
(162,313,o),
(147,274,o),
(147,222,cs),
(147,218,ls),
(147,194,o),
(149,174,o),
(152,156,c),
(213,126,l),
(313,87,o),
(402,41,o),
(453,0,c)
);
},
{
closed = 1;
nodes = (
(103,427,o),
(87,443,o),
(87,470,cs),
(87,497,o),
(103,513,o),
(131,513,cs),
(159,513,o),
(175,497,o),
(175,470,cs),
(175,443,o),
(159,427,o),
(131,427,cs)
);
},
{
closed = 1;
nodes = (
(204,-7,o),
(246,32,o),
(246,90,cs),
(246,148,o),
(204,186,o),
(140,186,cs),
(77,186,o),
(36,148,o),
(36,90,cs),
(36,32,o),
(77,-7,o),
(140,-7,cs)
);
},
{
closed = 1;
nodes = (
(110,46,o),
(94,62,o),
(94,89,cs),
(94,116,o),
(110,132,o),
(138,132,cs),
(166,132,o),
(182,116,o),
(182,89,cs),
(182,62,o),
(166,46,o),
(138,46,cs)
);
}
);
width = 630;
},
{
anchors = (
{
name = bottom;
pos = (326,0);
},
{
name = top;
pos = (326,550);
}
);
layerId = "54E3FB14-E6D2-4DF3-BA4A-5621168F9335";
shapes = (
{
closed = 1;
nodes = (
(326,0,l),
(326,550,l),
(301,550,l),
(301,236,ls),
(301,166,o),
(301,95,o),
(301,28,c),
(299,28,l),
(248,75,o),
(175,116,o),
(121,137,c),
(131,121,l),
(131,202,ls),
(131,268,o),
(138,296,o),
(166,351,cs),
(191,401,o),
(197,420,o),
(197,498,cs),
(197,550,l),
(179,550,l),
(173,493,o),
(148,440,o),
(126,427,c),
(127,417,l),
(139,432,o),
(145,454,o),
(145,478,cs),
(145,527,o),
(127,554,o),
(93,554,cs),
(59,554,o),
(39,525,o),
(39,474,cs),
(39,424,o),
(60,396,o),
(96,396,cs),
(133,396,o),
(165,436,o),
(178,483,c),
(179,483,l),
(176,426,o),
(170,407,o),
(147,363,cs),
(117,305,o),
(106,274,o),
(106,202,cs),
(106,190,ls),
(106,161,o),
(106,154,o),
(106,130,c),
(127,112,l),
(176,94,o),
(257,48,o),
(302,0,c)
);
},
{
closed = 1;
nodes = (
(73,416,o),
(62,437,o),
(62,474,cs),
(62,511,o),
(73,532,o),
(93,532,cs),
(113,532,o),
(124,511,o),
(124,474,cs),
(124,437,o),
(113,416,o),
(93,416,cs)
);
},
{
closed = 1;
nodes = (
(119,-5,o),
(138,24,o),
(138,75,cs),
(138,126,o),
(119,155,o),
(87,155,cs),
(51,155,o),
(30,126,o),
(30,75,cs),
(30,24,o),
(50,-5,o),
(85,-5,cs)
);
},
{
closed = 1;
nodes = (
(64,17,o),
(53,38,o),
(53,75,cs),
(53,112,o),
(64,133,o),
(84,133,cs),
(104,133,o),
(115,112,o),
(115,75,cs),
(115,38,o),
(104,17,o),
(84,17,cs)
);
}
);
width = 388;
},
{
anchors = (
{
name = bottom;
pos = (466,0);
},
{
name = top;
pos = (466,563);
}
);
layerId = "E703E12A-5DA7-48FA-B69F-BB282FBD8E56";
shapes = (
{
closed = 1;
nodes = (
(466,0,l),
(466,563,l),
(310,563,l),
(310,254,ls),
(310,213,o),
(311,184,o),
(314,146,c),
(311,146,l),
(275,194,o),
(240,221,o),
(199,233,c),
(240,197,l),
(240,255,ls),
(240,274,o),
(243,301,o),
(248,335,cs),
(256,390,o),
(260,433,o),
(260,470,cs),
(260,563,l),
(191,563,l),
(186,502,o),
(179,466,o),
(170,443,c),
(171,427,l),
(179,441,o),
(183,458,o),
(183,475,cs),
(183,534,o),
(149,573,o),
(97,573,cs),
(42,573,o),
(5,530,o),
(5,466,cs),
(5,402,o),
(40,357,o),
(90,357,cs),
(113,357,o),
(131,368,o),
(148,391,c),
(150,389,l),
(145,382,o),
(141,376,o),
(120,347,cs),
(95,312,o),
(85,289,o),
(85,262,cs),
(85,254,ls),
(85,232,o),
(88,211,o),
(95,194,c),
(189,146,l),
(239,105,o),
(275,63,o),
(314,0,c)
);
},
{
closed = 1;
nodes = (
(80,426,o),
(68,441,o),
(68,465,cs),
(68,489,o),
(80,504,o),
(99,504,cs),
(118,504,o),
(130,489,o),
(130,465,cs),
(130,441,o),
(118,426,o),
(99,426,cs)
);
},
{
closed = 1;
nodes = (
(199,-10,o),
(242,37,o),
(242,109,cs),
(242,182,o),
(199,228,o),
(132,228,cs),
(65,228,o),
(20,181,o),
(20,109,cs),
(20,37,o),
(64,-10,o),
(132,-10,cs)
);
},
{
closed = 1;
nodes = (
(108,70,o),
(96,85,o),
(96,109,cs),
(96,133,o),
(108,148,o),
(127,148,cs),
(146,148,o),
(158,133,o),
(158,109,cs),
(158,85,o),
(146,70,o),
(127,70,cs)
);
}
);
userData = {
com.schriftgestaltung.Glyphs.glyph.rightMetricsKey = "boBaimai-thai";
};
width = 514;
},
{
anchors = (
{
name = bottom;
pos = (381,0);
},
{
name = top;
pos = (381,555);
}
);
layerId = "94F80E8F-7C96-497F-B870-569C37B7A2A5";
shapes = (
{
closed = 1;
nodes = (
(381,0,l),
(381,555,l),
(304,555,l),
(304,243,ls),
(304,159,o),
(304,117,o),
(305,74,c),
(303,74,l),
(262,118,o),
(206,155,o),
(152,175,c),
(175,151,l),
(175,224,ls),
(175,276,o),
(179,299,o),
(198,346,cs),
(217,394,o),
(222,424,o),
(222,488,cs),
(222,555,l),
(184,555,l),
(178,506,o),
(164,473,o),
(138,447,c),
(144,422,l),
(154,436,o),
(160,456,o),
(160,478,cs),
(160,530,o),
(136,562,o),
(95,562,cs),
(52,562,o),
(26,528,o),
(26,471,cs),
(26,416,o),
(53,382,o),
(97,382,cs),
(123,382,o),
(149,407,o),
(166,448,c),
(168,447,l),
(163,409,o),
(157,394,o),
(136,358,cs),
(106,306,o),
(98,276,o),
(98,227,cs),
(98,215,ls),
(98,192,o),
(99,179,o),
(102,155,c),
(151,125,l),
(213,91,o),
(272,44,o),
(307,0,c)
);
},
{
closed = 1;
nodes = (
(79,421,o),
(69,439,o),
(69,471,cs),
(69,503,o),
(79,521,o),
(97,521,cs),
(115,521,o),
(125,503,o),
(125,471,cs),
(125,439,o),
(115,421,o),
(97,421,cs)
);
},
{
closed = 1;
nodes = (
(151,-7,o),
(180,29,o),
(180,88,cs),
(180,147,o),
(151,184,o),
(105,184,cs),
(59,184,o),
(29,147,o),
(29,88,cs),
(29,28,o),
(57,-7,o),
(104,-7,cs)
);
},
{
closed = 1;
nodes = (
(84,38,o),
(74,56,o),
(74,88,cs),
(74,120,o),
(84,138,o),
(102,138,cs),
(120,138,o),
(130,120,o),
(130,88,cs),
(130,56,o),
(120,38,o),
(102,38,cs)
);
}
);
width = 437;
}
);
metricRight = "boBaimai-thai";
unicode = 3590;
},
{
category = Letter;
glyphname = "khoRakhang_macronbelowcomb-thai";
kernLeft = "khoRakhang-thai";
lastChange = "2022-09-01 04:16:00 +0000";
layers = (
{
anchors = (
{
name = bottom;
pos = (502,-100);
}
);
layerId = "90A34054-68E4-499D-AE50-276C7B026D8B";
shapes = (
{
closed = 1;
nodes = (
(502,-100,l),
(502,-77,l),
(62,-77,l),
(62,-100,l)
);
},
{
ref = "khoRakhang-thai";
}
);
width = 602;
},
{
anchors = (
{
name = bottom;
pos = (598,-219);
}
);
layerId = "EB3A5D6C-8260-43A6-9EF2-63971FC08D48";
shapes = (
{
closed = 1;
nodes = (
(598,-219,l),
(598,-77,l),
(44,-77,l),
(44,-219,l)
);
},
{
ref = "khoRakhang-thai";
}
);
width = 672;
},
{
anchors = (
{
name = bottom;
pos = (541,-147);
}
);
hints = (
{
horizontal = 1;
origin = (0,3);
target = (0,2);
type = Stem;
}
);
layerId = "9148514D-BEB8-4275-B264-8F51401A425F";
shapes = (
{
closed = 1;
nodes = (
(541,-147,l),
(541,-76,l),
(55,-76,l),
(55,-147,l)
);
},
{
alignment = -1;
ref = "khoRakhang-thai";
}
);
width = 630;
},
{
anchors = (
{
name = bottom;
pos = (326,-100);
}
);
layerId = "54E3FB14-E6D2-4DF3-BA4A-5621168F9335";
shapes = (
{
closed = 1;
nodes = (
(326,-100,l),
(326,-77,l),
(39,-77,l),
(39,-100,l)
);
},
{
ref = "khoRakhang-thai";
}
);
width = 388;
},
{
anchors = (
{
name = bottom;
pos = (466,-219);
}
);
layerId = "E703E12A-5DA7-48FA-B69F-BB282FBD8E56";
shapes = (
{
closed = 1;
nodes = (
(466,-219,l),
(466,-77,l),
(31,-77,l),
(31,-219,l)
);
},
{
ref = "khoRakhang-thai";
}
);
width = 514;
},
{
anchors = (
{
name = bottom;
pos = (381,-147);
}
);
layerId = "94F80E8F-7C96-497F-B870-569C37B7A2A5";
shapes = (
{
closed = 1;
nodes = (
(381,-147,l),
(381,-77,l),
(38,-77,l),
(38,-147,l)
);
},
{
alignment = -1;
ref = "khoRakhang-thai";
}
);
width = 437;
}
);
metricLeft = "khoRakhang-thai";
metricRight = "boBaimai-thai";
script = thai;
subCategory = Other;
},
{
glyphname = "ngoNgu-thai";
kernLeft = "ngoNgu-thai";
kernRight = "ngoNgu-thai";
lastChange = "2022-09-01 04:16:00 +0000";
layers = (
{
anchors = (
{
name = bottom;
pos = (506,0);
},
{
name = top;
pos = (506,563);
}
);
layerId = "EB3A5D6C-8260-43A6-9EF2-63971FC08D48";
shapes = (
{
closed = 1;
nodes = (
(353,0,ls),
(443,0,o),
(506,68,o),
(506,164,cs),
(506,454,ls),
(506,528,o),
(455,573,o),
(371,573,cs),
(287,573,o),
(233,527,o),
(233,454,cs),
(233,384,o),
(284,335,o),
(356,335,cs),
(420,335,o),
(459,371,o),
(459,431,c),
(441,431,l),
(438,384,o),
(399,358,o),
(332,358,c),
(322,326,o),
(320,311,o),
(320,287,cs),
(320,173,ls),
(320,141,o),
(311,130,o),
(284,130,cs),
(223,130,l),
(279,101,l),
(195,409,l),
(9,409,l),
(127,0,l)
);
},
{
closed = 1;
nodes = (
(338,415,o),
(322,429,o),
(322,454,cs),
(322,479,o),
(338,493,o),
(364,493,cs),
(390,493,o),
(406,479,o),
(406,454,cs),
(406,429,o),
(390,415,o),
(364,415,cs)
);
}
);
width = 576;
},
{
anchors = (
{
name = bottom;
pos = (389,0);
},
{
name = top;
pos = (389,550);
}
);
layerId = "90A34054-68E4-499D-AE50-276C7B026D8B";
shapes = (
{
closed = 1;
nodes = (
(275,0,ls),
(353,0,o),
(389,36,o),
(389,115,cs),
(389,474,ls),
(389,522,o),
(357,554,o),
(308,554,cs),
(259,554,o),
(227,522,o),
(227,474,cs),
(227,426,o),
(259,394,o),
(308,394,cs),
(352,394,o),
(377,423,o),
(377,474,c),
(373,474,l),
(373,457,o),
(371,445,o),
(367,437,c),
(365,424,o),
(364,410,o),
(364,383,cs),
(364,116,ls),
(364,52,o),
(337,23,o),
(278,23,cs),
(200,23,l),
(215,12,l),
(66,409,l),
(39,409,l),
(193,0,l)
);
},
{
closed = 1;
nodes = (
(273,416,o),
(251,439,o),
(251,474,cs),
(251,509,o),
(273,532,o),
(308,532,cs),
(343,532,o),
(365,509,o),
(365,474,cs),
(365,439,o),
(343,416,o),
(308,416,cs)
);
}
);
width = 481;
},
{
anchors = (
{
name = bottom;
pos = (436,0);
},
{
name = top;
pos = (436,555);
}
);
hints = (
{
origin = (0,24);
target = (0,3);
type = Stem;
},
{
horizontal = 1;
origin = (0,7);
target = (1,5);
type = Stem;
},
{
horizontal = 1;
origin = (0,32);
target = (0,27);
type = Stem;
}
);
layerId = "9148514D-BEB8-4275-B264-8F51401A425F";
shapes = (
{
closed = 1;
nodes = (
(306,0,ls),
(389,0,o),
(436,49,o),
(436,135,cs),
(436,466,ls),
(436,524,o),
(396,562,o),
(333,562,cs),
(270,562,o),
(229,524,o),
(229,466,cs),
(229,409,o),
(269,370,o),
(327,370,cs),
(379,370,o),
(410,403,o),
(410,457,c),
(400,457,l),
(399,428,o),
(383,410,o),
(353,405,c),
(348,383,o),
(346,366,o),
(346,344,cs),
(346,139,ls),
(346,88,o),
(326,66,o),
(280,66,cs),
(209,66,l),
(239,48,l),
(116,409,l),
(27,409,l),
(166,0,l)
);
},
{
closed = 1;
nodes = (
(303,423,o),
(287,439,o),
(287,466,cs),
(287,493,o),
(303,509,o),
(331,509,cs),
(359,509,o),
(375,493,o),
(375,466,cs),
(375,439,o),
(359,423,o),
(331,423,cs)
);
}
);
width = 519;
},
{
anchors = (
{
name = bottom;
pos = (255,0);
},
{
name = top;
pos = (255,550);
}
);
layerId = "54E3FB14-E6D2-4DF3-BA4A-5621168F9335";
shapes = (
{
closed = 1;
nodes = (
(180,0,ls),
(234,0,o),
(255,33,o),
(255,115,cs),
(255,474,ls),
(255,525,o),
(235,554,o),
(200,554,cs),
(165,554,o),
(145,525,o),
(145,474,cs),
(145,425,o),
(165,394,o),
(197,394,cs),
(226,394,o),
(242,422,o),
(242,474,c),
(239,474,l),
(239,459,o),
(237,445,o),
(234,437,c),
(231,421,o),
(230,403,o),
(230,383,cs),
(230,116,ls),
(230,47,o),
(217,23,o),
(178,23,cs),
(129,23,l),
(141,12,l),
(49,409,l),
(23,409,l),
(119,0,l)
);
},
{
closed = 1;
nodes = (
(179,416,o),
(168,437,o),
(168,474,cs),
(168,511,o),
(179,532,o),
(199,532,cs),
(219,532,o),
(230,511,o),
(230,474,cs),
(230,437,o),
(219,416,o),
(199,416,cs)
);
}
);
width = 313;
},
{
anchors = (
{
name = bottom;
pos = (392,0);
},
{
name = top;
pos = (392,563);
}
);
layerId = "E703E12A-5DA7-48FA-B69F-BB282FBD8E56";
shapes = (
{
closed = 1;
nodes = (
(243,0,ls),
(336,0,o),
(392,58,o),
(392,154,cs),
(392,454,ls),
(392,527,o),
(351,573,o),
(285,573,cs),
(219,573,o),
(176,526,o),
(176,454,cs),
(176,385,o),
(216,335,o),
(272,335,cs),
(322,335,o),
(353,372,o),
(353,431,c),
(338,431,l),
(335,384,o),
(303,358,o),
(246,358,c),
(238,329,o),
(236,311,o),
(236,287,cs),
(236,173,ls),
(236,139,o),
(229,130,o),
(204,130,cs),
(170,130,l),
(216,101,l),
(160,409,l),
(4,409,l),
(89,0,l)
);
},
{
closed = 1;
nodes = (
(260,415,o),
(248,430,o),
(248,454,cs),
(248,478,o),
(260,493,o),
(279,493,cs),
(298,493,o),
(310,478,o),
(310,454,cs),
(310,430,o),
(298,415,o),
(279,415,cs)
);
}
);
width = 434;
},
{
anchors = (
{
name = bottom;
pos = (309,0);
},
{
name = top;
pos = (309,555);
}
);
layerId = "94F80E8F-7C96-497F-B870-569C37B7A2A5";
shapes = (
{
closed = 1;
nodes = (
(217,0,ls),
(276,0,o),
(309,48,o),
(309,134,cs),
(309,467,ls),
(309,527,o),
(281,562,o),
(233,562,cs),
(186,562,o),
(157,526,o),
(157,467,cs),
(157,410,o),
(185,372,o),
(227,372,cs),
(264,372,o),
(286,404,o),
(286,458,c),
(278,458,l),
(277,425,o),
(260,393,o),
(239,386,c),
(234,375,o),
(232,366,o),
(232,346,cs),
(232,138,ls),
(232,83,o),
(222,65,o),
(192,65,cs),
(145,65,l),
(171,47,l),
(93,409,l),
(16,409,l),
(107,0,l)
);
},
{
closed = 1;
nodes = (
(213,417,o),
(203,435,o),
(203,467,cs),
(203,499,o),
(213,517,o),
(231,517,cs),
(249,517,o),
(259,499,o),
(259,467,cs),
(259,435,o),
(249,417,o),
(231,417,cs)
);
}
);
width = 361;
}
);
note = "
uni0E07
";
unicode = 3591;
},
{
category = Letter;
glyphname = "ngoNgu_macronbelowcomb-thai";
kernLeft = "ngoNgu-thai";
kernRight = "ngoNgu-thai";
lastChange = "2022-09-01 04:16:00 +0000";
layers = (
{
anchors = (
{
name = bottom;
pos = (389,-100);
}
);
layerId = "90A34054-68E4-499D-AE50-276C7B026D8B";
shapes = (
{
closed = 1;
nodes = (
(389,-100,l),
(389,-77,l),
(94,-77,l),
(94,-100,l)
);
},
{
ref = "ngoNgu-thai";
}
);
width = 481;
},
{
anchors = (
{
name = bottom;
pos = (506,-219);
}
);
layerId = "EB3A5D6C-8260-43A6-9EF2-63971FC08D48";
shapes = (
{
closed = 1;
nodes = (
(506,-219,l),
(506,-77,l),
(66,-77,l),
(66,-219,l)
);
},
{
ref = "ngoNgu-thai";
}
);
width = 576;
},
{
anchors = (
{
name = bottom;
pos = (436,-147);
}
);
hints = (
{
horizontal = 1;
origin = (0,3);
target = (0,2);
type = Stem;
}
);
layerId = "9148514D-BEB8-4275-B264-8F51401A425F";
shapes = (
{
closed = 1;
nodes = (
(436,-147,l),
(436,-76,l),
(83,-76,l),
(83,-147,l)
);
},
{
alignment = -1;
ref = "ngoNgu-thai";
}
);
width = 519;
},
{
anchors = (
{
name = bottom;
pos = (255,-100);
}
);
layerId = "54E3FB14-E6D2-4DF3-BA4A-5621168F9335";
shapes = (
{
closed = 1;
nodes = (
(255,-100,l),
(255,-77,l),
(59,-77,l),
(59,-100,l)
);
},
{
ref = "ngoNgu-thai";
}
);
width = 313;
},
{
anchors = (
{
name = bottom;
pos = (392,-219);
}
);
layerId = "E703E12A-5DA7-48FA-B69F-BB282FBD8E56";
shapes = (
{
closed = 1;
nodes = (
(392,-219,l),
(392,-77,l),
(47,-77,l),
(47,-219,l)
);
},
{
ref = "ngoNgu-thai";
}
);
width = 434;
},
{
anchors = (
{
name = bottom;
pos = (309,-147);
}
);
layerId = "94F80E8F-7C96-497F-B870-569C37B7A2A5";
shapes = (
{
closed = 1;
nodes = (
(309,-147,l),
(309,-77,l),
(53,-77,l),
(53,-147,l)
);
},
{
alignment = -1;
ref = "ngoNgu-thai";
}
);
width = 361;
}
);
metricLeft = "ngoNgu-thai";
metricRight = "ngoNgu-thai";
script = thai;
subCategory = Other;
},
{
glyphname = "choChan-thai";
kernLeft = "choChan-thai";
kernRight = "choChan-thai";
lastChange = "2022-09-01 22:34:20 +0000";
layers = (
{
anchors = (
{
name = bottom;
pos = (527,0);
},
{
name = top;
pos = (527,563);
}
);
layerId = "EB3A5D6C-8260-43A6-9EF2-63971FC08D48";
shapes = (
{
closed = 1;
nodes = (
(296,0,ls),
(461,0,o),
(547,97,o),
(547,283,cs),
(547,471,o),
(439,578,o),
(251,578,cs),
(185,578,o),
(93,560,o),
(31,534,c),
(31,392,l),
(102,425,o),
(158,440,o),
(213,440,cs),
(313,440,o),
(361,389,o),
(361,283,cs),
(361,157,o),
(346,123,o),
(289,123,cs),
(261,123,l),
(295,91,l),
(295,246,ls),
(295,336,o),
(247,386,o),
(160,386,cs),
(83,386,o),
(31,343,o),
(31,280,cs),
(31,216,o),
(72,175,o),
(136,175,cs),
(203,175,o),
(231,196,o),
(249,259,c),
(223,282,l),
(223,241,o),
(187,211,o),
(139,211,c),
(132,192,o),
(129,166,o),
(129,120,cs),
(129,0,l)
);
},
{
closed = 1;
nodes = (
(128,242,o),
(113,256,o),
(113,279,cs),
(113,302,o),
(128,316,o),
(153,316,cs),
(178,316,o),
(193,302,o),
(193,279,cs),
(193,256,o),
(178,242,o),
(153,242,cs)
);
}
);
width = 591;
},
{
anchors = (
{
name = bottom;
pos = (427,0);
},
{
name = top;
pos = (427,550);
}
);
layerId = "90A34054-68E4-499D-AE50-276C7B026D8B";
shapes = (
{
closed = 1;
nodes = (
(236,0,ls),
(357,0,o),
(437,108,o),
(437,272,cs),
(437,457,o),
(352,558,o),
(195,558,cs),
(132,558,o),
(74,544,o),
(32,519,c),
(32,493,l),
(80,521,o),
(136,535,o),
(194,535,cs),
(334,535,o),
(412,441,o),
(412,272,cs),
(412,126,o),
(340,22,o),
(239,22,cs),
(206,22,l),
(216,9,l),
(216,286,ls),
(216,334,o),
(184,366,o),
(135,366,cs),
(86,366,o),
(54,334,o),
(54,286,cs),
(54,238,o),
(86,206,o),
(135,206,cs),
(179,206,o),
(205,235,o),
(205,286,c),
(200,286,l),
(200,269,o),
(199,257,o),
(194,249,c),
(192,236,o),
(191,222,o),
(191,195,cs),
(191,0,l)
);
},
{
closed = 1;
nodes = (
(100,228,o),
(78,251,o),
(78,286,cs),
(78,321,o),
(100,344,o),
(135,344,cs),
(170,344,o),
(192,321,o),
(192,286,cs),
(192,251,o),
(170,228,o),
(135,228,cs)
);
}
);
width = 500;
},
{
anchors = (
{
name = bottom;
pos = (465,0);
},
{
name = top;
pos = (465,555);
}
);
hints = (
{
origin = (0,16);
target = (0,3);
type = Stem;
},
{
horizontal = 1;
origin = (0,42);
target = (0,19);
type = Stem;
},
{
horizontal = 1;
origin = (0,6);
target = (0,13);
type = Stem;
},
{
origin = (0,42);
target = (0,22);
type = Stem;
}
);
layerId = "9148514D-BEB8-4275-B264-8F51401A425F";
shapes = (
{
closed = 1;
nodes = (
(260,0,ls),
(399,0,o),
(481,103,o),
(481,277,cs),
(481,462,o),
(384,566,o),
(212,566,cs),
(149,566,o),
(83,551,o),
(32,525,c),
(32,452,l),
(92,483,o),
(147,498,o),
(202,498,cs),
(325,498,o),
(391,420,o),
(391,276,cs),
(391,141,o),
(343,63,o),
(259,63,cs),
(228,63,l),
(248,42,l),
(248,278,ls),
(248,338,o),
(209,374,o),
(145,374,cs),
(85,374,o),
(45,338,o),
(45,284,cs),
(45,229,o),
(82,193,o),
(138,193,cs),
(188,193,o),
(222,226,o),
(222,275,c),
(209,284,l),
(207,250,o),
(196,232,o),
(172,224,c),
(168,206,o),
(166,191,o),
(166,165,cs),
(166,0,l)
);
},
{
closed = 1;
nodes = (
(114,240,o),
(98,256,o),
(98,284,cs),
(98,310,o),
(114,326,o),
(142,326,cs),
(170,326,o),
(186,310,o),
(186,283,cs),
(186,256,o),
(170,240,o),
(142,240,cs)
);
}
);
width = 537;
},
{
anchors = (
{
name = bottom;
pos = (277,0);
},
{
name = top;
pos = (277,550);
}
);
layerId = "54E3FB14-E6D2-4DF3-BA4A-5621168F9335";
shapes = (
{
closed = 1;
nodes = (
(154,0,ls),
(234,0,o),
(285,106,o),
(285,272,cs),
(285,475,o),
(239,558,o),
(127,558,cs),
(88,558,o),
(50,548,o),
(20,531,c),
(20,503,l),
(53,524,o),
(89,535,o),
(125,535,cs),
(222,535,o),
(260,460,o),
(260,272,cs),
(260,125,o),
(217,22,o),
(155,22,cs),
(134,22,l),
(142,9,l),
(142,286,ls),
(142,337,o),
(122,366,o),
(87,366,cs),
(52,366,o),
(32,337,o),
(32,286,cs),
(32,237,o),
(52,206,o),
(84,206,cs),
(113,206,o),
(130,234,o),
(130,286,c),
(126,286,l),
(126,271,o),
(124,257,o),
(121,249,c),
(118,234,o),
(117,217,o),
(117,195,cs),
(117,0,l)
);
},
{
closed = 1;
nodes = (
(66,228,o),
(55,249,o),
(55,286,cs),
(55,323,o),
(66,344,o),
(86,344,cs),
(106,344,o),
(117,323,o),
(117,286,cs),
(117,249,o),
(106,228,o),
(86,228,cs)
);
}
);
width = 324;
},
{
anchors = (
{
name = bottom;
pos = (404,0);
},
{
name = top;
pos = (404,563);
}
);
layerId = "E703E12A-5DA7-48FA-B69F-BB282FBD8E56";
shapes = (
{
closed = 1;
nodes = (
(228,0,ls),
(357,0,o),
(422,95,o),
(422,283,cs),
(422,471,o),
(339,578,o),
(195,578,cs),
(131,578,o),
(63,562,o),
(23,538,c),
(23,398,l),
(72,427,o),
(113,440,o),
(153,440,cs),
(230,440,o),
(266,390,o),
(266,283,cs),
(266,149,o),
(257,123,o),
(212,123,cs),
(202,123,l),
(229,91,l),
(229,259,ls),
(229,345,o),
(195,386,o),
(123,386,cs),
(63,386,o),
(21,343,o),
(21,280,cs),
(21,216,o),
(52,175,o),
(102,175,cs),
(154,175,o),
(175,195,o),
(192,259,c),
(170,282,l),
(170,240,o),
(136,201,o),
(99,201,c),
(93,183,o),
(91,163,o),
(91,120,cs),
(91,0,l)
);
},
{
closed = 1;
nodes = (
(99,242,o),
(87,256,o),
(87,279,cs),
(87,302,o),
(99,316,o),
(117,316,cs),
(135,316,o),
(147,302,o),
(147,279,cs),
(147,256,o),
(135,242,o),
(117,242,cs)
);
}
);
width = 443;
},
{
anchors = (
{
name = bottom;
pos = (327,0);
},
{
name = top;
pos = (327,555);
}
);
layerId = "94F80E8F-7C96-497F-B870-569C37B7A2A5";
shapes = (
{
closed = 1;
nodes = (
(183,0,ls),
(283,0,o),
(339,100,o),
(339,276,cs),
(339,472,o),
(279,566,o),
(154,566,cs),
(110,566,o),
(58,553,o),
(21,532,c),
(21,460,l),
(64,487,o),
(102,499,o),
(140,499,cs),
(225,499,o),
(262,432,o),
(262,276,cs),
(262,137,o),
(234,62,o),
(181,62,cs),
(161,62,l),
(179,41,l),
(179,270,ls),
(179,336,o),
(151,374,o),
(102,374,cs),
(57,374,o),
(28,339,o),
(28,284,cs),
(28,229,o),
(52,194,o),
(91,194,cs),
(129,194,o),
(148,218,o),
(154,275,c),
(147,278,l),
(143,241,o),
(130,217,o),
(110,209,c),
(108,199,o),
(107,188,o),
(107,165,cs),
(107,0,l)
);
},
{
closed = 1;
nodes = (
(80,233,o),
(70,251,o),
(70,283,cs),
(70,315,o),
(80,333,o),
(98,333,cs),
(116,333,o),
(126,315,o),
(126,283,cs),
(126,251,o),
(116,233,o),
(98,233,cs)
);
}
);
width = 371;
}
);
unicode = 3592;
},
{
category = Letter;
glyphname = "choChan_macronbelowcomb-thai";
kernLeft = "choChan-thai";
kernRight = "choChan-thai";
lastChange = "2022-09-01 04:16:00 +0000";
layers = (
{
anchors = (
{
name = bottom;
pos = (437,-100);
}
);
layerId = "90A34054-68E4-499D-AE50-276C7B026D8B";
shapes = (
{
closed = 1;
nodes = (
(437,-100,l),
(437,-77,l),
(90,-77,l),
(90,-100,l)
);
},
{
ref = "choChan-thai";
}
);
width = 500;
},
{
anchors = (
{
name = bottom;
pos = (520,-219);
}
);
layerId = "EB3A5D6C-8260-43A6-9EF2-63971FC08D48";
shapes = (
{
closed = 1;
nodes = (
(520,-219,l),
(520,-77,l),
(46,-77,l),
(46,-219,l)
);
},
{
ref = "choChan-thai";
}
);
width = 591;
},
{
anchors = (
{
name = bottom;
pos = (471,-147);
}
);
hints = (
{
horizontal = 1;
origin = (0,3);
target = (0,2);
type = Stem;
}
);
layerId = "9148514D-BEB8-4275-B264-8F51401A425F";
shapes = (
{
closed = 1;
nodes = (
(471,-147,l),
(471,-76,l),
(72,-76,l),
(72,-147,l)
);
},
{
alignment = -1;
ref = "choChan-thai";
}
);
width = 537;
},
{
anchors = (
{
name = bottom;
pos = (284,-100);
}
);
layerId = "54E3FB14-E6D2-4DF3-BA4A-5621168F9335";
shapes = (
{
closed = 1;
nodes = (
(284,-100,l),
(284,-77,l),
(55,-77,l),
(55,-100,l)
);
},
{
ref = "choChan-thai";
}
);
width = 324;
},
{
anchors = (
{
name = bottom;
pos = (398,-219);
}
);
layerId = "E703E12A-5DA7-48FA-B69F-BB282FBD8E56";
shapes = (
{
closed = 1;
nodes = (
(398,-219,l),
(398,-77,l),
(30,-77,l),
(30,-219,l)
);
},
{
ref = "choChan-thai";
}
);
width = 443;
},
{
anchors = (
{
name = bottom;
pos = (333,-147);
}
);
layerId = "94F80E8F-7C96-497F-B870-569C37B7A2A5";
shapes = (
{
closed = 1;
nodes = (
(333,-147,l),
(333,-77,l),
(45,-77,l),
(45,-147,l)
);
},
{
alignment = -1;
ref = "choChan-thai";
}
);
width = 371;
}
);
metricLeft = "choChan-thai";
metricRight = "choChan-thai";
script = thai;
subCategory = Other;
},
{
glyphname = "choChing-thai";
kernLeft = "boBaimai-thai";
lastChange = "2022-09-01 04:16:00 +0000";
layers = (
{
anchors = (
{
name = bottom;
pos = (594,0);
},
{
name = top;
pos = (584,563);
}
);
layerId = "EB3A5D6C-8260-43A6-9EF2-63971FC08D48";
shapes = (
{
closed = 1;
nodes = (
(301,0,l),
(322,62,o),
(355,93,o),
(465,158,c),
(483,174,l),
(574,222,o),
(594,245,o),
(594,301,cs),
(594,379,ls),
(594,504,o),
(486,578,o),
(304,578,cs),
(216,578,o),
(115,560,o),
(49,534,c),
(49,392,l),
(137,426,o),
(202,440,o),
(267,440,cs),
(367,440,o),
(408,415,o),
(408,355,cs),
(408,282,ls),
(408,245,o),
(404,236,o),
(377,221,cs),
(343,202,o),
(324,184,o),
(309,158,c),
(305,158,l),
(308,189,o),
(309,213,o),
(309,246,cs),
(309,260,ls),
(309,334,o),
(258,379,o),
(174,379,cs),
(90,379,o),
(36,333,o),
(36,260,cs),
(36,190,o),
(87,141,o),
(159,141,cs),
(223,141,o),
(262,177,o),
(262,237,c),
(244,237,l),
(241,190,o),
(202,164,o),
(135,164,c),
(125,132,o),
(123,117,o),
(123,93,cs),
(123,0,l)
);
},
{
closed = 1;
nodes = (
(141,221,o),
(125,235,o),
(125,260,cs),
(125,285,o),
(141,299,o),
(167,299,cs),
(193,299,o),
(209,285,o),
(209,260,cs),
(209,235,o),
(193,221,o),
(167,221,cs)
);
},
{
closed = 1;
nodes = (
(577,-10,o),
(630,38,o),
(630,108,cs),
(630,178,o),
(577,226,o),
(500,226,cs),
(423,226,o),
(370,178,o),
(370,108,cs),
(370,38,o),
(423,-10,o),
(500,-10,cs)
);
},
{
closed = 1;
nodes = (
(474,70,o),
(458,84,o),
(458,109,cs),
(458,134,o),
(474,148,o),
(500,148,cs),
(526,148,o),
(542,134,o),
(542,109,cs),
(542,84,o),
(526,70,o),
(500,70,cs)
);
}
);
userData = {
com.schriftgestaltung.Glyphs.glyph.rightMetricsKey = "khoKhwai-thai";
};
width = 673;
},
{
anchors = (
{
name = bottom;
pos = (488,0);
},
{
name = top;
pos = (478,550);
}
);
layerId = "90A34054-68E4-499D-AE50-276C7B026D8B";
shapes = (
{
closed = 1;
nodes = (
(199,0,l),
(242,41,o),
(300,77,o),
(401,126,c),
(412,141,l),
(475,161,o),
(488,178,o),
(488,242,cs),
(488,372,ls),
(488,495,o),
(417,558,o),
(279,558,cs),
(200,558,o),
(119,536,o),
(60,497,c),
(60,469,l),
(125,512,o),
(201,535,o),
(277,535,cs),
(401,535,o),
(463,479,o),
(463,367,cs),
(463,242,ls),
(463,185,o),
(450,169,o),
(378,138,cs),
(314,111,o),
(235,63,o),
(205,34,c),
(202,34,l),
(202,87,o),
(202,133,o),
(202,193,cs),
(202,273,ls),
(202,315,o),
(176,353,o),
(121,353,cs),
(72,353,o),
(40,321,o),
(40,273,cs),
(40,225,o),
(72,193,o),
(121,193,cs),
(172,193,o),
(190,231,o),
(190,273,c),
(186,273,l),
(186,256,o),
(184,244,o),
(180,236,c),
(177,218,o),
(177,200,o),
(177,182,cs),
(177,0,l)
);
},
{
closed = 1;
nodes = (
(87,215,o),
(64,239,o),
(64,273,cs),
(64,307,o),
(87,331,o),
(121,331,cs),
(155,331,o),
(178,307,o),
(178,273,cs),
(178,239,o),
(155,215,o),
(121,215,cs)
);
},
{
closed = 1;
nodes = (
(497,-5,o),
(531,28,o),
(531,76,cs),
(531,123,o),
(498,155,o),
(450,155,cs),
(399,155,o),
(363,123,o),
(363,76,cs),
(363,28,o),
(397,-5,o),
(447,-5,cs)
);
},
{
closed = 1;
nodes = (
(412,17,o),
(387,42,o),
(387,77,cs),
(387,112,o),
(412,136,o),
(447,136,cs),
(482,136,o),
(507,112,o),
(507,77,cs),
(507,42,o),
(482,17,o),
(447,17,cs)
);
}
);
width = 590;
},
{
anchors = (
{
name = bottom;
pos = (531,0);
},
{
name = top;
pos = (521,555);
}
);
hints = (
{
horizontal = 1;
origin = (0,53);
target = up;
type = BottomGhost;
},
{
horizontal = 1;
origin = (2,11);
target = (3,11);
type = Stem;
},
{
origin = (0,53);
target = (0,32);
type = Stem;
},
{
origin = (0,22);
target = (0,7);
type = Stem;
},
{
horizontal = 1;
origin = (0,11);
target = (0,18);
type = Stem;
}
);
layerId = "9148514D-BEB8-4275-B264-8F51401A425F";
shapes = (
{
closed = 1;
nodes = (
(240,0,l),
(276,49,o),
(323,84,o),
(427,139,c),
(441,154,l),
(516,186,o),
(531,205,o),
(531,266,cs),
(531,375,ls),
(531,498,o),
(445,566,o),
(289,566,cs),
(204,566,o),
(116,546,o),
(56,512,c),
(56,438,l),
(131,478,o),
(202,497,o),
(273,497,cs),
(387,497,o),
(441,453,o),
(441,362,cs),
(441,258,ls),
(441,209,o),
(433,197,o),
(378,172,cs),
(329,150,o),
(270,110,o),
(247,84,c),
(244,84,l),
(245,112,o),
(245,126,o),
(245,224,cs),
(245,278,ls),
(245,336,o),
(205,373,o),
(142,373,cs),
(79,373,o),
(38,336,o),
(38,278,cs),
(38,221,o),
(78,182,o),
(136,182,cs),
(188,182,o),
(219,214,o),
(219,268,c),
(209,268,l),
(208,240,o),
(193,222,o),
(165,217,c),
(160,195,o),
(158,178,o),
(158,156,cs),
(158,0,l)
);
},
{
closed = 1;
nodes = (
(112,234,o),
(96,250,o),
(96,278,cs),
(96,304,o),
(112,320,o),
(140,320,cs),
(168,320,o),
(184,304,o),
(184,277,cs),
(184,250,o),
(168,234,o),
(140,234,cs)
);
},
{
closed = 1;
nodes = (
(531,-7,o),
(571,31,o),
(571,89,cs),
(571,147,o),
(532,184,o),
(470,184,cs),
(407,184,o),
(367,147,o),
(367,89,cs),
(367,31,o),
(406,-7,o),
(468,-7,cs)
);
},
{
closed = 1;
nodes = (
(441,46,o),
(425,62,o),
(425,89,cs),
(425,116,o),
(441,132,o),
(469,132,cs),
(497,132,o),
(513,116,o),
(513,89,cs),
(513,62,o),
(497,46,o),
(469,46,cs)
);
}
);
width = 624;
},
{
anchors = (
{
name = bottom;
pos = (318,0);
},
{
name = top;
pos = (312,550);
}
);
layerId = "54E3FB14-E6D2-4DF3-BA4A-5621168F9335";
shapes = (
{
closed = 1;
nodes = (
(133,0,l),
(159,38,o),
(193,70,o),
(260,121,c),
(267,136,l),
(309,156,o),
(318,174,o),
(318,237,cs),
(318,402,ls),
(318,506,o),
(272,558,o),
(180,558,cs),
(125,558,o),
(75,541,o),
(38,510,c),
(38,479,l),
(82,517,o),
(128,535,o),
(178,535,cs),
(255,535,o),
(293,490,o),
(293,397,cs),
(293,237,ls),
(293,178,o),
(285,162,o),
(240,132,cs),
(203,107,o),
(158,66,o),
(137,38,c),
(135,38,l),
(135,96,o),
(135,154,o),
(135,214,cs),
(135,286,ls),
(135,337,o),
(115,366,o),
(80,366,cs),
(45,366,o),
(25,337,o),
(25,286,cs),
(25,235,o),
(46,206,o),
(77,206,cs),
(107,206,o),
(122,235,o),
(122,286,c),
(119,286,l),
(119,271,o),
(117,257,o),
(114,249,c),
(111,231,o),
(110,213,o),
(110,195,cs),
(110,0,l)
);
},
{
closed = 1;
nodes = (
(59,228,o),
(48,249,o),
(48,286,cs),
(48,323,o),
(59,344,o),
(79,344,cs),
(99,344,o),
(110,323,o),
(110,286,cs),
(110,249,o),
(99,228,o),
(79,228,cs)
);
},
{
closed = 1;
nodes = (
(323,-5,o),
(343,24,o),
(343,75,cs),
(343,126,o),
(324,155,o),
(291,155,cs),
(258,155,o),
(235,126,o),
(235,75,cs),
(235,24,o),
(254,-5,o),
(289,-5,cs)
);
},
{
closed = 1;
nodes = (
(269,17,o),
(258,38,o),
(258,75,cs),
(258,112,o),
(269,133,o),
(289,133,cs),
(309,133,o),
(320,112,o),
(320,75,cs),
(320,38,o),
(309,17,o),
(289,17,cs)
);
}
);
width = 382;
},
{
anchors = (
{
name = bottom;
pos = (457,0);
},
{
name = top;
pos = (451,563);
}
);
layerId = "E703E12A-5DA7-48FA-B69F-BB282FBD8E56";
shapes = (
{
closed = 1;
nodes = (
(237,0,l),
(250,64,o),
(274,95,o),
(356,158,c),
(370,174,l),
(441,222,o),
(457,246,o),
(457,301,cs),
(457,379,ls),
(457,503,o),
(372,578,o),
(231,578,cs),
(162,578,o),
(83,561,o),
(36,536,c),
(36,392,l),
(97,425,o),
(150,440,o),
(203,440,cs),
(272,440,o),
(301,415,o),
(301,355,cs),
(301,282,ls),
(301,249,o),
(298,241,o),
(278,217,cs),
(259,194,o),
(247,175,o),
(243,158,c),
(240,158,l),
(242,197,o),
(243,214,o),
(243,246,cs),
(243,268,ls),
(243,339,o),
(205,379,o),
(137,379,cs),
(70,379,o),
(27,332,o),
(27,260,cs),
(27,191,o),
(67,141,o),
(124,141,cs),
(173,141,o),
(204,178,o),
(204,237,c),
(189,237,l),
(187,191,o),
(153,164,o),
(96,164,c),
(89,132,o),
(87,117,o),
(87,93,cs),
(87,0,l)
);
},
{
closed = 1;
nodes = (
(111,221,o),
(99,236,o),
(99,260,cs),
(99,284,o),
(111,299,o),
(130,299,cs),
(149,299,o),
(161,284,o),
(161,260,cs),
(161,236,o),
(149,221,o),
(130,221,cs)
);
},
{
closed = 1;
nodes = (
(441,-10,o),
(483,38,o),
(483,108,cs),
(483,178,o),
(441,226,o),
(381,226,cs),
(321,226,o),
(279,178,o),
(279,108,cs),
(279,38,o),
(321,-10,o),
(381,-10,cs)
);
},
{
closed = 1;
nodes = (
(362,68,o),
(350,83,o),
(350,107,cs),
(350,131,o),
(362,146,o),
(381,146,cs),
(400,146,o),
(412,131,o),
(412,107,cs),
(412,83,o),
(400,68,o),
(381,68,cs)
);
}
);
userData = {
com.schriftgestaltung.Glyphs.glyph.rightMetricsKey = "khoKhwai-thai";
};
width = 508;
},
{
anchors = (
{
name = bottom;
pos = (373,0);
},
{
name = top;
pos = (367,555);
}
);
layerId = "94F80E8F-7C96-497F-B870-569C37B7A2A5";
shapes = (
{
closed = 1;
nodes = (
(174,0,l),
(196,48,o),
(225,80,o),
(298,136,c),
(308,151,l),
(360,182,o),
(373,203,o),
(373,262,cs),
(373,393,ls),
(373,505,o),
(312,566,o),
(200,566,cs),
(140,566,o),
(79,548,o),
(37,519,c),
(37,446,l),
(95,483,o),
(139,499,o),
(187,499,cs),
(262,499,o),
(296,462,o),
(296,380,cs),
(296,255,ls),
(296,205,o),
(290,191,o),
(257,167,cs),
(225,144,o),
(194,112,o),
(179,85,c),
(176,85,l),
(178,122,o),
(178,154,o),
(178,227,cs),
(178,276,ls),
(178,335,o),
(149,371,o),
(102,371,cs),
(55,371,o),
(26,335,o),
(26,276,cs),
(26,218,o),
(54,180,o),
(96,180,cs),
(133,180,o),
(154,212,o),
(154,267,c),
(147,267,l),
(146,235,o),
(125,198,o),
(107,196,c),
(102,185,o),
(101,175,o),
(101,155,cs),
(101,0,l)
);
},
{
closed = 1;
nodes = (
(81,225,o),
(71,243,o),
(71,275,cs),
(71,307,o),
(81,325,o),
(99,325,cs),
(117,325,o),
(127,307,o),
(127,275,cs),
(127,243,o),
(117,225,o),
(99,225,cs)
);
},
{
closed = 1;
nodes = (
(370,-7,o),
(398,30,o),
(398,88,cs),
(398,146,o),
(370,183,o),
(326,183,cs),
(282,183,o),
(252,145,o),
(252,88,cs),
(252,30,o),
(280,-7,o),
(325,-7,cs)
);
},
{
closed = 1;
nodes = (
(307,38,o),
(297,56,o),
(297,88,cs),
(297,120,o),
(307,138,o),
(325,138,cs),
(343,138,o),
(353,120,o),
(353,88,cs),
(353,56,o),
(343,38,o),
(325,38,cs)
);
}
);
width = 432;
}
);
unicode = 3593;
},
{
glyphname = "choChang-thai";
kernLeft = "khoKhai-thai";
lastChange = "2022-09-01 04:16:00 +0000";
layers = (
{
anchors = (
{
name = bottom;
pos = (554,0);
},
{
name = top;
pos = (574,563);
}
);
layerId = "EB3A5D6C-8260-43A6-9EF2-63971FC08D48";
shapes = (
{
closed = 1;
nodes = (
(424,0,ls),
(508,0,o),
(554,46,o),
(554,130,cs),
(554,271,ls),
(554,324,o),
(528,356,o),
(468,373,c),
(468,377,l),
(541,394,o),
(574,445,o),
(574,537,cs),
(574,563,l),
(402,563,l),
(402,537,ls),
(402,469,o),
(382,438,o),
(335,430,c),
(335,332,l),
(359,328,o),
(372,309,o),
(372,279,cs),
(372,165,ls),
(372,146,o),
(361,135,o),
(342,135,cs),
(275,135,l),
(275,242,ls),
(275,301,o),
(278,331,o),
(288,363,cs),
(299,398,o),
(303,423,o),
(303,451,cs),
(303,526,o),
(250,571,o),
(163,571,cs),
(74,571,o),
(19,527,o),
(19,455,cs),
(19,389,o),
(63,348,o),
(134,348,cs),
(186,348,o),
(223,381,o),
(223,426,c),
(172,399,l),
(188,381,o),
(184,363,o),
(159,346,cs),
(106,311,o),
(93,287,o),
(93,225,cs),
(93,128,l),
(53,103,l),
(53,0,l)
);
},
{
closed = 1;
nodes = (
(124,415,o),
(108,429,o),
(108,454,cs),
(108,479,o),
(124,493,o),
(150,493,cs),
(176,493,o),
(192,479,o),
(192,454,cs),
(192,429,o),
(176,415,o),
(150,415,cs)
);
}
);
userData = {
com.schriftgestaltung.Glyphs.glyph.leftMetricsKey = "khoKhai-thai";
};
width = 613;
},
{
anchors = (
{
name = bottom;
pos = (424,0);
},
{
name = top;
pos = (434,550);
}
);
layerId = "90A34054-68E4-499D-AE50-276C7B026D8B";
shapes = (
{
closed = 1;
nodes = (
(343,0,ls),
(398,0,o),
(424,26,o),
(424,82,cs),
(424,274,ls),
(424,334,o),
(398,369,o),
(344,381,c),
(344,383,l),
(404,400,o),
(434,449,o),
(434,529,cs),
(434,550,l),
(409,550,l),
(409,529,ls),
(409,440,o),
(370,395,o),
(291,392,c),
(291,372,l),
(364,370,o),
(399,339,o),
(399,273,cs),
(399,85,ls),
(399,41,o),
(381,23,o),
(338,23,cs),
(144,23,l),
(144,212,ls),
(144,266,o),
(152,298,o),
(173,331,cs),
(209,387,o),
(220,419,o),
(220,465,cs),
(220,520,o),
(188,554,o),
(137,554,cs),
(87,554,o),
(54,522,o),
(54,474,cs),
(54,427,o),
(86,395,o),
(135,395,cs),
(179,395,o),
(206,425,o),
(206,474,c),
(197,442,l),
(199,421,o),
(186,391,o),
(155,346,cs),
(127,305,o),
(119,275,o),
(119,212,cs),
(119,23,l),
(67,18,l),
(67,0,l)
);
},
{
closed = 1;
nodes = (
(101,416,o),
(78,439,o),
(78,474,cs),
(78,509,o),
(101,532,o),
(136,532,cs),
(171,532,o),
(194,509,o),
(194,474,cs),
(194,439,o),
(171,416,o),
(136,416,cs)
);
}
);
width = 520;
},
{
anchors = (
{
name = bottom;
pos = (474,0);
},
{
name = top;
pos = (489,555);
}
);
hints = (
{
origin = (0,53);
target = (0,26);
type = Stem;
},
{
origin = (0,22);
target = (0,3);
type = Stem;
},
{
horizontal = 1;
origin = (0,55);
target = (0,26);
type = Stem;
},
{
horizontal = 1;
origin = (0,36);
target = (1,5);
type = Stem;
},
{
horizontal = 1;
origin = (0,13);
target = down;
type = TopGhost;
}
);
layerId = "9148514D-BEB8-4275-B264-8F51401A425F";
shapes = (
{
closed = 1;
nodes = (
(374,0,ls),
(442,0,o),
(474,36,o),
(474,111,cs),
(474,275,ls),
(474,331,o),
(447,364,o),
(392,378,c),
(392,381,l),
(457,398,o),
(489,447,o),
(489,532,cs),
(489,555,l),
(404,555,l),
(404,532,ls),
(404,452,o),
(371,412,o),
(301,407,c),
(301,356,l),
(359,350,o),
(384,329,o),
(384,285,cs),
(384,117,ls),
(384,83,o),
(369,68,o),
(336,68,cs),
(196,68,l),
(196,224,ls),
(196,280,o),
(203,313,o),
(227,361,cs),
(247,401,o),
(254,427,o),
(254,456,cs),
(254,524,o),
(215,561,o),
(145,561,cs),
(80,561,o),
(40,524,o),
(40,466,cs),
(40,411,o),
(77,376,o),
(135,376,cs),
(183,376,o),
(212,408,o),
(212,455,c),
(187,425,l),
(187,408,o),
(174,382,o),
(147,346,cs),
(113,300,o),
(106,281,o),
(106,237,cs),
(106,65,l),
(59,52,l),
(59,0,l)
);
},
{
closed = 1;
nodes = (
(114,422,o),
(98,438,o),
(98,465,cs),
(98,492,o),
(114,508,o),
(142,508,cs),
(170,508,o),
(186,492,o),
(186,465,cs),
(186,438,o),
(170,422,o),
(142,422,cs)
);
}
);
width = 556;
},
{
anchors = (
{
name = bottom;
pos = (279,0);
},
{
name = top;
pos = (286,550);
}
);
layerId = "54E3FB14-E6D2-4DF3-BA4A-5621168F9335";
shapes = (
{
closed = 1;
nodes = (
(215,0,ls),
(260,0,o),
(279,22,o),
(279,72,cs),
(279,274,ls),
(279,334,o),
(262,369,o),
(227,381,c),
(227,383,l),
(266,401,o),
(286,449,o),
(286,529,cs),
(286,550,l),
(261,550,l),
(261,529,ls),
(261,441,o),
(237,395,o),
(188,392,c),
(188,372,l),
(233,370,o),
(254,338,o),
(254,273,cs),
(254,75,ls),
(254,35,o),
(244,23,o),
(211,23,cs),
(100,23,l),
(100,212,ls),
(100,269,o),
(104,297,o),
(118,331,cs),
(139,384,o),
(146,416,o),
(146,465,cs),
(146,524,o),
(127,554,o),
(89,554,cs),
(53,554,o),
(33,525,o),
(33,474,cs),
(33,424,o),
(53,395,o),
(87,395,cs),
(115,395,o),
(133,425,o),
(133,474,c),
(129,474,l),
(131,434,o),
(123,400,o),
(99,346,cs),
(80,304,o),
(75,277,o),
(75,212,cs),
(75,23,l),
(42,18,l),
(42,0,l)
);
},
{
closed = 1;
nodes = (
(67,416,o),
(56,437,o),
(56,474,cs),
(56,511,o),
(67,532,o),
(87,532,cs),
(107,532,o),
(118,511,o),
(118,474,cs),
(118,437,o),
(107,416,o),
(87,416,cs)
);
}
);
width = 338;
},
{
anchors = (
{
name = bottom;
pos = (430,0);
},
{
name = top;
pos = (445,563);
}
);
layerId = "E703E12A-5DA7-48FA-B69F-BB282FBD8E56";
shapes = (
{
closed = 1;
nodes = (
(317,0,ls),
(392,0,o),
(430,44,o),
(430,130,cs),
(430,271,ls),
(430,324,o),
(410,356,o),
(364,373,c),
(364,377,l),
(420,394,o),
(445,444,o),
(445,537,cs),
(445,563,l),
(302,563,l),
(302,537,ls),
(302,470,o),
(289,438,o),
(257,430,c),
(257,332,l),
(269,328,o),
(277,306,o),
(277,279,cs),
(277,165,ls),
(277,145,o),
(268,135,o),
(248,135,cs),
(220,135,l),
(220,242,ls),
(220,306,o),
(221,329,o),
(227,363,cs),
(233,398,o),
(236,427,o),
(236,451,cs),
(236,525,o),
(194,571,o),
(126,571,cs),
(55,571,o),
(11,527,o),
(11,455,cs),
(11,389,o),
(45,348,o),
(101,348,cs),
(141,348,o),
(167,379,o),
(167,426,c),
(127,399,l),
(142,379,o),
(140,362,o),
(121,346,cs),
(79,311,o),
(68,287,o),
(68,225,cs),
(68,128,l),
(39,103,l),
(39,0,l)
);
},
{
closed = 1;
nodes = (
(95,415,o),
(83,430,o),
(83,454,cs),
(83,478,o),
(95,493,o),
(114,493,cs),
(133,493,o),
(145,478,o),
(145,454,cs),
(145,430,o),
(133,415,o),
(114,415,cs)
);
}
);
userData = {
com.schriftgestaltung.Glyphs.glyph.leftMetricsKey = "khoKhai-thai";
};
width = 469;
},
{
anchors = (
{
name = bottom;
pos = (337,0);
},
{
name = top;
pos = (348,555);
}
);
layerId = "94F80E8F-7C96-497F-B870-569C37B7A2A5";
shapes = (
{
closed = 1;
nodes = (
(258,0,ls),
(311,0,o),
(337,31,o),
(337,95,cs),
(337,273,ls),
(337,330,o),
(318,364,o),
(278,378,c),
(278,381,l),
(325,398,o),
(348,449,o),
(348,532,cs),
(348,555,l),
(274,555,l),
(274,532,ls),
(274,452,o),
(254,412,o),
(212,407,c),
(212,356,l),
(244,354,o),
(260,327,o),
(260,275,cs),
(260,108,ls),
(260,77,o),
(251,65,o),
(227,65,cs),
(147,65,l),
(147,225,ls),
(147,284,o),
(150,312,o),
(161,345,cs),
(176,392,o),
(181,419,o),
(181,460,cs),
(181,524,o),
(153,562,o),
(104,562,cs),
(54,562,o),
(24,527,o),
(24,468,cs),
(24,411,o),
(50,377,o),
(93,377,cs),
(126,377,o),
(147,408,o),
(147,456,c),
(137,456,l),
(138,414,o),
(132,396,o),
(102,347,cs),
(76,304,o),
(70,281,o),
(70,218,cs),
(70,64,l),
(40,51,l),
(40,0,l)
);
},
{
closed = 1;
nodes = (
(79,418,o),
(69,436,o),
(69,468,cs),
(69,500,o),
(79,518,o),
(97,518,cs),
(115,518,o),
(125,500,o),
(125,468,cs),
(125,436,o),
(115,418,o),
(97,418,cs)
);
}
);
width = 389;
}
);
metricLeft = "khoKhai-thai";
unicode = 3594;
},
{
glyphname = "soSo-thai";
kernLeft = "khoKhai-thai";
lastChange = "2022-09-01 04:16:00 +0000";
layers = (
{
anchors = (
{
name = bottom;
pos = (570,0);
},
{
name = top;
pos = (590,563);
}
);
layerId = "EB3A5D6C-8260-43A6-9EF2-63971FC08D48";
shapes = (
{
closed = 1;
nodes = (
(440,0,ls),
(524,0,o),
(570,46,o),
(570,130,cs),
(570,256,ls),
(570,315,o),
(540,356,o),
(484,373,c),
(484,377,l),
(557,394,o),
(590,445,o),
(590,537,cs),
(590,563,l),
(418,563,l),
(418,537,ls),
(418,472,o),
(400,438,o),
(361,430,c),
(361,332,l),
(381,328,o),
(388,315,o),
(388,279,cs),
(388,165,ls),
(388,146,o),
(377,135,o),
(358,135,cs),
(283,135,l),
(283,218,ls),
(283,262,o),
(288,290,o),
(305,332,cs),
(324,379,o),
(332,421,o),
(332,470,cs),
(332,563,l),
(248,563,l),
(242,511,o),
(229,470,o),
(212,443,c),
(214,427,l),
(225,440,o),
(232,458,o),
(232,475,cs),
(232,533,o),
(187,573,o),
(122,573,cs),
(49,573,o),
(4,532,o),
(4,465,cs),
(4,400,o),
(52,357,o),
(123,357,cs),
(152,357,o),
(182,370,o),
(202,391,c),
(205,389,l),
(198,377,o),
(188,369,o),
(160,347,cs),
(120,316,o),
(101,272,o),
(101,211,cs),
(101,128,l),
(51,103,l),
(51,0,l)
);
},
{
closed = 1;
nodes = (
(98,426,o),
(82,440,o),
(82,465,cs),
(82,490,o),
(98,504,o),
(124,504,cs),
(150,504,o),
(166,490,o),
(166,465,cs),
(166,440,o),
(150,426,o),
(124,426,cs)
);
}
);
userData = {
com.schriftgestaltung.Glyphs.glyph.rightMetricsKey = "choChang-thai";
};
width = 629;
},
{
anchors = (
{
name = bottom;
pos = (437,0);
},
{
name = top;
pos = (447,550);
}
);
layerId = "90A34054-68E4-499D-AE50-276C7B026D8B";
shapes = (
{
closed = 1;
nodes = (
(356,0,ls),
(411,0,o),
(437,26,o),
(437,82,cs),
(437,274,ls),
(437,334,o),
(411,369,o),
(357,381,c),
(357,383,l),
(417,400,o),
(447,449,o),
(447,529,cs),
(447,550,l),
(422,550,l),
(422,529,ls),
(422,444,o),
(386,395,o),
(322,392,c),
(322,372,l),
(382,370,o),
(412,337,o),
(412,273,cs),
(412,85,ls),
(412,41,o),
(394,23,o),
(351,23,cs),
(157,23,l),
(157,202,ls),
(157,272,o),
(164,289,o),
(215,349,cs),
(255,396,o),
(267,435,o),
(267,514,cs),
(267,550,l),
(248,550,l),
(238,492,o),
(192,430,o),
(157,427,c),
(157,417,l),
(176,431,o),
(188,454,o),
(188,478,cs),
(188,523,o),
(155,554,o),
(108,554,cs),
(59,554,o),
(27,522,o),
(27,474,cs),
(27,427,o),
(61,396,o),
(114,396,cs),
(172,396,o),
(226,436,o),
(246,493,c),
(248,493,l),
(244,431,o),
(235,408,o),
(198,364,cs),
(141,297,o),
(132,275,o),
(132,202,cs),
(132,23,l),
(80,18,l),
(80,0,l)
);
},
{
closed = 1;
nodes = (
(73,416,o),
(51,439,o),
(51,474,cs),
(51,509,o),
(73,532,o),
(108,532,cs),
(143,532,o),
(165,509,o),
(165,474,cs),
(165,439,o),
(143,416,o),
(108,416,cs)
);
}
);
width = 533;
},
{
anchors = (
{
name = bottom;
pos = (492,0);
},
{
name = top;
pos = (507,555);
}
);
hints = (
{
origin = (0,62);
target = (0,26);
type = Stem;
},
{
origin = (0,22);
target = (0,3);
type = Stem;
},
{
horizontal = 1;
origin = (0,64);
target = (0,26);
type = Stem;
},
{
horizontal = 1;
origin = (0,45);
target = (1,5);
type = Stem;
},
{
horizontal = 1;
origin = (0,13);
target = down;
type = TopGhost;
}
);
layerId = "9148514D-BEB8-4275-B264-8F51401A425F";
shapes = (
{
closed = 1;
nodes = (
(392,0,ls),
(460,0,o),
(492,36,o),
(492,111,cs),
(492,275,ls),
(492,331,o),
(465,364,o),
(410,378,c),
(410,381,l),
(475,398,o),
(507,447,o),
(507,532,cs),
(507,555,l),
(422,555,l),
(422,532,ls),
(422,456,o),
(393,412,o),
(338,407,c),
(338,356,l),
(381,350,o),
(402,327,o),
(402,285,cs),
(402,117,ls),
(402,83,o),
(387,68,o),
(354,68,cs),
(206,68,l),
(206,217,ls),
(206,259,o),
(215,282,o),
(254,337,cs),
(283,378,o),
(293,419,o),
(293,496,cs),
(293,555,l),
(244,555,l),
(237,509,o),
(207,456,o),
(175,433,c),
(180,421,l),
(196,434,o),
(206,455,o),
(206,477,cs),
(206,527,o),
(168,562,o),
(114,562,cs),
(55,562,o),
(18,526,o),
(18,470,cs),
(18,415,o),
(57,380,o),
(118,380,cs),
(163,380,o),
(207,409,o),
(228,452,c),
(231,451,l),
(225,413,o),
(217,397,o),
(183,357,cs),
(130,294,o),
(118,267,o),
(118,217,cs),
(118,65,l),
(67,52,l),
(67,0,l)
);
},
{
closed = 1;
nodes = (
(86,427,o),
(70,443,o),
(70,470,cs),
(70,497,o),
(86,513,o),
(114,513,cs),
(142,513,o),
(158,497,o),
(158,470,cs),
(158,443,o),
(142,427,o),
(114,427,cs)
);
}
);
width = 574;
},
{
anchors = (
{
name = bottom;
pos = (287,0);
},
{
name = top;
pos = (294,550);
}
);
layerId = "54E3FB14-E6D2-4DF3-BA4A-5621168F9335";
shapes = (
{
closed = 1;
nodes = (
(223,0,ls),
(268,0,o),
(287,22,o),
(287,72,cs),
(287,274,ls),
(287,334,o),
(270,369,o),
(235,381,c),
(235,383,l),
(274,401,o),
(294,449,o),
(294,529,cs),
(294,550,l),
(269,550,l),
(269,529,ls),
(269,441,o),
(245,395,o),
(196,392,c),
(196,372,l),
(241,370,o),
(262,338,o),
(262,273,cs),
(262,75,ls),
(262,35,o),
(252,23,o),
(219,23,cs),
(107,23,l),
(107,202,ls),
(107,265,o),
(114,294,o),
(143,351,cs),
(170,404,o),
(174,425,o),
(174,498,cs),
(174,550,l),
(156,550,l),
(150,496,o),
(126,441,o),
(103,427,c),
(104,417,l),
(116,432,o),
(122,453,o),
(122,478,cs),
(122,527,o),
(104,554,o),
(70,554,cs),
(36,554,o),
(16,525,o),
(16,474,cs),
(16,424,o),
(37,396,o),
(73,396,cs),
(107,396,o),
(141,432,o),
(155,483,c),
(156,483,l),
(153,428,o),
(148,409,o),
(124,363,cs),
(91,299,o),
(83,268,o),
(83,202,cs),
(83,23,l),
(49,18,l),
(49,0,l)
);
},
{
closed = 1;
nodes = (
(50,416,o),
(39,437,o),
(39,474,cs),
(39,511,o),
(50,532,o),
(70,532,cs),
(90,532,o),
(101,511,o),
(101,474,cs),
(101,437,o),
(90,416,o),
(70,416,cs)
);
}
);
width = 346;
},
{
anchors = (
{
name = bottom;
pos = (442,0);
},
{
name = top;
pos = (458,563);
}
);
layerId = "E703E12A-5DA7-48FA-B69F-BB282FBD8E56";
shapes = (
{
closed = 1;
nodes = (
(330,0,ls),
(404,0,o),
(442,44,o),
(442,130,cs),
(442,256,ls),
(442,315,o),
(419,356,o),
(377,373,c),
(377,377,l),
(432,394,o),
(458,445,o),
(458,537,cs),
(458,563,l),
(314,563,l),
(314,537,ls),
(314,472,o),
(302,438,o),
(276,430,c),
(276,332,l),
(286,329,o),
(290,314,o),
(290,279,cs),
(290,165,ls),
(290,145,o),
(281,135,o),
(261,135,cs),
(227,135,l),
(227,218,ls),
(227,269,o),
(230,292,o),
(239,332,cs),
(252,388,o),
(257,428,o),
(257,470,cs),
(257,563,l),
(188,563,l),
(183,502,o),
(176,466,o),
(167,443,c),
(168,427,l),
(176,441,o),
(180,458,o),
(180,475,cs),
(180,533,o),
(144,573,o),
(92,573,cs),
(37,573,o),
(2,531,o),
(2,466,cs),
(2,402,o),
(37,357,o),
(87,357,cs),
(111,357,o),
(132,369,o),
(148,391,c),
(151,389,l),
(147,380,o),
(129,358,o),
(118,347,cs),
(88,316,o),
(74,273,o),
(74,211,cs),
(74,128,l),
(37,103,l),
(37,0,l)
);
},
{
closed = 1;
nodes = (
(77,426,o),
(65,441,o),
(65,465,cs),
(65,489,o),
(77,504,o),
(96,504,cs),
(115,504,o),
(127,489,o),
(127,465,cs),
(127,441,o),
(115,426,o),
(96,426,cs)
);
}
);
userData = {
com.schriftgestaltung.Glyphs.glyph.rightMetricsKey = "choChang-thai";
};
width = 482;
},
{
anchors = (
{
name = bottom;
pos = (347,0);
},
{
name = top;
pos = (357,555);
}
);
layerId = "94F80E8F-7C96-497F-B870-569C37B7A2A5";
shapes = (
{
closed = 1;
nodes = (
(268,0,ls),
(321,0,o),
(347,31,o),
(347,95,cs),
(347,267,ls),
(347,325,o),
(327,363,o),
(288,378,c),
(288,381,l),
(334,398,o),
(357,448,o),
(357,532,cs),
(357,555,l),
(283,555,l),
(283,532,ls),
(283,453,o),
(264,412,o),
(224,407,c),
(224,356,l),
(256,353,o),
(270,328,o),
(270,275,cs),
(270,108,ls),
(270,77,o),
(260,65,o),
(236,65,cs),
(155,65,l),
(155,209,ls),
(155,267,o),
(160,295,o),
(178,337,cs),
(202,394,o),
(207,422,o),
(207,488,cs),
(207,555,l),
(169,555,l),
(163,505,o),
(149,473,o),
(123,447,c),
(129,422,l),
(139,436,o),
(145,456,o),
(145,478,cs),
(145,531,o),
(120,562,o),
(79,562,cs),
(36,562,o),
(10,528,o),
(10,471,cs),
(10,416,o),
(37,382,o),
(82,382,cs),
(108,382,o),
(135,408,o),
(152,448,c),
(154,447,l),
(149,408,o),
(143,393,o),
(121,358,cs),
(88,305,o),
(78,271,o),
(78,207,cs),
(78,64,l),
(43,51,l),
(43,0,l)
);
},
{
closed = 1;
nodes = (
(63,421,o),
(53,439,o),
(53,471,cs),
(53,503,o),
(63,521,o),
(81,521,cs),
(99,521,o),
(109,503,o),
(109,471,cs),
(109,439,o),
(99,421,o),
(81,421,cs)
);
}
);
width = 398;
}
);
metricLeft = "khoKhuat-thai";
metricRight = "choChang-thai";
note = "
uni0E0B
";
unicode = 3595;
},
{
category = Letter;
glyphname = "soSo_macronbelowcomb-thai";
kernLeft = "khoKhai-thai";
lastChange = "2022-09-01 04:16:00 +0000";
layers = (
{
anchors = (
{
name = bottom;
pos = (447,-100);
}
);
layerId = "90A34054-68E4-499D-AE50-276C7B026D8B";
shapes = (
{
closed = 1;
nodes = (
(447,-100,l),
(447,-77,l),
(80,-77,l),
(80,-100,l)
);
},
{
ref = "soSo-thai";
}
);
width = 533;
},
{
anchors = (
{
name = bottom;
pos = (570,-219);
}
);
layerId = "EB3A5D6C-8260-43A6-9EF2-63971FC08D48";
shapes = (
{
closed = 1;
nodes = (
(570,-219,l),
(570,-77,l),
(51,-77,l),
(51,-219,l)
);
},
{
ref = "soSo-thai";
}
);
width = 629;
},
{
anchors = (
{
name = bottom;
pos = (497,-147);
}
);
hints = (
{
horizontal = 1;
origin = (0,3);
target = (0,2);
type = Stem;
}
);
layerId = "9148514D-BEB8-4275-B264-8F51401A425F";
shapes = (
{
closed = 1;
nodes = (
(497,-147,l),
(497,-76,l),
(67,-76,l),
(67,-147,l)
);
},
{
alignment = -1;
ref = "soSo-thai";
}
);
width = 574;
},
{
anchors = (
{
name = bottom;
pos = (287,-100);
}
);
layerId = "54E3FB14-E6D2-4DF3-BA4A-5621168F9335";
shapes = (
{
closed = 1;
nodes = (
(287,-100,l),
(287,-77,l),
(49,-77,l),
(49,-100,l)
);
},
{
ref = "soSo-thai";
}
);
width = 346;
},
{
anchors = (
{
name = bottom;
pos = (442,-219);
}
);
layerId = "E703E12A-5DA7-48FA-B69F-BB282FBD8E56";
shapes = (
{
closed = 1;
nodes = (
(442,-219,l),
(442,-77,l),
(37,-77,l),
(37,-219,l)
);
},
{
ref = "soSo-thai";
}
);
width = 482;
},
{
anchors = (
{
name = bottom;
pos = (347,-147);
}
);
layerId = "94F80E8F-7C96-497F-B870-569C37B7A2A5";
shapes = (
{
closed = 1;
nodes = (
(347,-147,l),
(347,-77,l),
(43,-77,l),
(43,-147,l)
);
},
{
alignment = -1;
ref = "soSo-thai";
}
);
width = 398;
}
);
metricLeft = "khoKhuat-thai";
metricRight = "choChang-thai";
script = thai;
subCategory = Other;
},
{
glyphname = "choChoe-thai";
kernLeft = "thoThung-thai";
lastChange = "2022-10-16 09:21:37 +0000";
layers = (
{
anchors = (
{
name = bottom;
pos = (877,0);
},
{
name = top;
pos = (877,563);
}
);
layerId = "EB3A5D6C-8260-43A6-9EF2-63971FC08D48";
shapes = (
{
closed = 1;
nodes = (
(268,-10,o),
(319,36,o),
(319,107,cs),
(319,171,o),
(277,211,o),
(209,211,cs),
(138,211,o),
(109,190,o),
(90,123,c),
(117,99,l),
(117,140,o),
(167,173,o),
(229,173,c),
(229,180,o),
(229,186,o),
(229,193,cs),
(229,199,ls),
(229,233,o),
(261,256,o),
(307,256,c),
(317,334,l),
(134,415,l),
(207,334,l),
(207,358,ls),
(207,405,o),
(237,438,o),
(298,438,cs),
(362,438,o),
(391,403,o),
(391,329,cs),
(391,281,ls),
(391,254,o),
(393,218,o),
(402,194,c),
(516,146,l),
(590,101,o),
(647,56,o),
(696,0,c),
(877,0,l),
(877,563,l),
(691,563,l),
(691,254,ls),
(691,225,o),
(692,191,o),
(696,146,c),
(692,146,l),
(642,193,o),
(585,221,o),
(526,233,c),
(577,197,l),
(577,334,ls),
(577,492,o),
(503,578,o),
(302,578,cs),
(133,578,o),
(31,489,o),
(31,360,cs),
(31,344,l),
(153,300,l),
(153,296,l),
(84,283,o),
(43,228,o),
(43,145,cs),
(43,138,ls),
(43,34,o),
(107,-10,o),
(191,-10,cs)
);
},
{
closed = 1;
nodes = (
(165,63,o),
(149,77,o),
(149,102,cs),
(149,127,o),
(165,141,o),
(191,141,cs),
(217,141,o),
(233,127,o),
(233,102,cs),
(233,77,o),
(217,63,o),
(191,63,cs)
);
},
{
closed = 1;
nodes = (
(559,-10,o),
(611,34,o),
(611,109,cs),
(611,184,o),
(559,228,o),
(483,228,cs),
(401,228,o),
(346,184,o),
(346,109,cs),
(346,34,o),
(401,-10,o),
(483,-10,cs)
);
},
{
closed = 1;
nodes = (
(450,70,o),
(434,84,o),
(434,109,cs),
(434,134,o),
(450,148,o),
(476,148,cs),
(502,148,o),
(518,134,o),
(518,109,cs),
(518,84,o),
(502,70,o),
(476,70,cs)
);
}
);
userData = {
com.schriftgestaltung.Glyphs.glyph.leftMetricsKey = "thoThung-thai";
com.schriftgestaltung.Glyphs.glyph.rightMetricsKey = "boBaimai-thai";
};
width = 951;
},
{
anchors = (
{
name = bottom;
pos = (723,0);
},
{
name = top;
pos = (723,550);
}
);
layerId = "90A34054-68E4-499D-AE50-276C7B026D8B";
shapes = (
{
closed = 1;
nodes = (
(226,-5,o),
(259,27,o),
(259,75,cs),
(259,123,o),
(227,155,o),
(179,155,cs),
(134,155,o),
(107,126,o),
(107,76,c),
(113,76,l),
(113,89,o),
(114,102,o),
(119,112,c),
(122,128,o),
(122,146,o),
(122,166,cs),
(122,204,ls),
(122,278,o),
(148,308,o),
(228,325,c),
(231,346,l),
(83,392,l),
(94,377,l),
(94,384,ls),
(94,474,o),
(167,535,o),
(275,535,cs),
(384,535,o),
(442,481,o),
(442,377,cs),
(442,204,ls),
(442,177,o),
(442,151,o),
(442,130,c),
(467,112,l),
(543,94,o),
(635,48,o),
(698,0,c),
(723,0,l),
(723,550,l),
(698,550,l),
(698,236,ls),
(698,166,o),
(698,95,o),
(699,28,c),
(696,28,l),
(627,74,o),
(542,116,o),
(456,137,c),
(467,121,l),
(467,382,ls),
(467,496,o),
(395,558,o),
(275,558,cs),
(146,558,o),
(69,482,o),
(69,384,cs),
(69,373,l),
(196,338,l),
(196,335,l),
(130,316,o),
(97,283,o),
(97,204,cs),
(97,79,ls),
(97,28,o),
(129,-5,o),
(178,-5,cs)
);
},
{
closed = 1;
nodes = (
(143,17,o),
(121,40,o),
(121,75,cs),
(121,110,o),
(143,133,o),
(178,133,cs),
(213,133,o),
(235,110,o),
(235,75,cs),
(235,40,o),
(213,17,o),
(178,17,cs)
);
},
{
closed = 1;
nodes = (
(448,-5,o),
(480,28,o),
(480,76,cs),
(480,122,o),
(448,155,o),
(399,155,cs),
(350,155,o),
(318,122,o),
(318,76,cs),
(318,28,o),
(350,-5,o),
(399,-5,cs)
);
},
{
closed = 1;
nodes = (
(364,17,o),
(342,41,o),
(342,76,cs),
(342,109,o),
(364,133,o),
(399,133,cs),
(433,133,o),
(456,109,o),
(456,76,cs),
(456,41,o),
(433,17,o),
(399,17,cs)
);
}
);
width = 823;
},
{
anchors = (
{
name = bottom;
pos = (785,0);
},
{
name = top;
pos = (785,555);
}
);
hints = (
{
horizontal = 1;
origin = (0,66);
target = (1,11);
type = Stem;
},
{
origin = (0,62);
target = (0,16);
type = Stem;
},
{
origin = (0,30);
target = (0,50);
type = Stem;
},
{
origin = (0,41);
target = (0,38);
type = Stem;
},
{
horizontal = 1;
origin = (0,53);
target = (0,26);
type = Stem;
},
{
horizontal = 1;
origin = (0,37);
target = up;
type = BottomGhost;
}
);
layerId = "9148514D-BEB8-4275-B264-8F51401A425F";
shapes = (
{
closed = 1;
nodes = (
(246,-7,o),
(285,31,o),
(285,88,cs),
(285,143,o),
(248,178,o),
(192,178,cs),
(138,178,o),
(111,153,o),
(103,94,c),
(116,85,l),
(116,109,o),
(135,129,o),
(165,137,c),
(166,146,o),
(167,156,o),
(167,175,cs),
(167,201,ls),
(167,259,o),
(194,287,o),
(260,297,c),
(266,351,l),
(96,411,l),
(132,360,l),
(132,374,ls),
(132,448,o),
(193,498,o),
(284,498,cs),
(375,498,o),
(421,450,o),
(421,358,cs),
(421,235,ls),
(421,201,o),
(423,174,o),
(426,156,c),
(487,126,l),
(564,96,o),
(641,50,o),
(697,0,c),
(785,0,l),
(785,555,l),
(695,555,l),
(695,243,ls),
(695,190,o),
(696,134,o),
(698,76,c),
(694,76,l),
(632,123,o),
(557,158,o),
(484,176,c),
(511,152,l),
(511,363,ls),
(511,497,o),
(434,566,o),
(285,566,cs),
(141,566,o),
(46,490,o),
(46,374,cs),
(46,361,l),
(179,323,l),
(179,319,l),
(109,302,o),
(77,258,o),
(77,180,cs),
(77,103,ls),
(77,34,o),
(118,-7,o),
(185,-7,cs)
);
},
{
closed = 1;
nodes = (
(155,43,o),
(139,59,o),
(139,86,cs),
(139,113,o),
(155,129,o),
(183,129,cs),
(211,129,o),
(227,113,o),
(227,86,cs),
(227,59,o),
(211,43,o),
(183,43,cs)
);
},
{
closed = 1;
nodes = (
(502,-7,o),
(541,31,o),
(541,88,cs),
(541,146,o),
(502,183,o),
(441,183,cs),
(379,183,o),
(337,145,o),
(337,88,cs),
(337,31,o),
(379,-7,o),
(441,-7,cs)
);
},
{
closed = 1;
nodes = (
(411,43,o),
(395,59,o),
(395,86,cs),
(395,113,o),
(411,129,o),
(439,129,cs),
(467,129,o),
(483,113,o),
(483,86,cs),
(483,59,o),
(467,43,o),
(439,43,cs)
);
}
);
width = 874;
},
{
anchors = (
{
name = bottom;
pos = (472,0);
},
{
name = top;
pos = (472,550);
}
);
layerId = "54E3FB14-E6D2-4DF3-BA4A-5621168F9335";
shapes = (
{
closed = 1;
nodes = (
(146,-5,o),
(166,24,o),
(166,75,cs),
(166,126,o),
(146,155,o),
(112,155,cs),
(84,155,o),
(69,127,o),
(69,75,c),
(72,75,l),
(72,90,o),
(74,104,o),
(78,115,c),
(80,128,o),
(81,148,o),
(81,166,cs),
(81,204,ls),
(81,277,o),
(98,308,o),
(147,325,c),
(149,346,l),
(52,392,l),
(62,377,l),
(62,384,ls),
(62,481,o),
(104,535,o),
(178,535,cs),
(246,535,o),
(281,481,o),
(281,377,cs),
(281,204,ls),
(281,155,o),
(281,144,o),
(282,130,c),
(302,117,l),
(350,91,o),
(410,43,o),
(448,0,c),
(472,0,l),
(472,550,l),
(447,550,l),
(447,236,ls),
(447,166,o),
(447,95,o),
(447,33,c),
(445,32,l),
(410,68,o),
(355,112,o),
(298,142,c),
(306,129,l),
(306,382,ls),
(306,495,o),
(260,558,o),
(178,558,cs),
(89,558,o),
(38,495,o),
(38,384,cs),
(38,373,l),
(119,338,l),
(119,335,l),
(78,316,o),
(56,283,o),
(56,204,cs),
(56,79,ls),
(56,25,o),
(76,-5,o),
(111,-5,cs)
);
},
{
closed = 1;
nodes = (
(92,17,o),
(81,38,o),
(81,75,cs),
(81,112,o),
(92,133,o),
(112,133,cs),
(132,133,o),
(143,112,o),
(143,75,cs),
(143,38,o),
(132,17,o),
(112,17,cs)
);
},
{
closed = 1;
nodes = (
(296,-5,o),
(316,24,o),
(316,75,cs),
(316,126,o),
(296,155,o),
(262,155,cs),
(228,155,o),
(208,126,o),
(208,75,cs),
(208,24,o),
(228,-5,o),
(262,-5,cs)
);
},
{
closed = 1;
nodes = (
(242,17,o),
(231,38,o),
(231,75,cs),
(231,112,o),
(242,133,o),
(262,133,cs),
(282,133,o),
(293,112,o),
(293,75,cs),
(293,38,o),
(282,17,o),
(262,17,cs)
);
}
);
width = 534;
},
{
anchors = (
{
name = bottom;
pos = (683,0);
},
{
name = top;
pos = (683,563);
}
);
layerId = "E703E12A-5DA7-48FA-B69F-BB282FBD8E56";
shapes = (
{
closed = 1;
nodes = (
(214,-10,o),
(254,36,o),
(254,107,cs),
(254,172,o),
(222,211,o),
(169,211,cs),
(114,211,o),
(91,189,o),
(75,123,c),
(97,99,l),
(97,140,o),
(139,173,o),
(192,173,c),
(192,180,o),
(192,186,o),
(192,193,cs),
(192,199,ls),
(192,232,o),
(216,256,o),
(248,256,c),
(256,334,l),
(116,415,l),
(177,334,l),
(177,358,ls),
(177,404,o),
(202,438,o),
(242,438,cs),
(286,438,o),
(299,410,o),
(299,347,cs),
(299,251,ls),
(299,226,o),
(299,205,o),
(307,181,c),
(401,146,l),
(457,101,o),
(497,54,o),
(531,0,c),
(683,0,l),
(683,563,l),
(527,563,l),
(527,254,ls),
(527,218,o),
(528,187,o),
(531,146,c),
(528,146,l),
(492,193,o),
(453,220,o),
(411,233,c),
(453,197,l),
(453,352,ls),
(453,493,o),
(405,578,o),
(257,578,cs),
(106,578,o),
(30,489,o),
(30,360,cs),
(30,344,l),
(120,300,l),
(120,296,l),
(71,284,o),
(36,233,o),
(36,145,cs),
(36,138,ls),
(36,34,o),
(88,-10,o),
(154,-10,cs)
);
},
{
closed = 1;
nodes = (
(133,63,o),
(121,77,o),
(121,102,cs),
(121,127,o),
(133,141,o),
(152,141,cs),
(171,141,o),
(183,127,o),
(183,102,cs),
(183,77,o),
(171,63,o),
(152,63,cs)
);
},
{
closed = 1;
nodes = (
(443,-10,o),
(480,34,o),
(480,109,cs),
(480,184,o),
(443,228,o),
(379,228,cs),
(310,228,o),
(269,184,o),
(269,109,cs),
(269,34,o),
(310,-10,o),
(379,-10,cs)
);
},
{
closed = 1;
nodes = (
(354,63,o),
(342,77,o),
(342,102,cs),
(342,127,o),
(354,141,o),
(373,141,cs),
(392,141,o),
(404,127,o),
(404,102,cs),
(404,77,o),
(392,63,o),
(373,63,cs)
);
}
);
userData = {
com.schriftgestaltung.Glyphs.glyph.leftMetricsKey = "thoThung-thai";
com.schriftgestaltung.Glyphs.glyph.rightMetricsKey = "boBaimai-thai";
};
width = 731;
},
{
anchors = (
{
name = bottom;
pos = (555,0);
},
{
name = top;
pos = (555,555);
}
);
layerId = "94F80E8F-7C96-497F-B870-569C37B7A2A5";
shapes = (
{
closed = 1;
nodes = (
(175,-7,o),
(202,29,o),
(202,87,cs),
(202,144,o),
(177,179,o),
(136,179,cs),
(98,179,o),
(77,150,o),
(74,94,c),
(83,84,l),
(83,122,o),
(103,160,o),
(123,160,c),
(125,165,o),
(126,174,o),
(126,186,cs),
(126,201,ls),
(126,259,o),
(144,288,o),
(187,298,c),
(191,341,l),
(77,401,l),
(107,360,l),
(107,374,ls),
(107,453,o),
(141,499,o),
(200,499,cs),
(257,499,o),
(287,451,o),
(287,358,cs),
(287,234,ls),
(287,202,o),
(289,174,o),
(292,155,c),
(341,129,l),
(383,107,o),
(435,59,o),
(481,0,c),
(555,0,l),
(555,555,l),
(478,555,l),
(478,243,ls),
(478,139,o),
(478,111,o),
(479,78,c),
(477,77,l),
(436,122,o),
(389,157,o),
(343,178,c),
(364,156,l),
(364,363,ls),
(364,498,o),
(310,566,o),
(202,566,cs),
(98,566,o),
(35,494,o),
(35,375,cs),
(35,362,l),
(119,323,l),
(119,320,l),
(72,302,o),
(49,257,o),
(49,180,cs),
(49,102,ls),
(49,33,o),
(79,-7,o),
(130,-7,cs)
);
},
{
closed = 1;
nodes = (
(111,37,o),
(101,55,o),
(101,87,cs),
(101,119,o),
(111,137,o),
(129,137,cs),
(147,137,o),
(157,119,o),
(157,87,cs),
(157,55,o),
(147,37,o),
(129,37,cs)
);
},
{
closed = 1;
nodes = (
(353,-7,o),
(381,29,o),
(381,88,cs),
(381,147,o),
(353,184,o),
(308,184,cs),
(261,184,o),
(233,148,o),
(233,88,cs),
(233,29,o),
(261,-7,o),
(308,-7,cs)
);
},
{
closed = 1;
nodes = (
(289,38,o),
(279,56,o),
(279,88,cs),
(279,120,o),
(289,138,o),
(307,138,cs),
(325,138,o),
(335,120,o),
(335,88,cs),
(335,56,o),
(325,38,o),
(307,38,cs)
);
}
);
width = 611;
}
);
metricLeft = "thoThung-thai";
metricRight = "boBaimai-thai";
unicode = 3596;
},
{
category = Letter;
glyphname = "choChoe_macronbelowcomb-thai";
kernLeft = "thoThung-thai";
lastChange = "2022-09-01 04:16:00 +0000";
layers = (
{
anchors = (
{
name = bottom;
pos = (723,-100);
}
);
layerId = "90A34054-68E4-499D-AE50-276C7B026D8B";
shapes = (
{
closed = 1;
nodes = (
(723,-100,l),
(723,-77,l),
(97,-77,l),
(97,-100,l)
);
},
{
ref = "choChoe-thai";
}
);
width = 823;
},
{
anchors = (
{
name = bottom;
pos = (877,-219);
}
);
layerId = "EB3A5D6C-8260-43A6-9EF2-63971FC08D48";
shapes = (
{
closed = 1;
nodes = (
(877,-219,l),
(877,-77,l),
(43,-77,l),
(43,-219,l)
);
},
{
ref = "choChoe-thai";
}
);
width = 951;
},
{
anchors = (
{
name = bottom;
pos = (785,-147);
}
);
hints = (
{
horizontal = 1;
origin = (0,3);
target = (0,2);
type = Stem;
}
);
layerId = "9148514D-BEB8-4275-B264-8F51401A425F";
shapes = (
{
closed = 1;
nodes = (
(785,-147,l),
(785,-76,l),
(77,-76,l),
(77,-147,l)
);
},
{
alignment = -1;
ref = "choChoe-thai";
}
);
width = 874;
},
{
anchors = (
{
name = bottom;
pos = (472,-100);
}
);
layerId = "54E3FB14-E6D2-4DF3-BA4A-5621168F9335";
shapes = (
{
closed = 1;
nodes = (
(472,-100,l),
(472,-77,l),
(56,-77,l),
(56,-100,l)
);
},
{
ref = "choChoe-thai";
}
);
width = 534;
},
{
anchors = (
{
name = bottom;
pos = (683,-219);
}
);
layerId = "E703E12A-5DA7-48FA-B69F-BB282FBD8E56";
shapes = (
{
closed = 1;
nodes = (
(683,-219,l),
(683,-77,l),
(36,-77,l),
(36,-219,l)
);
},
{
ref = "choChoe-thai";
}
);
width = 731;
},
{
anchors = (
{
name = bottom;
pos = (555,-147);
}
);
layerId = "94F80E8F-7C96-497F-B870-569C37B7A2A5";
shapes = (
{
closed = 1;
nodes = (
(555,-147,l),
(555,-77,l),
(48,-77,l),
(48,-147,l)
);
},
{
alignment = -1;
ref = "choChoe-thai";
}
);
width = 611;
}
);
metricLeft = "thoThung-thai";
metricRight = "boBaimai-thai";
script = thai;
subCategory = Other;
},
{
glyphname = "yoYing-thai";
kernLeft = "thoThung-thai";
lastChange = "2022-09-01 04:16:00 +0000";
layers = (
{
anchors = (
{
name = bottom;
pos = (843,-279);
}
);
layerId = "EB3A5D6C-8260-43A6-9EF2-63971FC08D48";
shapes = (
{
closed = 1;
nodes = (
(651,-279,o),
(796,-237,o),
(843,-195,c),
(843,-43,l),
(841,-43,l),
(777,-105,o),
(661,-167,o),
(611,-167,cs),
(598,-167,o),
(588,-166,o),
(576,-162,c),
(595,-208,l),
(629,-192,o),
(645,-169,o),
(645,-133,cs),
(645,-70,o),
(596,-31,o),
(517,-31,cs),
(440,-31,o),
(388,-79,o),
(388,-150,cs),
(388,-185,o),
(403,-219,o),
(429,-241,cs),
(457,-265,o),
(503,-279,o),
(554,-279,cs)
);
},
{
closed = 1;
nodes = (
(491,-188,o),
(475,-174,o),
(475,-149,cs),
(475,-124,o),
(491,-110,o),
(517,-110,cs),
(543,-110,o),
(559,-124,o),
(559,-149,cs),
(559,-174,o),
(543,-188,o),
(517,-188,cs)
);
},
{
ref = "yoYing-thai.less";
}
);
userData = {
com.schriftgestaltung.Glyphs.glyph.leftMetricsKey = "thoThung-thai";
com.schriftgestaltung.Glyphs.glyph.rightMetricsKey = "noNu-thai";
};
width = 938;
},
{
anchors = (
{
name = bottom;
pos = (727,-215);
}
);
layerId = "90A34054-68E4-499D-AE50-276C7B026D8B";
shapes = (
{
closed = 1;
nodes = (
(595,-215,o),
(677,-176,o),
(727,-114,c),
(727,-75,l),
(725,-75,l),
(672,-153,o),
(594,-196,o),
(509,-196,cs),
(490,-196,o),
(473,-193,o),
(465,-188,c),
(465,-195,l),
(515,-199,o),
(548,-171,o),
(548,-126,cs),
(548,-80,o),
(517,-49,o),
(470,-49,cs),
(423,-49,o),
(392,-80,o),
(392,-126,cs),
(392,-153,o),
(404,-175,o),
(426,-191,cs),
(448,-207,o),
(478,-215,o),
(515,-215,cs)
);
},
{
closed = 1;
nodes = (
(436,-182,o),
(415,-160,o),
(415,-126,cs),
(415,-92,o),
(436,-70,o),
(470,-70,cs),
(504,-70,o),
(525,-92,o),
(525,-126,cs),
(525,-160,o),
(504,-182,o),
(470,-182,cs)
);
},
{
ref = "yoYing-thai.less";
}
);
width = 833;
},
{
anchors = (
{
name = bottom;
pos = (775,-241);
}
);
hints = (
{
horizontal = 1;
origin = (0,26);
target = (0,7);
type = Stem;
},
{
horizontal = 1;
origin = (1,5);
target = (0,17);
type = Stem;
}
);
layerId = "9148514D-BEB8-4275-B264-8F51401A425F";
shapes = (
{
closed = 1;
nodes = (
(619,-241,o),
(721,-203,o),
(775,-153,c),
(775,-64,l),
(773,-64,l),
(688,-144,o),
(595,-191,o),
(519,-191,cs),
(505,-191,o),
(496,-190,o),
(486,-187,c),
(508,-206,l),
(560,-198,o),
(587,-171,o),
(587,-129,cs),
(587,-76,o),
(549,-42,o),
(489,-42,cs),
(430,-42,o),
(390,-80,o),
(390,-136,cs),
(390,-166,o),
(403,-192,o),
(427,-211,cs),
(453,-231,o),
(489,-241,o),
(531,-241,cs)
);
},
{
closed = 1;
nodes = (
(461,-178,o),
(445,-162,o),
(445,-135,cs),
(445,-108,o),
(461,-92,o),
(489,-92,cs),
(517,-92,o),
(533,-108,o),
(533,-135,cs),
(533,-162,o),
(517,-178,o),
(489,-178,cs)
);
},
{
alignment = -1;
ref = "yoYing-thai.less";
}
);
width = 875;
},
{
anchors = (
{
name = bottom;
pos = (472,-205);
}
);
layerId = "54E3FB14-E6D2-4DF3-BA4A-5621168F9335";
shapes = (
{
closed = 1;
nodes = (
(383,-205,o),
(442,-171,o),
(472,-127,c),
(472,-86,l),
(470,-86,l),
(435,-147,o),
(380,-186,o),
(331,-186,cs),
(318,-186,o),
(307,-183,o),
(301,-178,c),
(303,-185,l),
(337,-190,o),
(357,-165,o),
(357,-116,cs),
(357,-67,o),
(338,-39,o),
(304,-39,cs),
(270,-39,o),
(250,-67,o),
(250,-116,cs),
(250,-144,o),
(257,-166,o),
(270,-179,cs),
(287,-196,o),
(310,-205,o),
(336,-205,cs)
);
},
{
closed = 1;
nodes = (
(284,-173,o),
(273,-152,o),
(273,-116,cs),
(273,-80,o),
(284,-59,o),
(304,-59,cs),
(324,-59,o),
(335,-80,o),
(335,-116,cs),
(335,-152,o),
(324,-173,o),
(304,-173,cs)
);
},
{
ref = "yoYing-thai.less";
}
);
width = 534;
},
{
anchors = (
{
name = bottom;
pos = (649,-279);
}
);
layerId = "E703E12A-5DA7-48FA-B69F-BB282FBD8E56";
shapes = (
{
closed = 1;
nodes = (
(505,-279,o),
(615,-236,o),
(649,-195,c),
(649,-43,l),
(646,-43,l),
(608,-99,o),
(516,-167,o),
(479,-167,cs),
(465,-167,o),
(459,-166,o),
(453,-164,c),
(467,-208,l),
(489,-192,o),
(499,-167,o),
(499,-133,cs),
(499,-70,o),
(460,-31,o),
(398,-31,cs),
(337,-31,o),
(296,-79,o),
(296,-150,cs),
(296,-190,o),
(310,-224,o),
(335,-246,cs),
(360,-268,o),
(393,-279,o),
(434,-279,cs)
);
},
{
closed = 1;
nodes = (
(379,-188,o),
(367,-173,o),
(367,-149,cs),
(367,-125,o),
(379,-110,o),
(398,-110,cs),
(417,-110,o),
(429,-125,o),
(429,-149,cs),
(429,-173,o),
(417,-188,o),
(398,-188,cs)
);
},
{
ref = "yoYing-thai.less";
}
);
userData = {
com.schriftgestaltung.Glyphs.glyph.leftMetricsKey = "thoThung-thai";
com.schriftgestaltung.Glyphs.glyph.rightMetricsKey = "noNu-thai";
};
width = 719;
},
{
anchors = (
{
name = bottom;
pos = (540,-234);
}
);
layerId = "94F80E8F-7C96-497F-B870-569C37B7A2A5";
shapes = (
{
closed = 1;
nodes = (
(426,-234,o),
(508,-196,o),
(540,-154,c),
(540,-69,l),
(538,-69,l),
(503,-127,o),
(432,-179,o),
(387,-179,cs),
(383,-179,o),
(380,-179,o),
(376,-179,c),
(379,-186,l),
(400,-182,o),
(411,-159,o),
(411,-123,cs),
(411,-69,o),
(385,-36,o),
(339,-36,cs),
(294,-36,o),
(267,-72,o),
(267,-129,cs),
(267,-158,o),
(274,-184,o),
(291,-203,cs),
(308,-223,o),
(335,-234,o),
(368,-234,cs)
);
},
{
closed = 1;
nodes = (
(321,-179,o),
(311,-161,o),
(311,-129,cs),
(311,-97,o),
(321,-79,o),
(339,-79,cs),
(357,-79,o),
(367,-97,o),
(367,-129,cs),
(367,-161,o),
(357,-179,o),
(339,-179,cs)
);
},
{
alignment = -1;
ref = "yoYing-thai.less";
}
);
width = 606;
}
);
metricLeft = "thoThung-thai";
metricRight = "boBaimai-thai";
unicode = 3597;
},
{
category = Letter;
glyphname = "yoYing_macronbelowcomb-thai";
kernLeft = "thoThung-thai";
lastChange = "2022-09-01 04:16:00 +0000";
layers = (
{
anchors = (
{
name = bottom;
pos = (733,-100);
}
);
layerId = "90A34054-68E4-499D-AE50-276C7B026D8B";
shapes = (
{
closed = 1;
nodes = (
(733,-100,l),
(733,-77,l),
(97,-77,l),
(97,-100,l)
);
},
{
ref = "yoYing-thai.less";
}
);
width = 833;
},
{
anchors = (
{
name = bottom;
pos = (864,-219);
}
);
layerId = "EB3A5D6C-8260-43A6-9EF2-63971FC08D48";
shapes = (
{
closed = 1;
nodes = (
(864,-219,l),
(864,-77,l),
(47,-77,l),
(47,-219,l)
);
},
{
ref = "yoYing-thai.less";
}
);
width = 938;
},
{
anchors = (
{
name = bottom;
pos = (786,-147);
}
);
hints = (
{
horizontal = 1;
origin = (0,3);
target = (0,2);
type = Stem;
}
);
layerId = "9148514D-BEB8-4275-B264-8F51401A425F";
shapes = (
{
closed = 1;
nodes = (
(786,-147,l),
(786,-76,l),
(77,-76,l),
(77,-147,l)
);
},
{
alignment = -1;
ref = "yoYing-thai.less";
}
);
width = 875;
},
{
anchors = (
{
name = bottom;
pos = (472,-100);
}
);
layerId = "54E3FB14-E6D2-4DF3-BA4A-5621168F9335";
shapes = (
{
closed = 1;
nodes = (
(472,-100,l),
(472,-77,l),
(56,-77,l),
(56,-100,l)
);
},
{
ref = "yoYing-thai.less";
}
);
width = 534;
},
{
anchors = (
{
name = bottom;
pos = (671,-219);
}
);
layerId = "E703E12A-5DA7-48FA-B69F-BB282FBD8E56";
shapes = (
{
closed = 1;
nodes = (
(671,-219,l),
(671,-77,l),
(44,-77,l),
(44,-219,l)
);
},
{
ref = "yoYing-thai.less";
}
);
width = 719;
},
{
anchors = (
{
name = bottom;
pos = (550,-147);
}
);
layerId = "94F80E8F-7C96-497F-B870-569C37B7A2A5";
shapes = (
{
closed = 1;
nodes = (
(550,-147,l),
(550,-77,l),
(49,-77,l),
(49,-147,l)
);
},
{
alignment = -1;
ref = "yoYing-thai.less";
}
);
width = 606;
}
);
metricLeft = "thoThung-thai";
metricRight = "boBaimai-thai";
script = thai;
subCategory = Other;
},
{
glyphname = "yoYing-thai.less";
kernLeft = "thoThung-thai";
lastChange = "2022-09-01 04:16:00 +0000";
layers = (
{
anchors = (
{
name = bottom;
pos = (864,0);
},
{
name = top;
pos = (864,563);
}
);
layerId = "EB3A5D6C-8260-43A6-9EF2-63971FC08D48";
shapes = (
{
closed = 1;
nodes = (
(272,-10,o),
(323,36,o),
(323,107,cs),
(323,171,o),
(281,211,o),
(213,211,cs),
(142,211,o),
(113,190,o),
(94,123,c),
(121,99,l),
(121,140,o),
(171,173,o),
(233,173,c),
(233,178,o),
(233,184,o),
(233,189,cs),
(233,197,ls),
(233,233,o),
(263,256,o),
(307,256,c),
(317,334,l),
(134,415,l),
(207,334,l),
(207,358,ls),
(207,405,o),
(237,438,o),
(298,438,cs),
(359,438,o),
(391,403,o),
(391,329,cs),
(391,128,l),
(357,103,l),
(357,0,l),
(734,0,ls),
(818,0,o),
(864,46,o),
(864,130,cs),
(864,563,l),
(678,563,l),
(678,160,ls),
(678,141,o),
(667,130,o),
(648,130,cs),
(577,130,l),
(577,334,ls),
(577,492,o),
(500,578,o),
(302,578,cs),
(133,578,o),
(31,489,o),
(31,360,cs),
(31,344,l),
(153,300,l),
(153,296,l),
(86,283,o),
(47,228,o),
(47,145,cs),
(47,138,ls),
(47,34,o),
(111,-10,o),
(195,-10,cs)
);
},
{
closed = 1;
nodes = (
(169,63,o),
(153,77,o),
(153,102,cs),
(153,127,o),
(169,141,o),
(195,141,cs),
(221,141,o),
(237,127,o),
(237,102,cs),
(237,77,o),
(221,63,o),
(195,63,cs)
);
}
);
userData = {
com.schriftgestaltung.Glyphs.glyph.leftMetricsKey = "thoThung-thai";
com.schriftgestaltung.Glyphs.glyph.rightMetricsKey = "boBaimai-thai";
};
width = 938;
},
{
anchors = (
{
name = bottom;
pos = (733,0);
},
{
name = top;
pos = (733,550);
}
);
layerId = "90A34054-68E4-499D-AE50-276C7B026D8B";
shapes = (
{
closed = 1;
nodes = (
(226,-5,o),
(259,27,o),
(259,75,cs),
(259,123,o),
(227,155,o),
(179,155,cs),
(134,155,o),
(107,126,o),
(107,76,c),
(113,76,l),
(113,89,o),
(114,102,o),
(119,112,c),
(122,128,o),
(122,146,o),
(122,166,cs),
(122,204,ls),
(122,278,o),
(148,308,o),
(228,325,c),
(231,346,l),
(83,392,l),
(94,377,l),
(94,384,ls),
(94,474,o),
(167,535,o),
(275,535,cs),
(384,535,o),
(442,481,o),
(442,377,cs),
(442,23,l),
(380,18,l),
(380,0,l),
(652,0,ls),
(707,0,o),
(733,26,o),
(733,82,cs),
(733,550,l),
(708,550,l),
(708,85,ls),
(708,41,o),
(690,23,o),
(647,23,cs),
(467,23,l),
(467,382,ls),
(467,494,o),
(397,558,o),
(275,558,cs),
(153,558,o),
(69,487,o),
(69,384,cs),
(69,373,l),
(196,338,l),
(196,335,l),
(125,315,o),
(97,278,o),
(97,204,cs),
(97,79,ls),
(97,28,o),
(129,-5,o),
(178,-5,cs)
);
},
{
closed = 1;
nodes = (
(143,17,o),
(121,40,o),
(121,75,cs),
(121,110,o),
(143,133,o),
(178,133,cs),
(213,133,o),
(235,110,o),
(235,75,cs),
(235,40,o),
(213,17,o),
(178,17,cs)
);
}
);
width = 833;
},
{
anchors = (
{
name = bottom;
pos = (786,0);
},
{
name = top;
pos = (786,555);
}
);
hints = (
{
horizontal = 1;
origin = (0,32);
target = (0,43);
type = Stem;
},
{
horizontal = 1;
origin = (0,47);
target = (0,26);
type = Stem;
},
{
horizontal = 1;
origin = (0,60);
target = (1,11);
type = Stem;
},
{
horizontal = 1;
origin = (0,38);
target = down;
type = TopGhost;
},
{
origin = (0,30);
target = (0,43);
type = Stem;
},
{
origin = (0,39);
target = (0,36);
type = Stem;
},
{
origin = (0,57);
target = (0,15);
type = Stem;
}
);
layerId = "9148514D-BEB8-4275-B264-8F51401A425F";
shapes = (
{
closed = 1;
nodes = (
(244,-7,o),
(284,30,o),
(284,88,cs),
(284,144,o),
(244,183,o),
(186,183,cs),
(134,183,o),
(103,150,o),
(103,96,c),
(113,96,l),
(114,125,o),
(130,143,o),
(160,148,c),
(165,167,o),
(167,182,o),
(167,194,cs),
(167,201,ls),
(167,259,o),
(194,287,o),
(260,297,c),
(266,351,l),
(96,411,l),
(132,360,l),
(132,374,ls),
(132,448,o),
(193,498,o),
(284,498,cs),
(374,498,o),
(421,449,o),
(421,358,cs),
(421,65,l),
(371,52,l),
(371,0,l),
(685,0,ls),
(752,0,o),
(786,34,o),
(786,101,cs),
(786,555,l),
(696,555,l),
(696,115,ls),
(696,81,o),
(681,66,o),
(647,66,cs),
(511,66,l),
(511,358,ls),
(511,495,o),
(434,566,o),
(285,566,cs),
(141,566,o),
(46,490,o),
(46,374,cs),
(46,361,l),
(179,323,l),
(179,319,l),
(109,302,o),
(77,258,o),
(77,180,cs),
(77,101,ls),
(77,33,o),
(116,-7,o),
(182,-7,cs)
);
},
{
closed = 1;
nodes = (
(154,44,o),
(138,60,o),
(138,87,cs),
(138,114,o),
(154,130,o),
(182,130,cs),
(210,130,o),
(226,114,o),
(226,87,cs),
(226,60,o),
(210,44,o),
(182,44,cs)
);
}
);
width = 875;
},
{
anchors = (
{
name = bottom;
pos = (472,0);
},
{
name = top;
pos = (472,550);
}
);
layerId = "54E3FB14-E6D2-4DF3-BA4A-5621168F9335";
shapes = (
{
closed = 1;
nodes = (
(146,-5,o),
(166,24,o),
(166,75,cs),
(166,126,o),
(146,155,o),
(112,155,cs),
(84,155,o),
(69,127,o),
(69,75,c),
(72,75,l),
(72,90,o),
(74,104,o),
(78,115,c),
(80,129,o),
(81,150,o),
(81,166,cs),
(81,204,ls),
(81,277,o),
(98,308,o),
(147,325,c),
(149,346,l),
(52,392,l),
(62,377,l),
(62,384,ls),
(62,481,o),
(102,535,o),
(173,535,cs),
(240,535,o),
(276,483,o),
(276,387,cs),
(276,23,l),
(238,18,l),
(238,0,l),
(408,0,ls),
(453,0,o),
(472,22,o),
(472,72,cs),
(472,550,l),
(447,550,l),
(447,75,ls),
(447,35,o),
(437,23,o),
(404,23,cs),
(301,23,l),
(301,391,ls),
(301,498,o),
(255,558,o),
(172,558,cs),
(86,558,o),
(38,495,o),
(38,384,cs),
(38,373,l),
(119,338,l),
(119,335,l),
(74,314,o),
(56,277,o),
(56,204,cs),
(56,79,ls),
(56,25,o),
(76,-5,o),
(111,-5,cs)
);
},
{
closed = 1;
nodes = (
(92,17,o),
(81,38,o),
(81,75,cs),
(81,112,o),
(92,133,o),
(112,133,cs),
(132,133,o),
(143,112,o),
(143,75,cs),
(143,38,o),
(132,17,o),
(112,17,cs)
);
}
);
width = 534;
},
{
anchors = (
{
name = bottom;
pos = (671,0);
},
{
name = top;
pos = (671,563);
}
);
layerId = "E703E12A-5DA7-48FA-B69F-BB282FBD8E56";
shapes = (
{
closed = 1;
nodes = (
(218,-10,o),
(258,36,o),
(258,107,cs),
(258,171,o),
(226,211,o),
(174,211,cs),
(119,211,o),
(96,190,o),
(78,123,c),
(101,99,l),
(101,139,o),
(145,173,o),
(197,173,c),
(196,177,o),
(195,181,o),
(195,189,cs),
(195,197,ls),
(195,232,o),
(218,256,o),
(248,256,c),
(256,334,l),
(116,415,l),
(177,334,l),
(177,358,ls),
(177,409,o),
(198,438,o),
(235,438,cs),
(277,438,o),
(297,402,o),
(297,329,cs),
(297,128,l),
(275,103,l),
(275,0,l),
(568,0,ls),
(634,0,o),
(671,46,o),
(671,130,cs),
(671,563,l),
(515,563,l),
(515,160,ls),
(515,142,o),
(508,130,o),
(496,130,cs),
(453,130,l),
(453,334,ls),
(453,502,o),
(386,578,o),
(239,578,cs),
(112,578,o),
(30,492,o),
(30,360,cs),
(30,344,l),
(120,300,l),
(120,296,l),
(69,283,o),
(39,228,o),
(39,145,cs),
(39,138,ls),
(39,45,o),
(83,-10,o),
(158,-10,cs)
);
},
{
closed = 1;
nodes = (
(139,63,o),
(127,78,o),
(127,102,cs),
(127,126,o),
(139,141,o),
(158,141,cs),
(177,141,o),
(189,126,o),
(189,102,cs),
(189,78,o),
(177,63,o),
(158,63,cs)
);
}
);
userData = {
com.schriftgestaltung.Glyphs.glyph.leftMetricsKey = "thoThung-thai";
com.schriftgestaltung.Glyphs.glyph.rightMetricsKey = "boBaimai-thai";
};
width = 719;
},
{
anchors = (
{
name = bottom;
pos = (550,0);
},
{
name = top;
pos = (550,555);
}
);
layerId = "94F80E8F-7C96-497F-B870-569C37B7A2A5";
shapes = (
{
closed = 1;
nodes = (
(175,-7,o),
(202,29,o),
(202,87,cs),
(202,144,o),
(177,179,o),
(136,179,cs),
(98,179,o),
(77,150,o),
(74,94,c),
(83,84,l),
(83,122,o),
(103,160,o),
(123,160,c),
(125,165,o),
(126,174,o),
(126,186,cs),
(126,201,ls),
(126,258,o),
(145,288,o),
(187,298,c),
(191,341,l),
(77,401,l),
(107,360,l),
(107,374,ls),
(107,453,o),
(140,499,o),
(197,499,cs),
(254,499,o),
(284,452,o),
(284,364,cs),
(284,64,l),
(253,51,l),
(253,0,l),
(471,0,ls),
(524,0,o),
(550,31,o),
(550,95,cs),
(550,555,l),
(473,555,l),
(473,108,ls),
(473,77,o),
(463,65,o),
(439,65,cs),
(361,65,l),
(361,369,ls),
(361,500,o),
(307,566,o),
(198,566,cs),
(96,566,o),
(35,494,o),
(35,375,cs),
(35,362,l),
(119,323,l),
(119,320,l),
(72,302,o),
(49,256,o),
(49,180,cs),
(49,102,ls),
(49,33,o),
(79,-7,o),
(130,-7,cs)
);
},
{
closed = 1;
nodes = (
(111,37,o),
(101,55,o),
(101,87,cs),
(101,119,o),
(111,137,o),
(129,137,cs),
(147,137,o),
(157,119,o),
(157,87,cs),
(157,55,o),
(147,37,o),
(129,37,cs)
);
}
);
width = 606;
}
);
metricLeft = "thoThung-thai";
metricRight = "boBaimai-thai";
},
{
glyphname = "doChada-thai";
kernLeft = "phoSamphao-thai";
kernRight = "koKai-thai";
lastChange = "2022-10-15 12:38:20 +0000";
layers = (
{
anchors = (
{
name = bottom;
pos = (606,-240);
},
{
name = top;
pos = (596,563);
}
);
layerId = "EB3A5D6C-8260-43A6-9EF2-63971FC08D48";
shapes = (
{
closed = 1;
nodes = (
(289,-250,o),
(348,-196,o),
(348,-126,c),
(268,-94,l),
(268,-137,o),
(243,-172,o),
(212,-172,cs),
(190,-172,o),
(173,-157,o),
(173,-136,cs),
(173,-112,o),
(192,-96,o),
(220,-96,cs),
(250,-96,o),
(291,-114,o),
(339,-148,cs),
(377,-175,o),
(406,-203,o),
(439,-240,c),
(606,-240,l),
(606,334,ls),
(606,501,o),
(518,578,o),
(326,578,cs),
(157,578,o),
(50,493,o),
(50,360,cs),
(50,344,l),
(178,310,l),
(178,306,l),
(139,292,o),
(119,272,o),
(119,248,cs),
(119,245,ls),
(119,235,o),
(123,219,o),
(129,202,c),
(164,210,o),
(202,189,o),
(214,154,c),
(231,154,l),
(228,201,o),
(188,231,o),
(129,231,cs),
(63,231,o),
(17,187,o),
(17,124,cs),
(17,56,o),
(68,12,o),
(148,12,cs),
(236,12,o),
(290,64,o),
(290,149,cs),
(290,223,ls),
(290,251,o),
(301,263,o),
(332,266,c),
(342,344,l),
(153,415,l),
(225,334,l),
(225,358,ls),
(225,408,o),
(261,438,o),
(322,438,cs),
(388,438,o),
(420,402,o),
(420,329,cs),
(420,26,ls),
(420,-42,o),
(422,-69,o),
(431,-107,c),
(427,-107,l),
(400,-78,o),
(368,-59,o),
(332,-52,c),
(292,-27,o),
(253,-15,o),
(215,-15,cs),
(136,-15,o),
(82,-65,o),
(82,-139,cs),
(82,-204,o),
(136,-250,o),
(211,-250,cs)
);
},
{
closed = 1;
nodes = (
(114,85,o),
(98,99,o),
(98,124,cs),
(98,149,o),
(114,163,o),
(140,163,cs),
(166,163,o),
(182,149,o),
(182,124,cs),
(182,99,o),
(166,85,o),
(140,85,cs)
);
},
{
closed = 1;
nodes = (
(368,-50,o),
(371,-28,o),
(372,10,c),
(273,10,l),
(273,-15,o),
(271,-43,o),
(268,-70,c),
(358,-93,l)
);
}
);
userData = {
com.schriftgestaltung.Glyphs.glyph.leftMetricsKey = "phoSamphao-thai";
com.schriftgestaltung.Glyphs.glyph.rightMetricsKey = "khoKhwai-thai";
};
width = 678;
},
{
anchors = (
{
name = bottom;
pos = (496,-232);
},
{
name = top;
pos = (486,550);
}
);
layerId = "90A34054-68E4-499D-AE50-276C7B026D8B";
shapes = (
{
closed = 1;
nodes = (
(264,-237,o),
(307,-189,o),
(321,-103,c),
(297,-95,l),
(290,-170,o),
(254,-215,o),
(201,-215,cs),
(161,-215,o),
(133,-189,o),
(133,-152,cs),
(133,-111,o),
(165,-85,o),
(215,-85,cs),
(245,-85,o),
(273,-92,o),
(309,-109,cs),
(371,-138,o),
(428,-181,o),
(471,-232,c),
(496,-232,l),
(496,382,ls),
(496,496,o),
(425,558,o),
(297,558,cs),
(166,558,o),
(84,491,o),
(84,384,cs),
(84,373,l),
(223,335,l),
(223,332,l),
(173,315,o),
(154,281,o),
(154,206,cs),
(154,159,ls),
(154,144,o),
(156,130,o),
(159,118,c),
(164,112,o),
(166,104,o),
(167,96,c),
(172,96,l),
(168,131,o),
(138,156,o),
(99,156,cs),
(53,156,o),
(21,124,o),
(21,78,cs),
(21,32,o),
(54,0,o),
(100,0,cs),
(148,0,o),
(179,33,o),
(179,82,cs),
(179,206,ls),
(179,283,o),
(194,307,o),
(255,323,c),
(258,344,l),
(98,392,l),
(109,377,l),
(109,384,ls),
(109,478,o),
(179,535,o),
(297,535,cs),
(412,535,o),
(471,482,o),
(471,377,cs),
(471,-14,ls),
(471,-82,o),
(471,-112,o),
(473,-196,c),
(470,-196,l),
(421,-149,o),
(366,-110,o),
(314,-87,c),
(279,-70,o),
(248,-63,o),
(212,-63,cs),
(151,-63,o),
(109,-99,o),
(109,-152,cs),
(109,-202,o),
(147,-237,o),
(201,-237,cs)
);
},
{
closed = 1;
nodes = (
(66,22,o),
(45,44,o),
(45,78,cs),
(45,112,o),
(66,134,o),
(100,134,cs),
(134,134,o),
(155,112,o),
(155,78,cs),
(155,44,o),
(134,22,o),
(100,22,cs)
);
},
{
closed = 1;
nodes = (
(327,-53,o),
(328,-26,o),
(328,0,c),
(303,0,l),
(303,-44,o),
(302,-67,o),
(299,-87,c),
(323,-96,l)
);
}
);
width = 591;
},
{
anchors = (
{
name = bottom;
pos = (543,-235);
},
{
name = top;
pos = (533,555);
}
);
hints = (
{
horizontal = 1;
origin = (0,83);
target = (0,6);
type = Stem;
},
{
horizontal = 1;
origin = (0,23);
target = (0,63);
type = Stem;
},
{
origin = (0,67);
target = (0,19);
type = Stem;
},
{
origin = (0,33);
target = (0,52);
type = Stem;
}
);
layerId = "9148514D-BEB8-4275-B264-8F51401A425F";
shapes = (
{
closed = 1;
nodes = (
(278,-242,o),
(328,-191,o),
(336,-112,c),
(278,-94,l),
(275,-151,o),
(247,-188,o),
(208,-188,cs),
(180,-188,o),
(160,-170,o),
(160,-146,cs),
(160,-114,o),
(181,-97,o),
(220,-97,cs),
(247,-97,o),
(279,-105,o),
(309,-118,cs),
(353,-138,o),
(407,-180,o),
(460,-235,c),
(543,-235,l),
(543,363,ls),
(543,498,o),
(466,566,o),
(312,566,cs),
(164,566,o),
(70,492,o),
(70,374,cs),
(70,361,l),
(206,321,l),
(206,317,l),
(154,301,o),
(136,274,o),
(136,215,cs),
(136,201,ls),
(136,189,o),
(138,174,o),
(143,155,c),
(170,151,o),
(189,134,o),
(190,113,c),
(200,113,l),
(200,159,o),
(167,190,o),
(118,190,cs),
(62,190,o),
(22,151,o),
(22,95,cs),
(22,37,o),
(61,0,o),
(121,0,cs),
(189,0,o),
(226,39,o),
(226,108,cs),
(226,213,ls),
(226,264,o),
(240,284,o),
(287,296,c),
(293,350,l),
(120,411,l),
(156,360,l),
(156,374,ls),
(156,451,o),
(214,498,o),
(310,498,cs),
(404,498,o),
(453,451,o),
(453,358,cs),
(453,2,ls),
(453,-70,o),
(455,-123,o),
(458,-160,c),
(455,-160,l),
(414,-119,o),
(369,-88,o),
(324,-70,c),
(288,-52,o),
(253,-43,o),
(215,-43,cs),
(146,-43,o),
(99,-85,o),
(99,-146,cs),
(99,-201,o),
(145,-242,o),
(207,-242,cs)
);
},
{
closed = 1;
nodes = (
(94,51,o),
(78,67,o),
(78,94,cs),
(78,121,o),
(94,137,o),
(122,137,cs),
(150,137,o),
(166,121,o),
(166,94,cs),
(166,67,o),
(150,51,o),
(122,51,cs)
);
},
{
closed = 1;
nodes = (
(346,-61,o),
(348,-32,o),
(348,0,c),
(283,0,l),
(283,-30,o),
(282,-57,o),
(279,-80,c),
(340,-94,l)
);
}
);
width = 629;
},
{
anchors = (
{
name = bottom;
pos = (323,-232);
},
{
name = top;
pos = (317,550);
}
);
layerId = "54E3FB14-E6D2-4DF3-BA4A-5621168F9335";
shapes = (
{
closed = 1;
nodes = (
(174,-237,o),
(201,-190,o),
(207,-103,c),
(187,-95,l),
(183,-169,o),
(162,-216,o),
(133,-216,cs),
(109,-216,o),
(91,-189,o),
(91,-152,cs),
(91,-111,o),
(109,-85,o),
(138,-85,cs),
(157,-85,o),
(175,-92,o),
(197,-109,cs),
(235,-138,o),
(272,-185,o),
(296,-232,c),
(323,-232,l),
(323,391,ls),
(323,497,o),
(274,558,o),
(189,558,cs),
(100,558,o),
(50,495,o),
(50,384,cs),
(50,373,l),
(138,335,l),
(138,332,l),
(107,315,o),
(95,280,o),
(95,206,cs),
(95,159,ls),
(95,144,o),
(96,129,o),
(99,118,c),
(104,110,o),
(106,103,o),
(106,96,c),
(109,96,l),
(107,134,o),
(91,156,o),
(65,156,cs),
(32,156,o),
(13,128,o),
(13,78,cs),
(13,28,o),
(32,0,o),
(66,0,cs),
(100,0,o),
(120,30,o),
(120,82,cs),
(120,206,ls),
(120,283,o),
(129,307,o),
(165,323,c),
(168,344,l),
(64,392,l),
(75,377,l),
(75,384,ls),
(75,481,o),
(116,535,o),
(189,535,cs),
(260,535,o),
(298,483,o),
(298,387,cs),
(298,-14,ls),
(298,-68,o),
(299,-149,o),
(300,-194,c),
(298,-194,l),
(269,-149,o),
(236,-112,o),
(201,-86,c),
(176,-70,o),
(157,-63,o),
(136,-63,cs),
(96,-63,o),
(68,-99,o),
(68,-152,cs),
(68,-201,o),
(95,-237,o),
(131,-237,cs)
);
},
{
closed = 1;
nodes = (
(47,22,o),
(36,42,o),
(36,78,cs),
(36,114,o),
(47,134,o),
(65,134,cs),
(85,134,o),
(96,114,o),
(96,78,cs),
(96,42,o),
(85,22,o),
(65,22,cs)
);
},
{
closed = 1;
nodes = (
(211,-72,o),
(212,-36,o),
(212,0,c),
(191,0,l),
(191,-30,o),
(190,-61,o),
(188,-87,c),
(208,-96,l)
);
}
);
width = 383;
},
{
anchors = (
{
name = bottom;
pos = (465,-240);
},
{
name = top;
pos = (459,563);
}
);
layerId = "E703E12A-5DA7-48FA-B69F-BB282FBD8E56";
shapes = (
{
closed = 1;
nodes = (
(219,-250,o),
(264,-196,o),
(263,-126,c),
(199,-94,l),
(201,-136,o),
(183,-172,o),
(160,-172,cs),
(144,-172,o),
(132,-157,o),
(132,-136,cs),
(132,-113,o),
(146,-96,o),
(165,-96,cs),
(188,-96,o),
(226,-117,o),
(259,-148,cs),
(281,-168,o),
(302,-197,o),
(326,-240,c),
(465,-240,l),
(465,334,ls),
(465,503,o),
(398,578,o),
(247,578,cs),
(117,578,o),
(34,493,o),
(34,360,cs),
(34,344,l),
(129,310,l),
(129,306,l),
(99,292,o),
(86,274,o),
(86,248,cs),
(86,245,ls),
(86,237,o),
(89,222,o),
(94,202,c),
(122,210,o),
(154,189,o),
(165,154,c),
(179,154,l),
(176,199,o),
(143,231,o),
(99,231,cs),
(48,231,o),
(12,187,o),
(12,124,cs),
(12,56,o),
(53,12,o),
(116,12,cs),
(185,12,o),
(229,66,o),
(229,149,cs),
(229,223,ls),
(229,250,o),
(237,262,o),
(257,266,c),
(265,344,l),
(121,415,l),
(182,334,l),
(182,360,ls),
(182,410,o),
(204,438,o),
(244,438,cs),
(288,438,o),
(309,404,o),
(309,331,cs),
(309,26,ls),
(309,-41,o),
(311,-70,o),
(319,-107,c),
(316,-107,l),
(295,-77,o),
(273,-59,o),
(250,-52,c),
(221,-28,o),
(190,-15,o),
(161,-15,cs),
(101,-15,o),
(59,-66,o),
(59,-139,cs),
(59,-203,o),
(101,-250,o),
(159,-250,cs)
);
},
{
closed = 1;
nodes = (
(89,85,o),
(77,100,o),
(77,124,cs),
(77,148,o),
(89,163,o),
(108,163,cs),
(127,163,o),
(139,148,o),
(139,124,cs),
(139,100,o),
(127,85,o),
(108,85,cs)
);
},
{
closed = 1;
nodes = (
(279,-54,o),
(282,-29,o),
(283,10,c),
(203,10,l),
(203,-14,o),
(201,-48,o),
(199,-70,c),
(272,-93,l)
);
}
);
userData = {
com.schriftgestaltung.Glyphs.glyph.leftMetricsKey = "phoSamphao-thai";
com.schriftgestaltung.Glyphs.glyph.rightMetricsKey = "khoKhwai-thai";
};
width = 511;
},
{
anchors = (
{
name = bottom;
pos = (382,-235);
},
{
name = top;
pos = (376,555);
}
);
layerId = "94F80E8F-7C96-497F-B870-569C37B7A2A5";
shapes = (
{
closed = 1;
nodes = (
(196,-242,o),
(229,-193,o),
(232,-112,c),
(195,-91,l),
(193,-156,o),
(173,-199,o),
(146,-199,cs),
(126,-199,o),
(110,-176,o),
(110,-146,cs),
(110,-112,o),
(127,-89,o),
(151,-89,cs),
(171,-89,o),
(196,-101,o),
(224,-124,cs),
(257,-151,o),
(287,-190,o),
(311,-235,c),
(382,-235,l),
(382,369,ls),
(382,500,o),
(326,566,o),
(215,566,cs),
(110,566,o),
(47,495,o),
(47,375,cs),
(47,362,l),
(137,325,l),
(137,322,l),
(104,303,o),
(94,279,o),
(94,223,cs),
(94,204,ls),
(94,192,o),
(96,175,o),
(99,168,c),
(113,168,o),
(126,149,o),
(132,119,c),
(139,119,l),
(137,159,o),
(114,186,o),
(81,186,cs),
(41,186,o),
(15,150,o),
(15,96,cs),
(15,39,o),
(43,5,o),
(89,5,cs),
(139,5,o),
(171,45,o),
(171,108,cs),
(171,215,ls),
(171,276,o),
(176,290,o),
(204,301,c),
(209,344,l),
(89,401,l),
(120,360,l),
(120,374,ls),
(120,453,o),
(154,499,o),
(213,499,cs),
(273,499,o),
(305,452,o),
(305,364,cs),
(305,2,ls),
(305,-65,o),
(307,-122,o),
(310,-160,c),
(308,-160,l),
(285,-124,o),
(256,-92,o),
(223,-73,c),
(198,-53,o),
(174,-44,o),
(149,-44,cs),
(100,-44,o),
(67,-86,o),
(67,-147,cs),
(67,-202,o),
(100,-242,o),
(145,-242,cs)
);
},
{
closed = 1;
nodes = (
(70,46,o),
(60,64,o),
(60,96,cs),
(60,128,o),
(70,146,o),
(88,146,cs),
(106,146,o),
(116,128,o),
(116,96,cs),
(116,64,o),
(106,46,o),
(88,46,cs)
);
},
{
closed = 1;
nodes = (
(240,-72,o),
(243,-31,o),
(243,4,c),
(197,4,l),
(197,-18,o),
(196,-41,o),
(195,-75,c),
(236,-95,l)
);
}
);
width = 438;
}
);
metricLeft = "phoSamphao-thai";
metricRight = "koKai-thai";
unicode = 3598;
},
{
glyphname = "doChada-thai.short";
kernLeft = "phoSamphao-thai";
kernRight = "koKai-thai";
lastChange = "2022-10-15 12:38:22 +0000";
layers = (
{
anchors = (
{
name = bottom;
pos = (606,-190);
},
{
name = top;
pos = (596,563);
}
);
layerId = "EB3A5D6C-8260-43A6-9EF2-63971FC08D48";
shapes = (
{
closed = 1;
nodes = (
(287,-200,o),
(348,-150,o),
(348,-86,c),
(268,-54,l),
(268,-94,o),
(242,-128,o),
(210,-128,cs),
(188,-128,o),
(173,-115,o),
(173,-96,cs),
(173,-74,o),
(191,-60,o),
(218,-60,cs),
(249,-60,o),
(300,-80,o),
(339,-108,cs),
(398,-150,o),
(418,-167,o),
(439,-190,c),
(606,-190,l),
(606,334,ls),
(606,501,o),
(518,578,o),
(326,578,cs),
(157,578,o),
(50,493,o),
(50,360,cs),
(50,344,l),
(178,310,l),
(178,306,l),
(136,293,o),
(119,278,o),
(119,253,cs),
(119,250,ls),
(119,243,o),
(123,234,o),
(129,223,c),
(164,231,o),
(202,210,o),
(214,175,c),
(231,175,l),
(228,222,o),
(188,252,o),
(129,252,cs),
(63,252,o),
(17,208,o),
(17,145,cs),
(17,77,o),
(68,33,o),
(148,33,cs),
(236,33,o),
(290,85,o),
(290,170,cs),
(290,223,ls),
(290,251,o),
(301,263,o),
(332,266,c),
(342,344,l),
(153,415,l),
(225,334,l),
(225,358,ls),
(225,408,o),
(261,438,o),
(322,438,cs),
(388,438,o),
(420,402,o),
(420,329,cs),
(420,46,ls),
(420,-14,o),
(422,-40,o),
(431,-77,c),
(427,-77,l),
(400,-48,o),
(368,-29,o),
(332,-22,c),
(291,3,o),
(251,15,o),
(205,15,cs),
(133,15,o),
(82,-29,o),
(82,-93,cs),
(82,-156,o),
(134,-200,o),
(209,-200,cs)
);
},
{
closed = 1;
nodes = (
(114,106,o),
(98,120,o),
(98,145,cs),
(98,170,o),
(114,184,o),
(140,184,cs),
(166,184,o),
(182,170,o),
(182,145,cs),
(182,120,o),
(166,106,o),
(140,106,cs)
);
},
{
closed = 1;
nodes = (
(368,-20,o),
(371,2,o),
(372,40,c),
(273,40,l),
(273,15,o),
(271,-13,o),
(268,-40,c),
(358,-63,l)
);
}
);
userData = {
com.schriftgestaltung.Glyphs.glyph.rightMetricsKey = "khoKhwai-thai";
};
width = 678;
},
{
anchors = (
{
name = bottom;
pos = (496,-190);
},
{
name = top;
pos = (486,550);
}
);
layerId = "90A34054-68E4-499D-AE50-276C7B026D8B";
shapes = (
{
closed = 1;
nodes = (
(262,-195,o),
(307,-145,o),
(322,-61,c),
(300,-53,l),
(287,-131,o),
(252,-173,o),
(201,-173,cs),
(161,-173,o),
(134,-147,o),
(134,-110,cs),
(134,-68,o),
(165,-43,o),
(215,-43,cs),
(243,-43,o),
(275,-51,o),
(309,-67,cs),
(366,-92,o),
(429,-140,o),
(471,-190,c),
(496,-190,l),
(496,382,ls),
(496,496,o),
(425,558,o),
(297,558,cs),
(165,558,o),
(84,491,o),
(84,384,cs),
(84,373,l),
(223,335,l),
(223,332,l),
(173,315,o),
(154,281,o),
(154,206,cs),
(154,184,ls),
(154,170,o),
(156,156,o),
(159,143,c),
(163,137,o),
(166,130,o),
(167,121,c),
(171,121,l),
(167,157,o),
(137,181,o),
(99,181,cs),
(53,181,o),
(21,149,o),
(21,103,cs),
(21,57,o),
(54,25,o),
(100,25,cs),
(148,25,o),
(179,58,o),
(179,107,cs),
(179,206,ls),
(179,283,o),
(194,307,o),
(255,323,c),
(258,344,l),
(98,392,l),
(109,377,l),
(109,384,ls),
(109,478,o),
(179,535,o),
(297,535,cs),
(412,535,o),
(471,482,o),
(471,377,cs),
(471,28,ls),
(471,-15,o),
(472,-91,o),
(473,-154,c),
(470,-154,l),
(421,-107,o),
(366,-68,o),
(314,-45,c),
(277,-29,o),
(242,-21,o),
(211,-21,cs),
(150,-21,o),
(109,-57,o),
(109,-110,cs),
(109,-160,o),
(147,-195,o),
(201,-195,cs)
);
},
{
closed = 1;
nodes = (
(66,47,o),
(45,69,o),
(45,103,cs),
(45,137,o),
(66,159,o),
(100,159,cs),
(134,159,o),
(155,137,o),
(155,103,cs),
(155,69,o),
(134,47,o),
(100,47,cs)
);
},
{
closed = 1;
nodes = (
(326,-21,o),
(328,4,o),
(328,25,c),
(306,25,l),
(306,-8,o),
(305,-28,o),
(302,-45,c),
(323,-54,l)
);
}
);
width = 591;
},
{
anchors = (
{
name = bottom;
pos = (543,-190);
},
{
name = top;
pos = (533,555);
}
);
hints = (
{
horizontal = 1;
origin = (0,23);
target = (0,63);
type = Stem;
},
{
origin = (0,67);
target = (0,19);
type = Stem;
},
{
horizontal = 1;
origin = (0,83);
target = (0,6);
type = Stem;
},
{
origin = (0,33);
target = (0,52);
type = Stem;
}
);
layerId = "9148514D-BEB8-4275-B264-8F51401A425F";
shapes = (
{
closed = 1;
nodes = (
(278,-197,o),
(328,-146,o),
(336,-67,c),
(278,-49,l),
(275,-106,o),
(247,-143,o),
(208,-143,cs),
(180,-143,o),
(160,-125,o),
(160,-101,cs),
(160,-69,o),
(181,-52,o),
(220,-52,cs),
(246,-52,o),
(278,-60,o),
(309,-73,cs),
(353,-93,o),
(407,-135,o),
(460,-190,c),
(543,-190,l),
(543,363,ls),
(543,498,o),
(466,566,o),
(312,566,cs),
(164,566,o),
(70,492,o),
(70,374,cs),
(70,361,l),
(206,321,l),
(206,317,l),
(160,303,o),
(136,276,o),
(136,240,cs),
(136,236,ls),
(136,218,o),
(138,203,o),
(143,183,c),
(170,179,o),
(189,162,o),
(190,141,c),
(200,141,l),
(200,187,o),
(167,218,o),
(118,218,cs),
(62,218,o),
(22,179,o),
(22,123,cs),
(22,65,o),
(61,28,o),
(121,28,cs),
(189,28,o),
(226,67,o),
(226,136,cs),
(226,237,ls),
(226,267,o),
(245,285,o),
(287,296,c),
(293,350,l),
(120,411,l),
(156,360,l),
(156,374,ls),
(156,451,o),
(214,498,o),
(310,498,cs),
(404,498,o),
(453,451,o),
(453,358,cs),
(453,47,ls),
(453,-19,o),
(455,-74,o),
(458,-115,c),
(455,-115,l),
(414,-74,o),
(369,-43,o),
(324,-25,c),
(287,-7,o),
(252,2,o),
(215,2,cs),
(146,2,o),
(99,-40,o),
(99,-101,cs),
(99,-156,o),
(145,-197,o),
(207,-197,cs)
);
},
{
closed = 1;
nodes = (
(94,79,o),
(78,95,o),
(78,122,cs),
(78,149,o),
(94,165,o),
(122,165,cs),
(150,165,o),
(166,149,o),
(166,122,cs),
(166,95,o),
(150,79,o),
(122,79,cs)
);
},
{
closed = 1;
nodes = (
(346,-25,o),
(348,-1,o),
(348,28,c),
(283,28,l),
(283,1,o),
(282,-18,o),
(279,-35,c),
(340,-49,l)
);
}
);
width = 629;
},
{
anchors = (
{
name = bottom;
pos = (323,-190);
},
{
name = top;
pos = (317,550);
}
);
layerId = "54E3FB14-E6D2-4DF3-BA4A-5621168F9335";
shapes = (
{
closed = 1;
nodes = (
(175,-195,o),
(201,-148,o),
(207,-61,c),
(187,-53,l),
(183,-126,o),
(162,-174,o),
(134,-174,cs),
(109,-174,o),
(91,-147,o),
(91,-110,cs),
(91,-69,o),
(109,-43,o),
(138,-43,cs),
(157,-43,o),
(175,-50,o),
(197,-67,cs),
(234,-95,o),
(271,-142,o),
(296,-190,c),
(323,-190,l),
(323,391,ls),
(323,497,o),
(274,558,o),
(189,558,cs),
(100,558,o),
(50,495,o),
(50,384,cs),
(50,373,l),
(138,335,l),
(138,332,l),
(107,315,o),
(95,280,o),
(95,206,cs),
(95,184,ls),
(95,167,o),
(96,153,o),
(99,143,c),
(104,135,o),
(106,128,o),
(106,121,c),
(109,121,l),
(107,159,o),
(91,181,o),
(65,181,cs),
(32,181,o),
(13,153,o),
(13,103,cs),
(13,53,o),
(32,25,o),
(66,25,cs),
(100,25,o),
(120,55,o),
(120,107,cs),
(120,206,ls),
(120,283,o),
(129,307,o),
(165,323,c),
(168,344,l),
(64,392,l),
(75,377,l),
(75,384,ls),
(75,481,o),
(116,535,o),
(189,535,cs),
(260,535,o),
(298,483,o),
(298,387,cs),
(298,28,ls),
(298,-22,o),
(299,-103,o),
(300,-152,c),
(298,-152,l),
(269,-107,o),
(236,-70,o),
(201,-44,c),
(176,-28,o),
(157,-21,o),
(136,-21,cs),
(96,-21,o),
(68,-57,o),
(68,-110,cs),
(68,-159,o),
(95,-195,o),
(132,-195,cs)
);
},
{
closed = 1;
nodes = (
(47,47,o),
(36,67,o),
(36,103,cs),
(36,139,o),
(47,159,o),
(66,159,cs),
(85,159,o),
(96,139,o),
(96,103,cs),
(96,67,o),
(85,47,o),
(66,47,cs)
);
},
{
closed = 1;
nodes = (
(211,-36,o),
(212,-11,o),
(212,25,c),
(191,25,l),
(191,-9,o),
(190,-27,o),
(188,-45,c),
(208,-54,l)
);
}
);
width = 383;
},
{
anchors = (
{
name = bottom;
pos = (465,-190);
},
{
name = top;
pos = (459,563);
}
);
layerId = "E703E12A-5DA7-48FA-B69F-BB282FBD8E56";
shapes = (
{
closed = 1;
nodes = (
(218,-200,o),
(264,-150,o),
(263,-86,c),
(199,-54,l),
(200,-94,o),
(181,-128,o),
(158,-128,cs),
(143,-128,o),
(132,-115,o),
(132,-96,cs),
(132,-75,o),
(145,-60,o),
(163,-60,cs),
(188,-60,o),
(230,-81,o),
(259,-108,cs),
(291,-138,o),
(310,-162,o),
(326,-190,c),
(465,-190,l),
(465,334,ls),
(465,503,o),
(398,578,o),
(247,578,cs),
(117,578,o),
(34,493,o),
(34,360,cs),
(34,344,l),
(129,310,l),
(129,306,l),
(100,293,o),
(86,274,o),
(86,249,cs),
(86,246,ls),
(86,239,o),
(89,229,o),
(94,223,c),
(122,231,o),
(154,210,o),
(165,175,c),
(179,175,l),
(176,220,o),
(143,252,o),
(99,252,cs),
(48,252,o),
(12,208,o),
(12,145,cs),
(12,77,o),
(53,33,o),
(116,33,cs),
(185,33,o),
(229,87,o),
(229,170,cs),
(229,223,ls),
(229,250,o),
(237,262,o),
(257,266,c),
(265,344,l),
(121,415,l),
(182,334,l),
(182,360,ls),
(182,410,o),
(204,438,o),
(244,438,cs),
(288,438,o),
(309,404,o),
(309,331,cs),
(309,46,ls),
(309,-6,o),
(312,-38,o),
(319,-77,c),
(316,-77,l),
(295,-47,o),
(273,-29,o),
(250,-22,c),
(219,3,o),
(188,15,o),
(152,15,cs),
(98,15,o),
(59,-30,o),
(59,-93,cs),
(59,-156,o),
(99,-200,o),
(157,-200,cs)
);
},
{
closed = 1;
nodes = (
(89,106,o),
(77,121,o),
(77,145,cs),
(77,169,o),
(89,184,o),
(108,184,cs),
(127,184,o),
(139,169,o),
(139,145,cs),
(139,121,o),
(127,106,o),
(108,106,cs)
);
},
{
closed = 1;
nodes = (
(279,-24,o),
(282,1,o),
(283,40,c),
(203,40,l),
(203,16,o),
(201,-18,o),
(199,-40,c),
(272,-63,l)
);
}
);
userData = {
com.schriftgestaltung.Glyphs.glyph.rightMetricsKey = "khoKhwai-thai";
};
width = 511;
},
{
anchors = (
{
name = bottom;
pos = (382,-190);
},
{
name = top;
pos = (376,555);
}
);
layerId = "94F80E8F-7C96-497F-B870-569C37B7A2A5";
shapes = (
{
closed = 1;
nodes = (
(197,-197,o),
(230,-148,o),
(233,-68,c),
(195,-53,l),
(193,-114,o),
(173,-155,o),
(146,-155,cs),
(125,-155,o),
(110,-134,o),
(110,-104,cs),
(110,-72,o),
(126,-50,o),
(151,-50,cs),
(173,-50,o),
(201,-63,o),
(224,-83,cs),
(256,-110,o),
(287,-149,o),
(311,-190,c),
(382,-190,l),
(382,369,ls),
(382,500,o),
(326,566,o),
(215,566,cs),
(110,566,o),
(47,495,o),
(47,375,cs),
(47,362,l),
(137,325,l),
(137,322,l),
(103,304,o),
(95,273,o),
(95,241,cs),
(95,227,ls),
(95,211,o),
(97,197,o),
(99,191,c),
(113,191,o),
(126,172,o),
(132,142,c),
(139,142,l),
(137,182,o),
(114,209,o),
(81,209,cs),
(41,209,o),
(15,173,o),
(15,119,cs),
(15,62,o),
(43,28,o),
(89,28,cs),
(139,28,o),
(171,68,o),
(171,131,cs),
(171,214,ls),
(171,276,o),
(176,290,o),
(204,301,c),
(209,344,l),
(89,401,l),
(120,360,l),
(120,374,ls),
(120,453,o),
(154,499,o),
(213,499,cs),
(273,499,o),
(305,452,o),
(305,364,cs),
(305,35,ls),
(305,-22,o),
(307,-80,o),
(310,-122,c),
(308,-122,l),
(283,-83,o),
(254,-53,o),
(223,-35,c),
(192,-16,o),
(168,-7,o),
(145,-7,cs),
(99,-7,o),
(67,-47,o),
(67,-103,cs),
(67,-158,o),
(99,-197,o),
(145,-197,cs)
);
},
{
closed = 1;
nodes = (
(70,69,o),
(60,87,o),
(60,119,cs),
(60,151,o),
(70,169,o),
(88,169,cs),
(106,169,o),
(116,151,o),
(116,119,cs),
(116,87,o),
(106,69,o),
(88,69,cs)
);
},
{
closed = 1;
nodes = (
(240,-25,o),
(242,-2,o),
(243,31,c),
(199,31,l),
(199,-7,o),
(198,-28,o),
(195,-43,c),
(236,-58,l)
);
}
);
width = 438;
}
);
metricLeft = "phoSamphao-thai";
metricRight = "koKai-thai";
},
{
glyphname = "toPatak-thai";
kernLeft = "phoSamphao-thai";
kernRight = "koKai-thai";
lastChange = "2022-09-01 04:16:00 +0000";
layers = (
{
anchors = (
{
name = bottom;
pos = (606,-240);
},
{
name = top;
pos = (596,563);
}
);
layerId = "EB3A5D6C-8260-43A6-9EF2-63971FC08D48";
shapes = (
{
closed = 1;
nodes = (
(217,-250,o),
(264,-206,o),
(280,-128,c),
(202,-91,l),
(190,-146,o),
(172,-169,o),
(144,-169,cs),
(123,-169,o),
(109,-156,o),
(109,-137,cs),
(109,-114,o),
(126,-100,o),
(155,-100,cs),
(216,-100,o),
(276,-149,o),
(306,-240,c),
(353,-240,l),
(377,-180,l),
(381,-180,l),
(435,-240,l),
(606,-240,l),
(606,334,ls),
(606,501,o),
(518,578,o),
(326,578,cs),
(157,578,o),
(50,493,o),
(50,360,cs),
(50,344,l),
(178,310,l),
(178,306,l),
(139,292,o),
(119,272,o),
(119,248,cs),
(119,245,ls),
(119,234,o),
(123,218,o),
(129,202,c),
(164,210,o),
(202,189,o),
(214,154,c),
(231,154,l),
(228,201,o),
(188,231,o),
(129,231,cs),
(63,231,o),
(17,187,o),
(17,124,cs),
(17,56,o),
(68,12,o),
(148,12,cs),
(236,12,o),
(290,64,o),
(290,149,cs),
(290,223,ls),
(290,251,o),
(301,263,o),
(332,266,c),
(342,344,l),
(153,415,l),
(225,334,l),
(225,358,ls),
(225,408,o),
(261,438,o),
(322,438,cs),
(388,438,o),
(420,402,o),
(420,329,cs),
(420,18,ls),
(420,-59,o),
(422,-86,o),
(431,-125,c),
(427,-125,l),
(384,-76,l),
(334,-76,l),
(317,-125,l),
(313,-125,l),
(276,-57,o),
(224,-25,o),
(153,-25,cs),
(75,-25,o),
(27,-68,o),
(27,-136,cs),
(27,-203,o),
(77,-250,o),
(149,-250,cs)
);
},
{
closed = 1;
nodes = (
(114,85,o),
(98,99,o),
(98,124,cs),
(98,149,o),
(114,163,o),
(140,163,cs),
(166,163,o),
(182,149,o),
(182,124,cs),
(182,99,o),
(166,85,o),
(140,85,cs)
);
},
{
closed = 1;
nodes = (
(299,-71,o),
(307,-32,o),
(309,0,c),
(213,0,l),
(212,-19,o),
(208,-43,o),
(202,-67,c),
(289,-106,l)
);
}
);
userData = {
com.schriftgestaltung.Glyphs.glyph.leftMetricsKey = "phoSamphao-thai";
com.schriftgestaltung.Glyphs.glyph.rightMetricsKey = "khoKhwai-thai";
};
width = 678;
},
{
anchors = (
{
name = bottom;
pos = (496,-232);
},
{
name = top;
pos = (486,550);
}
);
layerId = "90A34054-68E4-499D-AE50-276C7B026D8B";
shapes = (
{
closed = 1;
nodes = (
(236,-237,o),
(277,-196,o),
(293,-125,c),
(274,-111,l),
(259,-179,o),
(227,-215,o),
(181,-215,cs),
(140,-215,o),
(113,-190,o),
(113,-152,cs),
(113,-113,o),
(143,-85,o),
(187,-85,cs),
(254,-85,o),
(309,-140,o),
(334,-232,c),
(361,-232,l),
(398,-123,l),
(402,-123,l),
(460,-232,l),
(496,-232,l),
(496,382,ls),
(496,496,o),
(425,558,o),
(297,558,cs),
(166,558,o),
(84,491,o),
(84,384,cs),
(84,373,l),
(223,335,l),
(223,332,l),
(173,315,o),
(154,281,o),
(154,206,cs),
(154,159,ls),
(154,144,o),
(156,130,o),
(159,118,c),
(164,112,o),
(166,104,o),
(167,96,c),
(172,96,l),
(168,131,o),
(138,156,o),
(99,156,cs),
(53,156,o),
(21,124,o),
(21,78,cs),
(21,32,o),
(54,0,o),
(100,0,cs),
(148,0,o),
(179,33,o),
(179,82,cs),
(179,206,ls),
(179,283,o),
(194,307,o),
(255,323,c),
(258,344,l),
(98,392,l),
(109,377,l),
(109,384,ls),
(109,478,o),
(179,535,o),
(297,535,cs),
(412,535,o),
(471,482,o),
(471,377,cs),
(471,-62,ls),
(471,-112,o),
(472,-139,o),
(474,-209,c),
(470,-209,l),
(410,-97,l),
(386,-97,l),
(350,-205,l),
(346,-205,l),
(323,-120,o),
(259,-63,o),
(187,-63,cs),
(129,-63,o),
(89,-99,o),
(89,-152,cs),
(89,-202,o),
(127,-237,o),
(181,-237,cs)
);
},
{
closed = 1;
nodes = (
(66,22,o),
(45,44,o),
(45,78,cs),
(45,112,o),
(66,134,o),
(100,134,cs),
(134,134,o),
(155,112,o),
(155,78,cs),
(155,44,o),
(134,22,o),
(100,22,cs)
);
},
{
closed = 1;
nodes = (
(308,-75,o),
(312,-42,o),
(311,0,c),
(286,0,l),
(287,-49,o),
(285,-75,o),
(276,-104,c),
(297,-119,l)
);
}
);
width = 591;
},
{
anchors = (
{
name = bottom;
pos = (543,-235);
},
{
name = top;
pos = (533,555);
}
);
hints = (
{
horizontal = 1;
origin = (0,23);
target = (0,63);
type = Stem;
},
{
origin = (0,34);
target = (0,53);
type = Stem;
},
{
origin = (0,68);
target = (0,20);
type = Stem;
},
{
horizontal = 1;
origin = (0,85);
target = (0,6);
type = Stem;
}
);
layerId = "9148514D-BEB8-4275-B264-8F51401A425F";
shapes = (
{
closed = 1;
nodes = (
(231,-242,o),
(274,-200,o),
(290,-126,c),
(244,-103,l),
(230,-161,o),
(205,-189,o),
(168,-189,cs),
(142,-189,o),
(123,-170,o),
(123,-146,cs),
(123,-119,o),
(144,-100,o),
(176,-100,cs),
(240,-100,o),
(297,-152,o),
(323,-235,c),
(363,-235,l),
(391,-151,l),
(395,-151,l),
(456,-235,l),
(543,-235,l),
(543,358,ls),
(543,497,o),
(467,566,o),
(312,566,cs),
(164,566,o),
(70,492,o),
(70,374,cs),
(70,361,l),
(206,321,l),
(206,317,l),
(153,302,o),
(136,277,o),
(136,215,cs),
(136,201,ls),
(136,189,o),
(138,174,o),
(143,155,c),
(170,151,o),
(189,134,o),
(190,113,c),
(200,113,l),
(200,159,o),
(167,190,o),
(118,190,cs),
(62,190,o),
(22,151,o),
(22,95,cs),
(22,37,o),
(61,0,o),
(121,0,cs),
(189,0,o),
(226,39,o),
(226,108,cs),
(226,213,ls),
(226,264,o),
(240,284,o),
(287,296,c),
(293,350,l),
(120,411,l),
(156,360,l),
(156,374,ls),
(156,451,o),
(214,498,o),
(310,498,cs),
(404,498,o),
(453,451,o),
(453,358,cs),
(453,1,ls),
(453,-89,o),
(455,-122,o),
(464,-165,c),
(460,-165,l),
(403,-78,l),
(366,-78,l),
(339,-151,l),
(335,-151,l),
(303,-88,o),
(241,-47,o),
(176,-47,cs),
(110,-47,o),
(66,-86,o),
(66,-145,cs),
(66,-202,o),
(109,-242,o),
(170,-242,cs)
);
},
{
closed = 1;
nodes = (
(94,51,o),
(78,67,o),
(78,94,cs),
(78,121,o),
(94,137,o),
(122,137,cs),
(150,137,o),
(166,121,o),
(166,94,cs),
(166,67,o),
(150,51,o),
(122,51,cs)
);
},
{
closed = 1;
nodes = (
(307,-74,o),
(312,-39,o),
(313,0,c),
(255,0,l),
(255,-36,o),
(252,-62,o),
(245,-89,c),
(296,-113,l)
);
}
);
width = 629;
},
{
anchors = (
{
name = bottom;
pos = (323,-232);
},
{
name = top;
pos = (317,550);
}
);
layerId = "54E3FB14-E6D2-4DF3-BA4A-5621168F9335";
shapes = (
{
closed = 1;
nodes = (
(150,-237,o),
(177,-196,o),
(187,-125,c),
(171,-111,l),
(161,-181,o),
(142,-215,o),
(113,-215,cs),
(91,-215,o),
(76,-189,o),
(76,-152,cs),
(76,-113,o),
(93,-85,o),
(118,-85,cs),
(159,-85,o),
(195,-143,o),
(209,-232,c),
(231,-232,l),
(253,-124,l),
(255,-124,l),
(297,-232,l),
(323,-232,l),
(323,391,ls),
(323,497,o),
(274,558,o),
(189,558,cs),
(100,558,o),
(50,495,o),
(50,384,cs),
(50,373,l),
(138,335,l),
(138,332,l),
(107,315,o),
(95,280,o),
(95,206,cs),
(95,159,ls),
(95,142,o),
(96,128,o),
(99,118,c),
(104,110,o),
(106,103,o),
(106,96,c),
(109,96,l),
(107,134,o),
(91,156,o),
(65,156,cs),
(32,156,o),
(13,128,o),
(13,78,cs),
(13,28,o),
(32,0,o),
(66,0,cs),
(100,0,o),
(120,30,o),
(120,82,cs),
(120,206,ls),
(120,283,o),
(129,307,o),
(165,323,c),
(168,344,l),
(64,392,l),
(75,377,l),
(75,384,ls),
(75,481,o),
(116,535,o),
(189,535,cs),
(260,535,o),
(298,483,o),
(298,387,cs),
(298,-62,ls),
(298,-123,o),
(299,-159,o),
(301,-190,c),
(299,-190,l),
(262,-97,l),
(243,-97,l),
(221,-197,l),
(219,-197,l),
(204,-119,o),
(162,-63,o),
(118,-63,cs),
(79,-63,o),
(53,-99,o),
(53,-152,cs),
(53,-201,o),
(79,-237,o),
(114,-237,cs)
);
},
{
closed = 1;
nodes = (
(47,22,o),
(36,42,o),
(36,78,cs),
(36,114,o),
(47,134,o),
(66,134,cs),
(85,134,o),
(96,114,o),
(96,78,cs),
(96,42,o),
(85,22,o),
(66,22,cs)
);
},
{
closed = 1;
nodes = (
(196,-76,o),
(199,-42,o),
(199,0,c),
(178,0,l),
(179,-40,o),
(177,-72,o),
(172,-104,c),
(189,-121,l)
);
}
);
width = 383;
},
{
anchors = (
{
name = bottom;
pos = (465,-240);
},
{
name = top;
pos = (459,563);
}
);
layerId = "E703E12A-5DA7-48FA-B69F-BB282FBD8E56";
shapes = (
{
closed = 1;
nodes = (
(161,-250,o),
(197,-206,o),
(208,-128,c),
(144,-91,l),
(135,-147,o),
(124,-169,o),
(104,-169,cs),
(89,-169,o),
(79,-156,o),
(79,-137,cs),
(79,-114,o),
(92,-100,o),
(113,-100,cs),
(155,-100,o),
(204,-161,o),
(227,-240,c),
(263,-240,l),
(280,-180,l),
(283,-180,l),
(323,-240,l),
(465,-240,l),
(465,334,ls),
(465,503,o),
(398,578,o),
(247,578,cs),
(117,578,o),
(34,493,o),
(34,360,cs),
(34,344,l),
(129,310,l),
(129,306,l),
(101,292,o),
(86,272,o),
(86,248,cs),
(86,245,ls),
(86,236,o),
(89,221,o),
(94,202,c),
(122,210,o),
(154,189,o),
(165,154,c),
(179,154,l),
(176,199,o),
(143,231,o),
(99,231,cs),
(48,231,o),
(12,187,o),
(12,124,cs),
(12,56,o),
(53,12,o),
(116,12,cs),
(185,12,o),
(229,66,o),
(229,149,cs),
(229,223,ls),
(229,250,o),
(237,262,o),
(257,266,c),
(265,344,l),
(121,415,l),
(182,334,l),
(182,360,ls),
(182,410,o),
(204,438,o),
(244,438,cs),
(288,438,o),
(309,404,o),
(309,331,cs),
(309,18,ls),
(309,-54,o),
(311,-87,o),
(318,-125,c),
(315,-125,l),
(285,-76,l),
(245,-76,l),
(234,-125,l),
(231,-125,l),
(201,-56,o),
(163,-25,o),
(111,-25,cs),
(51,-25,o),
(14,-67,o),
(14,-136,cs),
(14,-202,o),
(53,-250,o),
(108,-250,cs)
);
},
{
closed = 1;
nodes = (
(89,85,o),
(77,100,o),
(77,124,cs),
(77,148,o),
(89,163,o),
(108,163,cs),
(127,163,o),
(139,148,o),
(139,124,cs),
(139,100,o),
(127,85,o),
(108,85,cs)
);
},
{
closed = 1;
nodes = (
(225,-62,o),
(229,-31,o),
(231,0,c),
(153,0,l),
(152,-14,o),
(149,-40,o),
(144,-67,c),
(216,-106,l)
);
}
);
userData = {
com.schriftgestaltung.Glyphs.glyph.leftMetricsKey = "phoSamphao-thai";
com.schriftgestaltung.Glyphs.glyph.rightMetricsKey = "khoKhwai-thai";
};
width = 511;
},
{
anchors = (
{
name = bottom;
pos = (382,-235);
},
{
name = top;
pos = (376,555);
}
);
layerId = "94F80E8F-7C96-497F-B870-569C37B7A2A5";
shapes = (
{
closed = 1;
nodes = (
(157,-242,o),
(187,-201,o),
(198,-126,c),
(163,-103,l),
(154,-167,o),
(138,-197,o),
(112,-197,cs),
(93,-197,o),
(80,-176,o),
(80,-146,cs),
(80,-113,o),
(96,-91,o),
(119,-91,cs),
(160,-91,o),
(199,-151,o),
(213,-235,c),
(246,-235,l),
(266,-156,l),
(269,-156,l),
(310,-235,l),
(382,-235,l),
(382,369,ls),
(382,500,o),
(326,566,o),
(215,566,cs),
(110,566,o),
(47,495,o),
(47,375,cs),
(47,362,l),
(137,325,l),
(137,322,l),
(105,305,o),
(94,279,o),
(94,223,cs),
(94,204,ls),
(94,191,o),
(96,174,o),
(99,168,c),
(113,168,o),
(126,149,o),
(132,119,c),
(139,119,l),
(137,159,o),
(114,186,o),
(81,186,cs),
(41,186,o),
(15,150,o),
(15,96,cs),
(15,39,o),
(43,5,o),
(89,5,cs),
(139,5,o),
(171,45,o),
(171,108,cs),
(171,215,ls),
(171,276,o),
(176,290,o),
(204,301,c),
(209,344,l),
(89,401,l),
(120,360,l),
(120,374,ls),
(120,453,o),
(154,499,o),
(213,499,cs),
(273,499,o),
(305,452,o),
(305,364,cs),
(305,-30,ls),
(305,-96,o),
(306,-126,o),
(311,-156,c),
(308,-156,l),
(274,-89,l),
(247,-89,l),
(230,-161,l),
(228,-161,l),
(206,-89,o),
(166,-48,o),
(118,-48,cs),
(71,-48,o),
(40,-86,o),
(40,-146,cs),
(40,-201,o),
(72,-242,o),
(114,-242,cs)
);
},
{
closed = 1;
nodes = (
(70,46,o),
(60,64,o),
(60,96,cs),
(60,128,o),
(70,146,o),
(88,146,cs),
(106,146,o),
(116,128,o),
(116,96,cs),
(116,64,o),
(106,46,o),
(88,46,cs)
);
},
{
closed = 1;
nodes = (
(211,-66,o),
(214,-34,o),
(214,0,c),
(171,0,l),
(171,-30,o),
(168,-62,o),
(164,-89,c),
(202,-115,l)
);
}
);
width = 438;
}
);
metricLeft = "phoSamphao-thai";
metricRight = "koKai-thai";
unicode = 3599;
},
{
glyphname = "toPatak-thai.short";
kernLeft = "phoSamphao-thai";
kernRight = "koKai-thai";
lastChange = "2022-10-12 06:10:44 +0000";
layers = (
{
anchors = (
{
name = bottom;
pos = (606,-190);
},
{
name = top;
pos = (596,563);
}
);
layerId = "EB3A5D6C-8260-43A6-9EF2-63971FC08D48";
shapes = (
{
closed = 1;
nodes = (
(219,-200,o),
(266,-164,o),
(280,-96,c),
(202,-59,l),
(194,-104,o),
(173,-130,o),
(145,-130,cs),
(124,-130,o),
(109,-117,o),
(109,-100,cs),
(109,-78,o),
(126,-65,o),
(155,-65,cs),
(213,-65,o),
(276,-109,o),
(306,-190,c),
(353,-190,l),
(377,-130,l),
(381,-130,l),
(435,-190,l),
(606,-190,l),
(606,334,ls),
(606,501,o),
(518,578,o),
(326,578,cs),
(157,578,o),
(50,493,o),
(50,360,cs),
(50,344,l),
(178,310,l),
(178,306,l),
(136,293,o),
(119,278,o),
(119,253,cs),
(119,250,ls),
(119,243,o),
(123,233,o),
(129,223,c),
(164,231,o),
(202,210,o),
(214,175,c),
(231,175,l),
(228,222,o),
(188,252,o),
(129,252,cs),
(63,252,o),
(17,208,o),
(17,145,cs),
(17,77,o),
(68,33,o),
(148,33,cs),
(236,33,o),
(290,85,o),
(290,170,cs),
(290,223,ls),
(290,251,o),
(301,263,o),
(332,266,c),
(342,344,l),
(153,415,l),
(225,334,l),
(225,358,ls),
(225,408,o),
(261,438,o),
(322,438,cs),
(388,438,o),
(420,402,o),
(420,329,cs),
(420,68,ls),
(420,-9,o),
(422,-36,o),
(431,-75,c),
(427,-75,l),
(384,-26,l),
(334,-26,l),
(317,-75,l),
(313,-75,l),
(273,-21,o),
(220,7,o),
(153,7,cs),
(75,7,o),
(27,-34,o),
(27,-102,cs),
(27,-159,o),
(77,-200,o),
(145,-200,cs)
);
},
{
closed = 1;
nodes = (
(114,106,o),
(98,120,o),
(98,145,cs),
(98,170,o),
(114,184,o),
(140,184,cs),
(166,184,o),
(182,170,o),
(182,145,cs),
(182,120,o),
(166,106,o),
(140,106,cs)
);
},
{
closed = 1;
nodes = (
(299,-39,o),
(307,0,o),
(309,32,c),
(223,32,l),
(222,13,o),
(218,-11,o),
(212,-35,c),
(289,-74,l)
);
}
);
userData = {
com.schriftgestaltung.Glyphs.glyph.rightMetricsKey = "khoKhwai-thai";
};
width = 678;
},
{
anchors = (
{
name = bottom;
pos = (496,-190);
},
{
name = top;
pos = (486,550);
}
);
layerId = "90A34054-68E4-499D-AE50-276C7B026D8B";
shapes = (
{
closed = 1;
nodes = (
(236,-195,o),
(277,-154,o),
(293,-83,c),
(274,-69,l),
(259,-137,o),
(227,-173,o),
(181,-173,cs),
(140,-173,o),
(113,-148,o),
(113,-110,cs),
(113,-71,o),
(143,-43,o),
(187,-43,cs),
(255,-43,o),
(309,-99,o),
(330,-190,c),
(365,-190,l),
(397,-80,l),
(401,-80,l),
(460,-190,l),
(496,-190,l),
(496,382,ls),
(496,496,o),
(425,558,o),
(297,558,cs),
(166,558,o),
(84,491,o),
(84,384,cs),
(84,373,l),
(223,335,l),
(223,332,l),
(173,315,o),
(154,281,o),
(154,206,cs),
(154,184,ls),
(154,170,o),
(156,156,o),
(159,143,c),
(163,137,o),
(166,130,o),
(167,121,c),
(171,121,l),
(167,157,o),
(137,181,o),
(99,181,cs),
(53,181,o),
(21,149,o),
(21,103,cs),
(21,57,o),
(54,25,o),
(100,25,cs),
(148,25,o),
(179,58,o),
(179,107,cs),
(179,206,ls),
(179,283,o),
(194,307,o),
(255,323,c),
(258,344,l),
(98,392,l),
(109,377,l),
(109,384,ls),
(109,478,o),
(179,535,o),
(297,535,cs),
(412,535,o),
(471,482,o),
(471,377,cs),
(471,-20,ls),
(471,-68,o),
(472,-107,o),
(474,-167,c),
(470,-167,l),
(412,-55,l),
(384,-55,l),
(350,-167,l),
(346,-167,l),
(324,-79,o),
(260,-21,o),
(187,-21,cs),
(129,-21,o),
(89,-57,o),
(89,-110,cs),
(89,-160,o),
(127,-195,o),
(181,-195,cs)
);
},
{
closed = 1;
nodes = (
(66,47,o),
(45,69,o),
(45,103,cs),
(45,137,o),
(66,159,o),
(100,159,cs),
(134,159,o),
(155,137,o),
(155,103,cs),
(155,69,o),
(134,47,o),
(100,47,cs)
);
},
{
closed = 1;
nodes = (
(307,-41,o),
(311,-11,o),
(311,23,c),
(286,23,l),
(286,-9,o),
(283,-33,o),
(276,-62,c),
(297,-77,l)
);
}
);
width = 591;
},
{
anchors = (
{
name = bottom;
pos = (543,-190);
},
{
name = top;
pos = (533,555);
}
);
hints = (
{
horizontal = 1;
origin = (0,23);
target = (0,63);
type = Stem;
},
{
origin = (0,34);
target = (0,53);
type = Stem;
},
{
origin = (0,68);
target = (0,20);
type = Stem;
},
{
horizontal = 1;
origin = (0,85);
target = (0,6);
type = Stem;
}
);
layerId = "9148514D-BEB8-4275-B264-8F51401A425F";
shapes = (
{
closed = 1;
nodes = (
(231,-197,o),
(274,-155,o),
(290,-81,c),
(244,-58,l),
(230,-116,o),
(205,-144,o),
(168,-144,cs),
(142,-144,o),
(123,-125,o),
(123,-101,cs),
(123,-74,o),
(144,-55,o),
(176,-55,cs),
(240,-55,o),
(297,-107,o),
(323,-190,c),
(363,-190,l),
(391,-106,l),
(395,-106,l),
(456,-190,l),
(543,-190,l),
(543,358,ls),
(543,497,o),
(467,566,o),
(312,566,cs),
(164,566,o),
(70,492,o),
(70,374,cs),
(70,361,l),
(206,321,l),
(206,317,l),
(160,303,o),
(136,276,o),
(136,240,cs),
(136,236,ls),
(136,218,o),
(138,203,o),
(143,183,c),
(170,179,o),
(189,162,o),
(190,141,c),
(200,141,l),
(200,187,o),
(167,218,o),
(118,218,cs),
(62,218,o),
(22,179,o),
(22,123,cs),
(22,65,o),
(61,28,o),
(121,28,cs),
(189,28,o),
(226,67,o),
(226,136,cs),
(226,237,ls),
(226,267,o),
(245,285,o),
(287,296,c),
(293,350,l),
(120,411,l),
(156,360,l),
(156,374,ls),
(156,451,o),
(214,498,o),
(310,498,cs),
(404,498,o),
(453,451,o),
(453,358,cs),
(453,46,ls),
(453,-36,o),
(455,-74,o),
(464,-120,c),
(460,-120,l),
(403,-33,l),
(366,-33,l),
(339,-106,l),
(335,-106,l),
(303,-43,o),
(241,-2,o),
(176,-2,cs),
(110,-2,o),
(66,-41,o),
(66,-100,cs),
(66,-157,o),
(109,-197,o),
(170,-197,cs)
);
},
{
closed = 1;
nodes = (
(94,79,o),
(78,95,o),
(78,122,cs),
(78,149,o),
(94,165,o),
(122,165,cs),
(150,165,o),
(166,149,o),
(166,122,cs),
(166,95,o),
(150,79,o),
(122,79,cs)
);
},
{
closed = 1;
nodes = (
(304,-38,o),
(310,-7,o),
(312,27,c),
(255,27,l),
(254,2,o),
(251,-22,o),
(245,-44,c),
(296,-68,l)
);
}
);
width = 629;
},
{
anchors = (
{
name = bottom;
pos = (323,-190);
},
{
name = top;
pos = (317,550);
}
);
layerId = "54E3FB14-E6D2-4DF3-BA4A-5621168F9335";
shapes = (
{
closed = 1;
nodes = (
(150,-195,o),
(177,-154,o),
(187,-83,c),
(171,-69,l),
(161,-138,o),
(142,-173,o),
(113,-173,cs),
(91,-173,o),
(76,-147,o),
(76,-110,cs),
(76,-71,o),
(93,-43,o),
(118,-43,cs),
(159,-43,o),
(195,-100,o),
(209,-190,c),
(231,-190,l),
(253,-82,l),
(255,-82,l),
(297,-190,l),
(323,-190,l),
(323,391,ls),
(323,497,o),
(274,558,o),
(189,558,cs),
(100,558,o),
(50,495,o),
(50,384,cs),
(50,373,l),
(138,335,l),
(138,332,l),
(107,315,o),
(95,280,o),
(95,206,cs),
(95,184,ls),
(95,167,o),
(96,153,o),
(99,143,c),
(104,135,o),
(106,128,o),
(106,121,c),
(109,121,l),
(107,159,o),
(91,181,o),
(65,181,cs),
(32,181,o),
(13,153,o),
(13,103,cs),
(13,53,o),
(32,25,o),
(66,25,cs),
(100,25,o),
(120,55,o),
(120,107,cs),
(120,206,ls),
(120,283,o),
(129,307,o),
(165,323,c),
(168,344,l),
(64,392,l),
(75,377,l),
(75,384,ls),
(75,481,o),
(116,535,o),
(189,535,cs),
(260,535,o),
(298,483,o),
(298,387,cs),
(298,-20,ls),
(298,-85,o),
(299,-119,o),
(301,-148,c),
(299,-148,l),
(262,-55,l),
(243,-55,l),
(221,-155,l),
(219,-155,l),
(204,-77,o),
(162,-21,o),
(118,-21,cs),
(79,-21,o),
(53,-57,o),
(53,-110,cs),
(53,-159,o),
(79,-195,o),
(114,-195,cs)
);
},
{
closed = 1;
nodes = (
(47,47,o),
(36,67,o),
(36,103,cs),
(36,139,o),
(47,159,o),
(66,159,cs),
(85,159,o),
(96,139,o),
(96,103,cs),
(96,67,o),
(85,47,o),
(66,47,cs)
);
},
{
closed = 1;
nodes = (
(195,-43,o),
(198,-14,o),
(199,25,c),
(178,25,l),
(178,-8,o),
(176,-35,o),
(172,-62,c),
(189,-79,l)
);
}
);
width = 383;
},
{
anchors = (
{
name = bottom;
pos = (465,-190);
},
{
name = top;
pos = (459,563);
}
);
layerId = "E703E12A-5DA7-48FA-B69F-BB282FBD8E56";
shapes = (
{
closed = 1;
nodes = (
(162,-200,o),
(198,-163,o),
(208,-96,c),
(144,-59,l),
(140,-103,o),
(125,-130,o),
(105,-130,cs),
(90,-130,o),
(79,-117,o),
(79,-100,cs),
(79,-78,o),
(91,-65,o),
(113,-65,cs),
(153,-65,o),
(204,-121,o),
(227,-190,c),
(263,-190,l),
(280,-130,l),
(283,-130,l),
(323,-190,l),
(465,-190,l),
(465,334,ls),
(465,503,o),
(398,578,o),
(247,578,cs),
(117,578,o),
(34,493,o),
(34,360,cs),
(34,344,l),
(129,310,l),
(129,306,l),
(100,293,o),
(86,274,o),
(86,249,cs),
(86,246,ls),
(86,238,o),
(89,229,o),
(94,223,c),
(122,231,o),
(154,210,o),
(165,175,c),
(179,175,l),
(176,220,o),
(143,252,o),
(99,252,cs),
(48,252,o),
(12,208,o),
(12,145,cs),
(12,77,o),
(53,33,o),
(116,33,cs),
(185,33,o),
(229,87,o),
(229,170,cs),
(229,223,ls),
(229,250,o),
(237,262,o),
(257,266,c),
(265,344,l),
(121,415,l),
(182,334,l),
(182,360,ls),
(182,410,o),
(204,438,o),
(244,438,cs),
(288,438,o),
(309,404,o),
(309,331,cs),
(309,68,ls),
(309,-6,o),
(311,-36,o),
(318,-75,c),
(315,-75,l),
(285,-26,l),
(245,-26,l),
(234,-75,l),
(231,-75,l),
(199,-20,o),
(160,7,o),
(111,7,cs),
(50,7,o),
(14,-34,o),
(14,-102,cs),
(14,-158,o),
(53,-200,o),
(105,-200,cs)
);
},
{
closed = 1;
nodes = (
(89,106,o),
(77,121,o),
(77,145,cs),
(77,169,o),
(89,184,o),
(108,184,cs),
(127,184,o),
(139,169,o),
(139,145,cs),
(139,121,o),
(127,106,o),
(108,106,cs)
);
},
{
closed = 1;
nodes = (
(224,-39,o),
(230,3,o),
(231,32,c),
(162,32,l),
(161,11,o),
(158,-12,o),
(153,-35,c),
(216,-74,l)
);
}
);
userData = {
com.schriftgestaltung.Glyphs.glyph.rightMetricsKey = "khoKhwai-thai";
};
width = 511;
},
{
anchors = (
{
name = bottom;
pos = (382,-190);
},
{
name = top;
pos = (376,555);
}
);
layerId = "94F80E8F-7C96-497F-B870-569C37B7A2A5";
shapes = (
{
closed = 1;
nodes = (
(156,-197,o),
(187,-160,o),
(196,-97,c),
(164,-63,l),
(157,-123,o),
(138,-156,o),
(113,-156,cs),
(96,-156,o),
(85,-136,o),
(85,-106,cs),
(85,-74,o),
(99,-52,o),
(119,-52,cs),
(158,-52,o),
(199,-109,o),
(219,-190,c),
(246,-190,l),
(266,-111,l),
(269,-111,l),
(310,-190,l),
(382,-190,l),
(382,369,ls),
(382,500,o),
(326,566,o),
(215,566,cs),
(110,566,o),
(47,495,o),
(47,375,cs),
(47,362,l),
(137,325,l),
(137,322,l),
(103,304,o),
(95,273,o),
(95,241,cs),
(95,227,ls),
(95,211,o),
(97,197,o),
(99,191,c),
(113,191,o),
(126,172,o),
(132,142,c),
(139,142,l),
(137,182,o),
(114,209,o),
(81,209,cs),
(41,209,o),
(15,173,o),
(15,119,cs),
(15,62,o),
(43,28,o),
(89,28,cs),
(139,28,o),
(171,68,o),
(171,131,cs),
(171,214,ls),
(171,276,o),
(176,290,o),
(204,301,c),
(209,344,l),
(89,401,l),
(120,360,l),
(120,374,ls),
(120,453,o),
(154,499,o),
(213,499,cs),
(273,499,o),
(305,452,o),
(305,364,cs),
(305,19,ls),
(305,-55,o),
(306,-84,o),
(311,-115,c),
(308,-115,l),
(274,-44,l),
(247,-44,l),
(229,-119,l),
(227,-119,l),
(204,-52,o),
(162,-10,o),
(118,-10,cs),
(70,-10,o),
(40,-48,o),
(40,-107,cs),
(40,-159,o),
(71,-197,o),
(113,-197,cs)
);
},
{
closed = 1;
nodes = (
(70,69,o),
(60,87,o),
(60,119,cs),
(60,151,o),
(70,169,o),
(88,169,cs),
(106,169,o),
(116,151,o),
(116,119,cs),
(116,87,o),
(106,69,o),
(88,69,cs)
);
},
{
closed = 1;
nodes = (
(209,-42,o),
(213,-7,o),
(214,28,c),
(175,28,l),
(174,-5,o),
(171,-29,o),
(167,-51,c),
(202,-77,l)
);
}
);
width = 438;
}
);
metricLeft = "phoSamphao-thai";
metricRight = "koKai-thai";
},
{
glyphname = "thoThan-thai";
kernLeft = "choChan-thai";
kernRight = "thoThan-thai";
lastChange = "2022-09-01 04:16:00 +0000";
layers = (
{
anchors = (
{
name = bottom;
pos = (550,-313);
},
{
name = top;
pos = (549,563);
}
);
layerId = "EB3A5D6C-8260-43A6-9EF2-63971FC08D48";
shapes = (
{
closed = 1;
nodes = (
(190,-324,o),
(237,-280,o),
(253,-202,c),
(175,-165,l),
(174,-211,o),
(150,-243,o),
(117,-243,cs),
(96,-243,o),
(82,-230,o),
(82,-211,cs),
(82,-188,o),
(99,-174,o),
(128,-174,cs),
(189,-174,o),
(249,-229,o),
(279,-313,c),
(326,-313,l),
(352,-271,l),
(356,-271,l),
(404,-313,l),
(550,-313,l),
(550,-120,ls),
(550,-45,o),
(515,-10,o),
(442,-10,cs),
(372,-10,o),
(332,-44,o),
(332,-103,cs),
(332,-157,o),
(367,-192,o),
(422,-192,cs),
(480,-192,o),
(504,-174,o),
(520,-120,c),
(497,-100,l),
(497,-141,o),
(470,-159,o),
(406,-159,c),
(403,-180,o),
(402,-196,o),
(402,-205,cs),
(402,-225,l),
(398,-225,l),
(356,-191,l),
(328,-191,l),
(308,-226,l),
(304,-226,l),
(270,-149,o),
(200,-99,o),
(126,-99,cs),
(48,-99,o),
(0,-142,o),
(0,-210,cs),
(0,-277,o),
(50,-324,o),
(122,-324,cs)
);
},
{
closed = 1;
nodes = (
(416,-135,o),
(402,-123,o),
(402,-103,cs),
(402,-83,o),
(415,-71,o),
(437,-71,cs),
(459,-71,o),
(472,-83,o),
(472,-103,cs),
(472,-123,o),
(458,-135,o),
(437,-135,cs)
);
},
{
closed = 1;
nodes = (
(273,-142,o),
(281,-103,o),
(282,-74,c),
(186,-74,l),
(185,-97,o),
(181,-121,o),
(175,-141,c),
(259,-190,l)
);
},
{
ref = "thoThan-thai.less";
}
);
width = 605;
},
{
anchors = (
{
name = bottom;
pos = (440,-300);
},
{
name = top;
pos = (440,550);
}
);
layerId = "90A34054-68E4-499D-AE50-276C7B026D8B";
shapes = (
{
closed = 1;
nodes = (
(156,-305,o),
(198,-264,o),
(214,-196,c),
(195,-182,l),
(180,-248,o),
(147,-283,o),
(102,-283,cs),
(61,-283,o),
(34,-258,o),
(34,-220,cs),
(34,-181,o),
(64,-153,o),
(108,-153,cs),
(176,-153,o),
(230,-209,o),
(251,-300,c),
(284,-300,l),
(328,-236,l),
(332,-236,l),
(403,-300,l),
(440,-300,l),
(440,-109,ls),
(440,-61,o),
(408,-29,o),
(359,-29,cs),
(310,-29,o),
(278,-61,o),
(278,-109,cs),
(278,-157,o),
(310,-189,o),
(359,-189,cs),
(403,-189,o),
(429,-159,o),
(429,-109,c),
(424,-109,l),
(424,-126,o),
(422,-138,o),
(418,-146,c),
(416,-160,o),
(415,-173,o),
(415,-200,cs),
(415,-277,l),
(411,-277,l),
(343,-214,l),
(315,-214,l),
(271,-277,l),
(267,-277,l),
(245,-189,o),
(181,-131,o),
(108,-131,cs),
(50,-131,o),
(10,-167,o),
(10,-220,cs),
(10,-270,o),
(48,-305,o),
(102,-305,cs)
);
},
{
closed = 1;
nodes = (
(324,-167,o),
(302,-144,o),
(302,-109,cs),
(302,-74,o),
(324,-51,o),
(359,-51,cs),
(394,-51,o),
(416,-74,o),
(416,-109,cs),
(416,-144,o),
(394,-167,o),
(359,-167,cs)
);
},
{
closed = 1;
nodes = (
(229,-143,o),
(233,-109,o),
(232,-67,c),
(207,-67,l),
(208,-114,o),
(206,-141,o),
(197,-175,c),
(218,-192,l)
);
},
{
ref = "thoThan-thai.less";
}
);
width = 506;
},
{
anchors = (
{
name = bottom;
pos = (487,-305);
},
{
name = top;
pos = (485,555);
}
);
hints = (
{
horizontal = 1;
origin = (0,55);
target = (0,6);
type = Stem;
},
{
horizontal = 1;
origin = (1,5);
target = (0,24);
type = Stem;
}
);
layerId = "9148514D-BEB8-4275-B264-8F51401A425F";
shapes = (
{
closed = 1;
nodes = (
(173,-313,o),
(217,-271,o),
(233,-198,c),
(186,-175,l),
(174,-230,o),
(148,-259,o),
(112,-259,cs),
(85,-259,o),
(66,-242,o),
(66,-216,cs),
(66,-188,o),
(88,-169,o),
(119,-169,cs),
(181,-169,o),
(238,-225,o),
(258,-305,c),
(306,-305,l),
(343,-252,l),
(347,-252,l),
(408,-305,l),
(487,-305,l),
(487,-107,ls),
(487,-53,o),
(452,-21,o),
(393,-21,cs),
(335,-21,o),
(299,-54,o),
(299,-107,cs),
(299,-155,o),
(337,-190,o),
(390,-190,cs),
(438,-190,o),
(462,-167,o),
(469,-113,c),
(456,-105,l),
(456,-132,o),
(440,-155,o),
(416,-161,c),
(414,-179,o),
(413,-191,o),
(413,-202,cs),
(413,-251,l),
(409,-251,l),
(351,-202,l),
(323,-202,l),
(291,-251,l),
(287,-251,l),
(258,-170,o),
(192,-118,o),
(118,-118,cs),
(52,-118,o),
(9,-157,o),
(9,-216,cs),
(9,-273,o),
(52,-313,o),
(113,-313,cs)
);
},
{
closed = 1;
nodes = (
(364,-149,o),
(348,-133,o),
(348,-106,cs),
(348,-79,o),
(364,-63,o),
(392,-63,cs),
(420,-63,o),
(436,-79,o),
(436,-106,cs),
(436,-133,o),
(420,-149,o),
(392,-149,cs)
);
},
{
closed = 1;
nodes = (
(249,-154,o),
(256,-110,o),
(256,-70,c),
(198,-70,l),
(198,-106,o),
(195,-132,o),
(187,-161,c),
(238,-191,l)
);
},
{
ref = "thoThan-thai.less";
}
);
width = 546;
},
{
anchors = (
{
name = bottom;
pos = (283,-300);
},
{
name = top;
pos = (292,550);
}
);
layerId = "54E3FB14-E6D2-4DF3-BA4A-5621168F9335";
shapes = (
{
closed = 1;
nodes = (
(97,-305,o),
(125,-263,o),
(134,-196,c),
(118,-182,l),
(110,-245,o),
(89,-283,o),
(61,-283,cs),
(37,-283,o),
(21,-258,o),
(21,-220,cs),
(21,-181,o),
(39,-153,o),
(65,-153,cs),
(106,-153,o),
(143,-213,o),
(156,-300,c),
(180,-300,l),
(207,-236,l),
(209,-236,l),
(253,-300,l),
(283,-300,l),
(283,-109,ls),
(283,-58,o),
(263,-29,o),
(228,-29,cs),
(195,-29,o),
(176,-58,o),
(176,-109,cs),
(176,-160,o),
(195,-189,o),
(229,-189,cs),
(257,-189,o),
(274,-160,o),
(275,-109,c),
(271,-109,l),
(271,-125,o),
(268,-138,o),
(262,-153,c),
(261,-164,o),
(260,-179,o),
(260,-200,cs),
(260,-277,l),
(258,-277,l),
(215,-214,l),
(197,-214,l),
(171,-277,l),
(168,-277,l),
(154,-192,o),
(111,-131,o),
(65,-131,cs),
(27,-131,o),
(1,-167,o),
(1,-220,cs),
(1,-270,o),
(26,-305,o),
(62,-305,cs)
);
},
{
closed = 1;
nodes = (
(208,-167,o),
(197,-146,o),
(197,-109,cs),
(197,-72,o),
(208,-51,o),
(228,-51,cs),
(250,-51,o),
(263,-72,o),
(263,-109,cs),
(263,-146,o),
(250,-167,o),
(228,-167,cs)
);
},
{
closed = 1;
nodes = (
(144,-147,o),
(147,-109,o),
(147,-67,c),
(126,-67,l),
(126,-117,o),
(124,-141,o),
(119,-175,c),
(137,-192,l)
);
},
{
ref = "thoThan-thai.less";
}
);
width = 337;
},
{
anchors = (
{
name = bottom;
pos = (422,-313);
},
{
name = top;
pos = (422,563);
}
);
layerId = "E703E12A-5DA7-48FA-B69F-BB282FBD8E56";
shapes = (
{
closed = 1;
nodes = (
(144,-324,o),
(179,-282,o),
(192,-202,c),
(128,-165,l),
(129,-210,o),
(112,-243,o),
(87,-243,cs),
(73,-243,o),
(63,-230,o),
(63,-211,cs),
(63,-188,o),
(75,-174,o),
(96,-174,cs),
(142,-174,o),
(187,-228,o),
(211,-313,c),
(246,-313,l),
(264,-271,l),
(267,-271,l),
(301,-313,l),
(422,-313,l),
(422,-120,ls),
(422,-45,o),
(395,-10,o),
(338,-10,cs),
(284,-10,o),
(253,-44,o),
(253,-103,cs),
(253,-157,o),
(280,-192,o),
(321,-192,cs),
(365,-192,o),
(383,-175,o),
(397,-120,c),
(378,-100,l),
(378,-144,o),
(344,-174,o),
(301,-169,c),
(299,-182,o),
(298,-192,o),
(298,-205,cs),
(298,-225,l),
(295,-225,l),
(266,-191,l),
(245,-191,l),
(232,-226,l),
(229,-226,l),
(203,-150,o),
(149,-99,o),
(94,-99,cs),
(34,-99,o),
(-3,-142,o),
(-3,-210,cs),
(-3,-277,o),
(37,-324,o),
(92,-324,cs)
);
},
{
closed = 1;
nodes = (
(319,-135,o),
(309,-122,o),
(309,-103,cs),
(309,-83,o),
(319,-71,o),
(334,-71,cs),
(349,-71,o),
(359,-83,o),
(359,-103,cs),
(359,-122,o),
(349,-135,o),
(334,-135,cs)
);
},
{
closed = 1;
nodes = (
(206,-147,o),
(214,-102,o),
(215,-74,c),
(136,-74,l),
(135,-97,o),
(132,-119,o),
(128,-141,c),
(196,-190,l)
);
},
{
ref = "thoThan-thai.less";
}
);
width = 465;
},
{
anchors = (
{
name = bottom;
pos = (347,-305);
},
{
name = top;
pos = (347,555);
}
);
layerId = "94F80E8F-7C96-497F-B870-569C37B7A2A5";
shapes = (
{
closed = 1;
nodes = (
(126,-312,o),
(156,-271,o),
(166,-198,c),
(129,-172,l),
(125,-232,o),
(109,-263,o),
(82,-263,cs),
(65,-263,o),
(54,-245,o),
(54,-215,cs),
(54,-183,o),
(65,-165,o),
(86,-165,cs),
(126,-165,o),
(159,-215,o),
(179,-305,c),
(215,-305,l),
(239,-250,l),
(241,-250,l),
(281,-305,l),
(347,-305,l),
(347,-113,ls),
(347,-53,o),
(325,-22,o),
(281,-22,cs),
(239,-22,o),
(215,-52,o),
(215,-107,cs),
(215,-158,o),
(239,-190,o),
(277,-190,cs),
(312,-190,o),
(332,-162,o),
(332,-113,c),
(323,-113,l),
(323,-146,o),
(310,-169,o),
(287,-174,c),
(285,-182,o),
(284,-192,o),
(284,-202,cs),
(284,-249,l),
(282,-249,l),
(244,-197,l),
(225,-197,l),
(204,-249,l),
(201,-249,l),
(183,-170,o),
(137,-118,o),
(85,-118,cs),
(38,-118,o),
(6,-157,o),
(6,-216,cs),
(6,-272,o),
(38,-312,o),
(83,-312,cs)
);
},
{
closed = 1;
nodes = (
(264,-154,o),
(255,-137,o),
(255,-107,cs),
(255,-77,o),
(264,-60,o),
(280,-60,cs),
(296,-60,o),
(305,-77,o),
(305,-107,cs),
(305,-137,o),
(296,-154,o),
(280,-154,cs)
);
},
{
closed = 1;
nodes = (
(177,-148,o),
(182,-108,o),
(183,-70,c),
(139,-70,l),
(139,-107,o),
(137,-133,o),
(132,-162,c),
(169,-191,l)
);
},
{
alignment = -1;
ref = "thoThan-thai.less";
}
);
width = 377;
}
);
unicode = 3600;
},
{
glyphname = "thoThan-thai.less";
kernLeft = "choChan-thai";
kernRight = "thoThan-thai";
lastChange = "2022-10-14 07:11:59 +0000";
layers = (
{
anchors = (
{
name = bottom;
pos = (541,0);
},
{
name = top;
pos = (549,563);
}
);
layerId = "EB3A5D6C-8260-43A6-9EF2-63971FC08D48";
shapes = (
{
closed = 1;
nodes = (
(314,0,ls),
(471,0,o),
(565,78,o),
(565,209,cs),
(565,333,o),
(500,392,o),
(353,404,cs),
(213,415,l),
(213,421,ls),
(213,446,o),
(238,458,o),
(290,458,cs),
(355,458,o),
(412,439,o),
(469,439,cs),
(506,439,o),
(532,447,o),
(549,455,c),
(549,568,l),
(519,559,o),
(494,554,o),
(465,554,cs),
(407,554,o),
(362,573,o),
(257,573,cs),
(125,573,o),
(27,522,o),
(27,385,cs),
(27,340,l),
(309,307,ls),
(358,301,o),
(379,290,o),
(379,222,cs),
(379,165,o),
(367,123,o),
(307,123,cs),
(279,123,l),
(313,91,l),
(313,219,ls),
(313,309,o),
(258,349,o),
(178,349,cs),
(105,349,o),
(49,309,o),
(49,243,cs),
(49,175,o),
(93,138,o),
(154,138,cs),
(225,138,o),
(250,162,o),
(267,222,c),
(241,245,l),
(241,191,o),
(191,174,o),
(157,174,c),
(149,144,o),
(147,124,o),
(147,94,cs),
(147,0,l)
);
},
{
closed = 1;
nodes = (
(146,205,o),
(131,219,o),
(131,242,cs),
(131,265,o),
(146,279,o),
(171,279,cs),
(196,279,o),
(211,265,o),
(211,242,cs),
(211,219,o),
(196,205,o),
(171,205,cs)
);
}
);
width = 605;
},
{
anchors = (
{
name = bottom;
pos = (437,0);
},
{
name = top;
pos = (440,550);
}
);
layerId = "90A34054-68E4-499D-AE50-276C7B026D8B";
shapes = (
{
closed = 1;
nodes = (
(234,0,ls),
(371,0,o),
(445,76,o),
(445,217,cs),
(445,345,o),
(394,395,o),
(243,412,cs),
(65,432,l),
(65,442,ls),
(65,499,o),
(108,535,o),
(177,535,cs),
(247,535,o),
(302,513,o),
(358,513,cs),
(387,513,o),
(422,520,o),
(440,527,c),
(440,550,l),
(417,542,o),
(383,536,o),
(354,536,cs),
(295,536,o),
(248,558,o),
(175,558,cs),
(94,558,o),
(40,515,o),
(40,442,cs),
(40,412,l),
(233,391,ls),
(371,376,o),
(420,339,o),
(420,216,cs),
(420,78,o),
(346,22,o),
(237,22,cs),
(214,22,l),
(224,9,l),
(224,256,ls),
(224,298,o),
(198,336,o),
(143,336,cs),
(94,336,o),
(62,304,o),
(62,256,cs),
(62,208,o),
(94,176,o),
(143,176,cs),
(194,176,o),
(212,214,o),
(212,256,c),
(208,256,l),
(208,239,o),
(206,227,o),
(202,219,c),
(199,201,o),
(199,183,o),
(199,165,cs),
(199,0,l)
);
},
{
closed = 1;
nodes = (
(108,198,o),
(86,221,o),
(86,256,cs),
(86,291,o),
(108,314,o),
(143,314,cs),
(178,314,o),
(200,291,o),
(200,256,cs),
(200,221,o),
(178,198,o),
(143,198,cs)
);
}
);
width = 506;
},
{
anchors = (
{
name = bottom;
pos = (476,0);
},
{
name = top;
pos = (486,555);
}
);
hints = (
{
origin = (0,27);
target = (0,8);
type = Stem;
},
{
origin = (0,32);
target = (0,3);
type = Stem;
},
{
horizontal = 1;
origin = (0,58);
target = (0,35);
type = Stem;
},
{
horizontal = 1;
origin = (0,24);
target = (0,11);
type = Stem;
}
);
layerId = "9148514D-BEB8-4275-B264-8F51401A425F";
shapes = (
{
closed = 1;
nodes = (
(282,0,ls),
(409,0,o),
(492,84,o),
(492,213,cs),
(492,322,o),
(420,389,o),
(279,412,cs),
(130,436,l),
(130,445,ls),
(130,475,o),
(168,496,o),
(222,496,cs),
(301,496,o),
(354,475,o),
(409,475,cs),
(441,475,o),
(469,483,o),
(486,491,c),
(486,557,l),
(461,548,o),
(434,542,o),
(406,542,cs),
(347,542,o),
(309,564,o),
(214,564,cs),
(111,564,o),
(42,514,o),
(42,422,cs),
(42,386,l),
(267,351,ls),
(361,336,o),
(406,289,o),
(406,209,cs),
(406,122,o),
(364,65,o),
(279,65,cs),
(238,65,l),
(260,42,l),
(260,234,ls),
(260,293,o),
(219,330,o),
(155,330,cs),
(96,330,o),
(55,295,o),
(55,240,cs),
(55,184,o),
(93,149,o),
(148,149,cs),
(205,149,o),
(232,189,o),
(232,231,c),
(219,240,l),
(217,202,o),
(203,187,o),
(182,180,c),
(177,160,o),
(176,144,o),
(176,121,cs),
(176,0,l)
);
},
{
closed = 1;
nodes = (
(125,197,o),
(109,213,o),
(109,240,cs),
(109,265,o),
(125,281,o),
(152,281,cs),
(179,281,o),
(195,265,o),
(195,239,cs),
(195,213,o),
(179,197,o),
(152,197,cs)
);
}
);
width = 546;
},
{
anchors = (
{
name = bottom;
pos = (287,0);
},
{
name = top;
pos = (292,550);
}
);
layerId = "54E3FB14-E6D2-4DF3-BA4A-5621168F9335";
shapes = (
{
closed = 1;
nodes = (
(161,0,ls),
(249,0,o),
(295,75,o),
(295,217,cs),
(295,345,o),
(258,397,o),
(155,414,cs),
(55,431,l),
(55,442,ls),
(55,500,o),
(81,535,o),
(124,535,cs),
(170,535,o),
(205,513,o),
(240,513,cs),
(259,513,o),
(281,520,o),
(292,527,c),
(292,550,l),
(277,542,o),
(256,536,o),
(238,536,cs),
(200,536,o),
(171,558,o),
(122,558,cs),
(67,558,o),
(30,515,o),
(30,442,cs),
(30,414,l),
(148,393,ls),
(242,376,o),
(271,337,o),
(271,216,cs),
(271,78,o),
(228,22,o),
(162,22,cs),
(144,22,l),
(152,9,l),
(152,256,ls),
(152,307,o),
(132,336,o),
(97,336,cs),
(62,336,o),
(42,307,o),
(42,256,cs),
(42,207,o),
(62,176,o),
(94,176,cs),
(123,176,o),
(139,204,o),
(139,256,c),
(136,256,l),
(136,241,o),
(134,227,o),
(131,219,c),
(128,204,o),
(128,187,o),
(128,165,cs),
(128,0,l)
);
},
{
closed = 1;
nodes = (
(76,198,o),
(65,219,o),
(65,256,cs),
(65,293,o),
(76,314,o),
(96,314,cs),
(116,314,o),
(127,293,o),
(127,256,cs),
(127,219,o),
(116,198,o),
(96,198,cs)
);
}
);
width = 337;
},
{
anchors = (
{
name = bottom;
pos = (412,0);
},
{
name = top;
pos = (422,563);
}
);
layerId = "E703E12A-5DA7-48FA-B69F-BB282FBD8E56";
shapes = (
{
closed = 1;
nodes = (
(240,0,ls),
(363,0,o),
(436,78,o),
(436,209,cs),
(436,336,o),
(391,392,o),
(277,404,cs),
(173,415,l),
(173,421,ls),
(173,446,o),
(191,458,o),
(229,458,cs),
(275,458,o),
(318,439,o),
(361,439,cs),
(390,439,o),
(409,447,o),
(422,455,c),
(422,568,l),
(401,560,o),
(382,554,o),
(358,554,cs),
(315,554,o),
(280,573,o),
(199,573,cs),
(96,573,o),
(17,522,o),
(17,385,cs),
(17,340,l),
(238,307,ls),
(267,303,o),
(279,290,o),
(279,222,cs),
(279,165,o),
(275,123,o),
(234,123,cs),
(216,123,l),
(243,91,l),
(243,219,ls),
(243,309,o),
(199,349,o),
(137,349,cs),
(80,349,o),
(35,309,o),
(35,243,cs),
(35,175,o),
(69,138,o),
(116,138,cs),
(171,138,o),
(190,162,o),
(206,222,c),
(184,245,l),
(184,191,o),
(141,174,o),
(113,174,c),
(106,144,o),
(105,120,o),
(105,94,cs),
(105,0,l)
);
},
{
closed = 1;
nodes = (
(113,205,o),
(101,219,o),
(101,242,cs),
(101,265,o),
(113,279,o),
(131,279,cs),
(149,279,o),
(161,265,o),
(161,242,cs),
(161,219,o),
(149,205,o),
(131,205,cs)
);
}
);
width = 465;
},
{
anchors = (
{
name = bottom;
pos = (327,0);
},
{
name = top;
pos = (347,555);
}
);
layerId = "94F80E8F-7C96-497F-B870-569C37B7A2A5";
shapes = (
{
closed = 1;
nodes = (
(188,0,ls),
(288,0,o),
(343,76,o),
(343,215,cs),
(343,342,o),
(300,394,o),
(177,419,cs),
(93,436,l),
(93,443,ls),
(93,476,o),
(116,497,o),
(151,497,cs),
(210,497,o),
(241,476,o),
(281,476,cs),
(309,476,o),
(333,481,o),
(347,489,c),
(347,557,l),
(325,549,o),
(302,543,o),
(278,543,cs),
(236,543,o),
(214,564,o),
(138,564,cs),
(66,564,o),
(16,521,o),
(16,428,cs),
(16,389,l),
(157,363,ls),
(243,347,o),
(266,321,o),
(266,215,cs),
(266,115,o),
(240,66,o),
(186,66,cs),
(160,66,l),
(179,47,l),
(179,234,ls),
(179,295,o),
(150,329,o),
(103,329,cs),
(57,329,o),
(27,295,o),
(27,234,cs),
(27,174,o),
(57,139,o),
(97,139,cs),
(135,139,o),
(155,172,o),
(155,225,c),
(148,225,l),
(146,174,o),
(123,156,o),
(107,156,c),
(103,144,o),
(102,134,o),
(102,113,cs),
(102,0,l)
);
},
{
closed = 1;
nodes = (
(82,184,o),
(72,202,o),
(72,234,cs),
(72,266,o),
(82,284,o),
(100,284,cs),
(118,284,o),
(128,266,o),
(128,234,cs),
(128,202,o),
(118,184,o),
(100,184,cs)
);
}
);
width = 377;
}
);
},
{
glyphname = "thoNangmontho-thai";
lastChange = "2022-09-01 04:16:00 +0000";
layers = (
{
anchors = (
{
name = bottom;
pos = (611,0);
},
{
name = top;
pos = (601,563);
}
);
layerId = "EB3A5D6C-8260-43A6-9EF2-63971FC08D48";
shapes = (
{
closed = 1;
nodes = (
(265,0,l),
(265,134,ls),
(265,197,o),
(272,234,o),
(295,292,cs),
(321,359,o),
(363,409,o),
(392,409,cs),
(416,409,o),
(425,398,o),
(425,366,cs),
(425,0,l),
(611,0,l),
(611,423,ls),
(611,523,o),
(566,573,o),
(476,573,cs),
(419,573,o),
(373,536,o),
(334,460,c),
(330,460,l),
(332,475,o),
(334,499,o),
(334,518,cs),
(334,563,l),
(250,563,l),
(244,511,o),
(231,470,o),
(214,443,c),
(216,427,l),
(227,440,o),
(234,458,o),
(234,475,cs),
(234,533,o),
(189,573,o),
(124,573,cs),
(51,573,o),
(6,532,o),
(6,465,cs),
(6,400,o),
(54,357,o),
(125,357,cs),
(154,357,o),
(184,370,o),
(204,391,c),
(207,389,l),
(200,377,o),
(190,369,o),
(162,347,cs),
(103,301,o),
(79,262,o),
(79,211,cs),
(79,0,l)
);
},
{
closed = 1;
nodes = (
(100,426,o),
(84,440,o),
(84,465,cs),
(84,490,o),
(100,504,o),
(126,504,cs),
(152,504,o),
(168,490,o),
(168,465,cs),
(168,440,o),
(152,426,o),
(126,426,cs)
);
}
);
userData = {
com.schriftgestaltung.Glyphs.glyph.rightMetricsKey = "khoKhwai-thai";
};
width = 685;
},
{
anchors = (
{
name = bottom;
pos = (507,0);
},
{
name = top;
pos = (497,550);
}
);
layerId = "90A34054-68E4-499D-AE50-276C7B026D8B";
shapes = (
{
closed = 1;
nodes = (
(163,0,l),
(163,202,ls),
(163,278,o),
(175,314,o),
(238,393,cs),
(329,506,o),
(360,531,o),
(407,531,cs),
(459,531,o),
(482,497,o),
(482,434,cs),
(482,0,l),
(507,0,l),
(507,439,ls),
(507,512,o),
(474,554,o),
(408,554,cs),
(352,554,o),
(316,527,o),
(249,437,c),
(247,437,l),
(256,463,o),
(257,487,o),
(257,514,cs),
(257,550,l),
(238,550,l),
(228,493,o),
(182,430,o),
(147,427,c),
(147,417,l),
(164,429,o),
(178,451,o),
(178,478,cs),
(178,520,o),
(148,554,o),
(98,554,cs),
(49,554,o),
(17,522,o),
(17,474,cs),
(17,426,o),
(53,395,o),
(105,395,cs),
(163,395,o),
(216,436,o),
(236,493,c),
(238,493,l),
(234,430,o),
(223,412,o),
(188,366,cs),
(154,322,o),
(138,279,o),
(138,202,cs),
(138,0,l)
);
},
{
closed = 1;
nodes = (
(63,416,o),
(41,439,o),
(41,474,cs),
(41,509,o),
(63,532,o),
(98,532,cs),
(133,532,o),
(155,509,o),
(155,474,cs),
(155,439,o),
(133,416,o),
(98,416,cs)
);
}
);
width = 607;
},
{
anchors = (
{
name = bottom;
pos = (549,0);
},
{
name = top;
pos = (539,555);
}
);
hints = (
{
origin = (0,52);
target = (0,0);
type = Stem;
},
{
origin = (0,11);
target = (0,12);
type = Stem;
},
{
horizontal = 1;
origin = (0,35);
target = (1,5);
type = Stem;
},
{
horizontal = 1;
origin = (0,25);
target = down;
type = TopGhost;
},
{
horizontal = 1;
origin = (0,52);
target = up;
type = BottomGhost;
}
);
layerId = "9148514D-BEB8-4275-B264-8F51401A425F";
shapes = (
{
closed = 1;
nodes = (
(204,0,l),
(204,208,ls),
(204,249,o),
(217,277,o),
(275,363,cs),
(343,463,o),
(378,496,o),
(416,496,cs),
(446,496,o),
(459,476,o),
(459,431,cs),
(459,0,l),
(549,0,l),
(549,433,ls),
(549,516,o),
(506,562,o),
(429,562,cs),
(372,562,o),
(338,539,o),
(283,463,c),
(281,463,l),
(286,484,o),
(289,508,o),
(289,533,cs),
(289,555,l),
(240,555,l),
(233,509,o),
(203,456,o),
(171,433,c),
(176,421,l),
(192,434,o),
(202,455,o),
(202,477,cs),
(202,527,o),
(164,562,o),
(110,562,cs),
(51,562,o),
(14,526,o),
(14,470,cs),
(14,415,o),
(53,380,o),
(114,380,cs),
(159,380,o),
(203,409,o),
(224,452,c),
(227,451,l),
(221,412,o),
(211,394,o),
(170,347,cs),
(126,297,o),
(114,267,o),
(114,207,cs),
(114,0,l)
);
},
{
closed = 1;
nodes = (
(82,427,o),
(66,443,o),
(66,470,cs),
(66,497,o),
(82,513,o),
(110,513,cs),
(138,513,o),
(154,497,o),
(154,470,cs),
(154,443,o),
(138,427,o),
(110,427,cs)
);
}
);
width = 638;
},
{
anchors = (
{
name = bottom;
pos = (330,0);
},
{
name = top;
pos = (324,550);
}
);
layerId = "54E3FB14-E6D2-4DF3-BA4A-5621168F9335";
shapes = (
{
closed = 1;
nodes = (
(110,0,l),
(110,202,ls),
(110,280,o),
(118,314,o),
(157,393,cs),
(213,506,o),
(231,532,o),
(261,532,cs),
(296,532,o),
(305,501,o),
(305,434,cs),
(305,0,l),
(330,0,l),
(330,439,ls),
(330,511,o),
(311,554,o),
(264,554,cs),
(228,554,o),
(205,531,o),
(164,441,c),
(162,441,l),
(167,467,o),
(168,491,o),
(168,518,cs),
(168,550,l),
(150,550,l),
(144,493,o),
(119,440,o),
(97,427,c),
(98,417,l),
(110,432,o),
(116,454,o),
(116,478,cs),
(116,527,o),
(98,554,o),
(64,554,cs),
(30,554,o),
(10,525,o),
(10,474,cs),
(10,424,o),
(31,396,o),
(67,396,cs),
(104,396,o),
(136,436,o),
(149,483,c),
(150,483,l),
(147,425,o),
(141,412,o),
(117,366,cs),
(95,323,o),
(85,278,o),
(85,202,cs),
(85,0,l)
);
},
{
closed = 1;
nodes = (
(44,416,o),
(33,437,o),
(33,474,cs),
(33,511,o),
(44,532,o),
(64,532,cs),
(84,532,o),
(95,511,o),
(95,474,cs),
(95,437,o),
(84,416,o),
(64,416,cs)
);
}
);
width = 392;
},
{
anchors = (
{
name = bottom;
pos = (469,0);
},
{
name = top;
pos = (463,563);
}
);
layerId = "E703E12A-5DA7-48FA-B69F-BB282FBD8E56";
shapes = (
{
closed = 1;
nodes = (
(209,0,l),
(209,134,ls),
(209,195,o),
(213,237,o),
(224,290,cs),
(237,355,o),
(267,409,o),
(290,409,cs),
(307,409,o),
(313,398,o),
(313,366,cs),
(313,0,l),
(469,0,l),
(469,423,ls),
(469,524,o),
(435,573,o),
(365,573,cs),
(321,573,o),
(284,534,o),
(259,460,c),
(256,460,l),
(257,477,o),
(258,497,o),
(258,518,cs),
(258,563,l),
(189,563,l),
(184,502,o),
(177,466,o),
(168,443,c),
(169,427,l),
(177,441,o),
(181,458,o),
(181,475,cs),
(181,534,o),
(146,573,o),
(93,573,cs),
(37,573,o),
(3,531,o),
(3,462,cs),
(3,398,o),
(35,357,o),
(85,357,cs),
(113,357,o),
(132,368,o),
(149,391,c),
(152,389,l),
(147,379,o),
(134,362,o),
(120,347,cs),
(65,286,o),
(53,259,o),
(53,194,cs),
(53,0,l)
);
},
{
closed = 1;
nodes = (
(78,426,o),
(66,441,o),
(66,465,cs),
(66,489,o),
(78,504,o),
(97,504,cs),
(116,504,o),
(128,489,o),
(128,465,cs),
(128,441,o),
(116,426,o),
(97,426,cs)
);
}
);
userData = {
com.schriftgestaltung.Glyphs.glyph.rightMetricsKey = "khoKhwai-thai";
};
width = 517;
},
{
anchors = (
{
name = bottom;
pos = (385,0);
},
{
name = top;
pos = (379,555);
}
);
layerId = "94F80E8F-7C96-497F-B870-569C37B7A2A5";
shapes = (
{
closed = 1;
nodes = (
(149,0,l),
(149,176,ls),
(149,249,o),
(156,286,o),
(183,353,cs),
(222,448,o),
(246,484,o),
(272,484,cs),
(299,484,o),
(308,465,o),
(308,408,cs),
(308,0,l),
(385,0,l),
(385,434,ls),
(385,520,o),
(358,562,o),
(304,562,cs),
(263,562,o),
(235,531,o),
(201,449,c),
(199,449,l),
(202,467,o),
(203,485,o),
(203,519,cs),
(203,555,l),
(165,555,l),
(159,506,o),
(145,473,o),
(119,447,c),
(125,422,l),
(135,436,o),
(141,456,o),
(141,478,cs),
(141,531,o),
(116,562,o),
(75,562,cs),
(32,562,o),
(6,528,o),
(6,471,cs),
(6,416,o),
(33,382,o),
(78,382,cs),
(104,382,o),
(131,408,o),
(148,448,c),
(150,447,l),
(145,409,o),
(140,394,o),
(117,358,cs),
(82,304,o),
(72,269,o),
(72,207,cs),
(72,0,l)
);
},
{
closed = 1;
nodes = (
(59,421,o),
(49,439,o),
(49,471,cs),
(49,503,o),
(59,521,o),
(77,521,cs),
(95,521,o),
(105,503,o),
(105,471,cs),
(105,439,o),
(95,421,o),
(77,421,cs)
);
}
);
width = 441;
}
);
metricRight = "boBaimai-thai";
unicode = 3601;
},
{
glyphname = "thoPhuthao-thai";
kernLeft = "doDek-thai";
lastChange = "2022-10-15 13:26:39 +0000";
layers = (
{
anchors = (
{
name = bottom;
pos = (916,0);
},
{
name = top;
pos = (916,563);
}
);
layerId = "EB3A5D6C-8260-43A6-9EF2-63971FC08D48";
shapes = (
{
closed = 1;
nodes = (
(260,0,l),
(317,45,o),
(340,65,o),
(367,93,cs),
(423,150,o),
(449,201,o),
(449,255,cs),
(449,323,o),
(408,361,o),
(336,361,cs),
(265,361,o),
(224,325,o),
(224,263,cs),
(224,210,o),
(258,174,o),
(307,174,cs),
(316,174,o),
(320,174,o),
(325,175,c),
(299,187,l),
(294,181,o),
(285,172,o),
(267,154,cs),
(248,136,o),
(239,128,o),
(231,123,c),
(227,123,l),
(213,169,o),
(205,229,o),
(205,282,cs),
(205,366,o),
(227,418,o),
(266,431,c),
(343,386,l),
(353,386,l),
(422,431,l),
(449,431,o),
(473,405,o),
(473,376,cs),
(473,281,ls),
(473,237,o),
(476,199,o),
(480,174,c),
(592,157,l),
(651,136,o),
(702,79,o),
(735,0,c),
(916,0,l),
(916,563,l),
(730,563,l),
(730,254,ls),
(730,219,o),
(732,184,o),
(735,146,c),
(731,146,l),
(689,190,o),
(672,202,o),
(604,233,c),
(645,197,l),
(645,374,ls),
(645,502,o),
(572,573,o),
(439,573,c),
(343,511,l),
(248,573,l),
(119,573,o),
(42,468,o),
(42,292,cs),
(42,198,o),
(65,93,o),
(107,0,c)
);
},
{
closed = 1;
nodes = (
(308,223,o),
(293,237,o),
(293,260,cs),
(293,283,o),
(308,297,o),
(333,297,cs),
(358,297,o),
(373,283,o),
(373,260,cs),
(373,237,o),
(358,223,o),
(333,223,cs)
);
},
{
closed = 1;
nodes = (
(638,-10,o),
(689,34,o),
(689,104,cs),
(689,174,o),
(637,219,o),
(557,219,cs),
(476,219,o),
(424,174,o),
(424,104,cs),
(424,34,o),
(476,-10,o),
(557,-10,cs)
);
},
{
closed = 1;
nodes = (
(525,66,o),
(509,80,o),
(509,104,cs),
(509,128,o),
(525,142,o),
(550,142,cs),
(575,142,o),
(591,128,o),
(591,104,cs),
(591,80,o),
(575,66,o),
(550,66,cs)
);
}
);
userData = {
com.schriftgestaltung.Glyphs.glyph.leftMetricsKey = "toTao-thai";
};
width = 990;
},
{
anchors = (
{
name = bottom;
pos = (758,0);
},
{
name = top;
pos = (758,550);
}
);
layerId = "90A34054-68E4-499D-AE50-276C7B026D8B";
shapes = (
{
closed = 1;
nodes = (
(172,0,l),
(200,24,o),
(232,61,o),
(266,107,cs),
(313,170,o),
(355,245,o),
(355,300,cs),
(355,345,o),
(322,379,o),
(274,379,cs),
(226,379,o),
(193,346,o),
(193,299,cs),
(193,252,o),
(230,221,o),
(274,221,cs),
(294,221,o),
(316,229,o),
(331,248,c),
(323,245,l),
(307,206,o),
(278,160,o),
(246,118,cs),
(211,72,o),
(184,41,o),
(162,20,c),
(159,20,l),
(116,90,o),
(84,192,o),
(84,303,cs),
(84,436,o),
(123,516,o),
(194,530,c),
(283,448,l),
(293,448,l),
(383,530,l),
(446,517,o),
(477,469,o),
(477,385,cs),
(477,204,ls),
(477,177,o),
(477,151,o),
(477,130,c),
(502,112,l),
(578,94,o),
(670,48,o),
(733,0,c),
(758,0,l),
(758,550,l),
(733,550,l),
(733,236,ls),
(733,166,o),
(733,95,o),
(734,28,c),
(731,28,l),
(662,74,o),
(577,116,o),
(491,137,c),
(502,121,l),
(502,385,ls),
(502,482,o),
(461,538,o),
(378,555,c),
(288,474,l),
(198,555,l),
(104,538,o),
(59,456,o),
(59,303,cs),
(59,185,o),
(96,69,o),
(144,0,c)
);
},
{
closed = 1;
nodes = (
(240,241,o),
(217,265,o),
(217,299,cs),
(217,333,o),
(240,357,o),
(274,357,cs),
(308,357,o),
(331,333,o),
(331,299,cs),
(331,265,o),
(308,241,o),
(274,241,cs)
);
},
{
closed = 1;
nodes = (
(483,-5,o),
(515,28,o),
(515,76,cs),
(515,122,o),
(483,155,o),
(434,155,cs),
(385,155,o),
(353,122,o),
(353,76,cs),
(353,28,o),
(385,-5,o),
(434,-5,cs)
);
},
{
closed = 1;
nodes = (
(399,17,o),
(377,41,o),
(377,76,cs),
(377,109,o),
(399,133,o),
(434,133,cs),
(468,133,o),
(491,109,o),
(491,76,cs),
(491,41,o),
(468,17,o),
(434,17,cs)
);
}
);
width = 858;
},
{
anchors = (
{
name = bottom;
pos = (817,0);
},
{
name = top;
pos = (817,555);
}
);
hints = (
{
horizontal = 1;
origin = (0,70);
target = up;
type = BottomGhost;
},
{
horizontal = 1;
origin = (2,11);
target = (3,11);
type = Stem;
},
{
horizontal = 1;
origin = (0,64);
target = down;
type = TopGhost;
},
{
origin = (0,67);
target = (0,29);
type = Stem;
},
{
origin = (0,39);
target = (0,59);
type = Stem;
},
{
origin = (0,50);
target = (0,47);
type = Stem;
}
);
layerId = "9148514D-BEB8-4275-B264-8F51401A425F";
shapes = (
{
closed = 1;
nodes = (
(216,0,l),
(261,48,o),
(284,75,o),
(314,116,cs),
(363,183,o),
(389,243,o),
(389,290,cs),
(389,345,o),
(352,382,o),
(295,382,cs),
(238,382,o),
(202,348,o),
(202,294,cs),
(202,247,o),
(237,212,o),
(284,212,cs),
(300,212,o),
(315,218,o),
(325,229,c),
(301,232,l),
(290,207,o),
(269,174,o),
(247,143,cs),
(223,110,o),
(204,88,o),
(184,69,c),
(180,69,l),
(151,128,o),
(133,215,o),
(133,295,cs),
(133,399,o),
(160,472,o),
(204,487,c),
(293,422,l),
(303,422,l),
(392,487,l),
(432,480,o),
(453,444,o),
(453,381,cs),
(453,235,ls),
(453,203,o),
(455,175,o),
(458,156,c),
(519,126,l),
(596,96,o),
(673,50,o),
(729,0,c),
(817,0,l),
(817,555,l),
(727,555,l),
(727,243,ls),
(727,190,o),
(728,134,o),
(730,76,c),
(726,76,l),
(665,122,o),
(591,158,o),
(516,176,c),
(543,152,l),
(543,381,ls),
(543,490,o),
(489,553,o),
(386,562,c),
(297,497,l),
(209,562,l),
(101,553,o),
(43,461,o),
(43,299,cs),
(43,195,o),
(72,82,o),
(120,0,c)
);
},
{
closed = 1;
nodes = (
(267,253,o),
(251,269,o),
(251,294,cs),
(251,319,o),
(267,335,o),
(293,335,cs),
(319,335,o),
(335,319,o),
(335,294,cs),
(335,269,o),
(319,253,o),
(293,253,cs)
);
},
{
closed = 1;
nodes = (
(544,-7,o),
(583,31,o),
(583,88,cs),
(583,146,o),
(544,183,o),
(483,183,cs),
(421,183,o),
(379,145,o),
(379,88,cs),
(379,31,o),
(421,-7,o),
(483,-7,cs)
);
},
{
closed = 1;
nodes = (
(453,43,o),
(437,59,o),
(437,86,cs),
(437,113,o),
(453,129,o),
(481,129,cs),
(509,129,o),
(525,113,o),
(525,86,cs),
(525,59,o),
(509,43,o),
(481,43,cs)
);
}
);
width = 906;
},
{
anchors = (
{
name = bottom;
pos = (494,0);
},
{
name = top;
pos = (494,550);
}
);
layerId = "54E3FB14-E6D2-4DF3-BA4A-5621168F9335";
shapes = (
{
closed = 1;
nodes = (
(117,0,l),
(135,24,o),
(156,60,o),
(178,108,cs),
(217,192,o),
(236,256,o),
(236,300,cs),
(236,351,o),
(219,379,o),
(182,379,cs),
(148,379,o),
(128,350,o),
(128,299,cs),
(128,249,o),
(146,221,o),
(179,221,cs),
(192,221,o),
(204,231,o),
(212,248,c),
(205,245,l),
(196,210,o),
(180,164,o),
(159,119,cs),
(137,71,o),
(120,39,o),
(107,20,c),
(105,20,l),
(77,98,o),
(61,202,o),
(61,303,cs),
(61,426,o),
(82,498,o),
(124,525,c),
(186,445,l),
(189,445,l),
(252,526,l),
(288,505,o),
(302,463,o),
(302,376,cs),
(302,204,ls),
(302,177,o),
(303,151,o),
(303,130,c),
(322,118,l),
(373,90,o),
(430,46,o),
(469,0,c),
(494,0,l),
(494,550,l),
(469,550,l),
(469,236,ls),
(469,166,o),
(469,97,o),
(470,30,c),
(468,30,l),
(426,77,o),
(369,115,o),
(318,142,c),
(327,121,l),
(327,376,ls),
(327,481,o),
(306,529,o),
(248,555,c),
(188,477,l),
(129,555,l),
(68,528,o),
(36,460,o),
(36,303,cs),
(36,184,o),
(59,69,o),
(89,0,c)
);
},
{
closed = 1;
nodes = (
(162,241,o),
(151,262,o),
(151,299,cs),
(151,336,o),
(162,357,o),
(182,357,cs),
(202,357,o),
(213,336,o),
(213,299,cs),
(213,262,o),
(201,241,o),
(180,241,cs)
);
},
{
closed = 1;
nodes = (
(317,-5,o),
(336,24,o),
(336,75,cs),
(336,126,o),
(318,155,o),
(285,155,cs),
(252,155,o),
(228,126,o),
(228,75,cs),
(228,24,o),
(248,-5,o),
(283,-5,cs)
);
},
{
closed = 1;
nodes = (
(262,17,o),
(251,38,o),
(251,75,cs),
(251,112,o),
(262,133,o),
(282,133,cs),
(302,133,o),
(313,112,o),
(313,75,cs),
(313,38,o),
(302,17,o),
(282,17,cs)
);
}
);
width = 556;
},
{
anchors = (
{
name = bottom;
pos = (704,0);
},
{
name = top;
pos = (704,563);
}
);
layerId = "E703E12A-5DA7-48FA-B69F-BB282FBD8E56";
shapes = (
{
closed = 1;
nodes = (
(202,0,l),
(242,39,o),
(262,61,o),
(285,93,cs),
(327,150,o),
(347,201,o),
(347,255,cs),
(347,323,o),
(315,361,o),
(259,361,cs),
(203,361,o),
(171,325,o),
(171,263,cs),
(171,210,o),
(196,174,o),
(234,174,cs),
(237,174,o),
(241,174,o),
(243,175,c),
(224,187,l),
(219,174,o),
(215,165,o),
(207,154,cs),
(199,143,o),
(191,133,o),
(181,123,c),
(178,123,l),
(168,177,o),
(162,235,o),
(162,282,cs),
(162,363,o),
(180,419,o),
(210,431,c),
(266,386,l),
(273,386,l),
(321,431,l),
(346,425,o),
(358,404,o),
(358,366,cs),
(358,281,ls),
(358,223,o),
(359,198,o),
(363,174,c),
(456,157,l),
(503,135,o),
(543,70,o),
(552,0,c),
(704,0,l),
(704,563,l),
(548,563,l),
(548,254,ls),
(548,211,o),
(549,177,o),
(552,146,c),
(549,146,l),
(522,193,o),
(504,212,o),
(468,233,c),
(501,197,l),
(501,374,ls),
(501,496,o),
(438,573,o),
(338,573,c),
(265,511,l),
(192,573,l),
(95,573,o),
(31,459,o),
(31,286,cs),
(31,194,o),
(49,88,o),
(80,0,c)
);
},
{
closed = 1;
nodes = (
(238,223,o),
(226,237,o),
(226,260,cs),
(226,283,o),
(238,297,o),
(256,297,cs),
(274,297,o),
(286,283,o),
(286,260,cs),
(286,237,o),
(274,223,o),
(256,223,cs)
);
},
{
closed = 1;
nodes = (
(494,-10,o),
(535,35,o),
(535,104,cs),
(535,173,o),
(493,219,o),
(430,219,cs),
(366,219,o),
(325,174,o),
(325,104,cs),
(325,34,o),
(366,-10,o),
(430,-10,cs)
);
},
{
closed = 1;
nodes = (
(409,66,o),
(398,80,o),
(398,103,cs),
(398,126,o),
(410,141,o),
(428,141,cs),
(446,141,o),
(458,126,o),
(458,103,cs),
(458,80,o),
(447,66,o),
(428,66,cs)
);
}
);
userData = {
com.schriftgestaltung.Glyphs.glyph.leftMetricsKey = "toTao-thai";
};
width = 752;
},
{
anchors = (
{
name = bottom;
pos = (568,0);
},
{
name = top;
pos = (568,555);
}
);
layerId = "94F80E8F-7C96-497F-B870-569C37B7A2A5";
shapes = (
{
closed = 1;
nodes = (
(155,0,l),
(180,30,o),
(209,76,o),
(231,120,cs),
(262,182,o),
(280,241,o),
(280,282,cs),
(280,340,o),
(255,372,o),
(211,372,cs),
(169,372,o),
(145,340,o),
(145,285,cs),
(145,234,o),
(166,202,o),
(200,202,cs),
(210,202,o),
(219,209,o),
(225,219,c),
(214,223,l),
(207,198,o),
(195,166,o),
(182,139,cs),
(164,101,o),
(151,76,o),
(140,61,c),
(138,61,l),
(119,135,o),
(109,219,o),
(109,295,cs),
(109,411,o),
(124,469,o),
(159,488,c),
(214,422,l),
(219,422,l),
(275,489,l),
(303,476,o),
(315,442,o),
(315,376,cs),
(315,234,ls),
(315,202,o),
(316,173,o),
(318,147,c),
(366,133,l),
(408,112,o),
(449,69,o),
(493,0,c),
(568,0,l),
(568,555,l),
(491,555,l),
(491,243,ls),
(491,182,o),
(491,141,o),
(493,76,c),
(491,76,l),
(455,120,o),
(422,148,o),
(368,178,c),
(387,151,l),
(387,375,ls),
(387,490,o),
(353,547,o),
(276,562,c),
(215,490,l),
(154,562,l),
(74,546,o),
(34,458,o),
(34,298,cs),
(34,193,o),
(53,82,o),
(85,0,c)
);
},
{
closed = 1;
nodes = (
(193,234,o),
(183,252,o),
(183,284,cs),
(183,316,o),
(193,334,o),
(211,334,cs),
(229,334,o),
(239,316,o),
(239,284,cs),
(239,252,o),
(229,234,o),
(211,234,cs)
);
},
{
closed = 1;
nodes = (
(378,-7,o),
(406,28,o),
(406,86,cs),
(406,144,o),
(378,180,o),
(333,180,cs),
(287,180,o),
(257,143,o),
(257,86,cs),
(257,28,o),
(285,-7,o),
(332,-7,cs)
);
},
{
closed = 1;
nodes = (
(311,37,o),
(299,55,o),
(299,86,cs),
(299,118,o),
(311,137,o),
(331,137,cs),
(350,137,o),
(361,118,o),
(361,86,cs),
(361,55,o),
(350,37,o),
(331,37,cs)
);
}
);
width = 624;
}
);
metricLeft = "doDek-thai";
metricRight = "boBaimai-thai";
unicode = 3602;
},
{
glyphname = "noNen-thai";
kernLeft = "thoThung-thai";
lastChange = "2022-09-01 04:16:00 +0000";
layers = (
{
anchors = (
{
name = bottom;
pos = (863,0);
},
{
name = top;
pos = (863,563);
}
);
layerId = "EB3A5D6C-8260-43A6-9EF2-63971FC08D48";
shapes = (
{
closed = 1;
nodes = (
(272,-10,o),
(323,36,o),
(323,107,cs),
(323,171,o),
(281,211,o),
(213,211,cs),
(142,211,o),
(113,190,o),
(94,123,c),
(121,99,l),
(121,140,o),
(171,173,o),
(233,173,c),
(233,179,o),
(233,184,o),
(233,190,cs),
(233,199,ls),
(233,233,o),
(263,256,o),
(307,256,c),
(317,334,l),
(134,415,l),
(207,334,l),
(207,358,ls),
(207,405,o),
(237,438,o),
(298,438,cs),
(359,438,o),
(391,403,o),
(391,329,cs),
(391,0,l),
(569,0,l),
(594,65,o),
(629,97,o),
(734,158,c),
(752,174,l),
(832,216,o),
(863,238,o),
(863,301,cs),
(863,563,l),
(677,563,l),
(677,282,ls),
(677,245,o),
(677,236,o),
(646,221,cs),
(613,205,o),
(596,183,o),
(577,158,c),
(573,158,l),
(576,195,o),
(577,221,o),
(577,249,cs),
(577,334,ls),
(577,492,o),
(500,578,o),
(302,578,cs),
(133,578,o),
(31,489,o),
(31,360,cs),
(31,344,l),
(153,300,l),
(153,296,l),
(86,283,o),
(47,228,o),
(47,145,cs),
(47,138,ls),
(47,34,o),
(111,-10,o),
(195,-10,cs)
);
},
{
closed = 1;
nodes = (
(169,63,o),
(153,77,o),
(153,102,cs),
(153,127,o),
(169,141,o),
(195,141,cs),
(221,141,o),
(237,127,o),
(237,102,cs),
(237,77,o),
(221,63,o),
(195,63,cs)
);
},
{
closed = 1;
nodes = (
(841,-10,o),
(899,33,o),
(899,108,cs),
(899,183,o),
(841,226,o),
(769,226,cs),
(697,226,o),
(639,183,o),
(639,108,cs),
(639,33,o),
(697,-10,o),
(769,-10,cs)
);
},
{
closed = 1;
nodes = (
(743,70,o),
(727,84,o),
(727,109,cs),
(727,134,o),
(743,148,o),
(769,148,cs),
(795,148,o),
(811,134,o),
(811,109,cs),
(811,84,o),
(795,70,o),
(769,70,cs)
);
}
);
userData = {
com.schriftgestaltung.Glyphs.glyph.leftMetricsKey = "thoThung-thai";
com.schriftgestaltung.Glyphs.glyph.rightMetricsKey = "noNu-thai";
};
width = 942;
},
{
anchors = (
{
name = bottom;
pos = (739,0);
},
{
name = top;
pos = (739,550);
}
);
layerId = "90A34054-68E4-499D-AE50-276C7B026D8B";
shapes = (
{
closed = 1;
nodes = (
(226,-5,o),
(259,27,o),
(259,75,cs),
(259,123,o),
(227,155,o),
(179,155,cs),
(134,155,o),
(107,126,o),
(107,76,c),
(113,76,l),
(113,89,o),
(114,102,o),
(119,112,c),
(122,128,o),
(122,146,o),
(122,166,cs),
(122,204,ls),
(122,278,o),
(148,308,o),
(228,325,c),
(231,346,l),
(83,392,l),
(94,377,l),
(94,384,ls),
(94,474,o),
(167,535,o),
(275,535,cs),
(384,535,o),
(442,481,o),
(442,377,cs),
(442,0,l),
(464,0,l),
(508,47,o),
(570,88,o),
(652,126,c),
(663,141,l),
(726,161,o),
(739,178,o),
(739,242,cs),
(739,550,l),
(714,550,l),
(714,242,ls),
(714,188,o),
(705,176,o),
(631,138,cs),
(555,99,o),
(490,57,o),
(470,34,c),
(467,34,l),
(467,94,o),
(467,154,o),
(467,214,cs),
(467,382,ls),
(467,496,o),
(395,558,o),
(275,558,cs),
(146,558,o),
(69,482,o),
(69,384,cs),
(69,373,l),
(196,338,l),
(196,335,l),
(130,316,o),
(97,283,o),
(97,204,cs),
(97,79,ls),
(97,28,o),
(129,-5,o),
(178,-5,cs)
);
},
{
closed = 1;
nodes = (
(143,17,o),
(121,40,o),
(121,75,cs),
(121,110,o),
(143,133,o),
(178,133,cs),
(213,133,o),
(235,110,o),
(235,75,cs),
(235,40,o),
(213,17,o),
(178,17,cs)
);
},
{
closed = 1;
nodes = (
(748,-5,o),
(782,27,o),
(782,76,cs),
(782,123,o),
(750,156,o),
(701,156,cs),
(649,156,o),
(614,125,o),
(614,76,cs),
(614,28,o),
(648,-5,o),
(698,-5,cs)
);
},
{
closed = 1;
nodes = (
(661,17,o),
(638,40,o),
(638,77,cs),
(638,113,o),
(661,137,o),
(698,137,cs),
(735,137,o),
(758,113,o),
(758,77,cs),
(758,40,o),
(735,17,o),
(698,17,cs)
);
}
);
width = 841;
},
{
anchors = (
{
name = bottom;
pos = (789,0);
},
{
name = top;
pos = (789,555);
}
);
hints = (
{
origin = (0,64);
target = (0,15);
type = Stem;
},
{
origin = (0,30);
target = (0,51);
type = Stem;
},
{
origin = (0,41);
target = (0,38);
type = Stem;
},
{
horizontal = 1;
origin = (0,68);
target = (1,11);
type = Stem;
},
{
horizontal = 1;
origin = (0,30);
target = up;
type = BottomGhost;
},
{
horizontal = 1;
origin = (0,55);
target = (0,26);
type = Stem;
}
);
layerId = "9148514D-BEB8-4275-B264-8F51401A425F";
shapes = (
{
closed = 1;
nodes = (
(244,-7,o),
(284,30,o),
(284,88,cs),
(284,144,o),
(244,183,o),
(186,183,cs),
(134,183,o),
(103,150,o),
(103,96,c),
(113,96,l),
(114,125,o),
(130,143,o),
(160,148,c),
(165,167,o),
(167,182,o),
(167,194,cs),
(167,201,ls),
(167,259,o),
(194,287,o),
(260,297,c),
(266,351,l),
(96,411,l),
(132,360,l),
(132,374,ls),
(132,448,o),
(193,498,o),
(284,498,cs),
(374,498,o),
(421,449,o),
(421,358,cs),
(421,0,l),
(506,0,l),
(541,51,o),
(590,89,o),
(685,139,c),
(699,154,l),
(773,186,o),
(789,205,o),
(789,266,cs),
(789,555,l),
(699,555,l),
(699,262,ls),
(699,214,o),
(691,203,o),
(637,176,cs),
(589,152,o),
(534,112,o),
(513,88,c),
(510,88,l),
(511,126,o),
(511,162,o),
(511,232,cs),
(511,358,ls),
(511,495,o),
(434,566,o),
(285,566,cs),
(141,566,o),
(46,490,o),
(46,374,cs),
(46,361,l),
(179,323,l),
(179,319,l),
(109,302,o),
(77,258,o),
(77,180,cs),
(77,101,ls),
(77,33,o),
(116,-7,o),
(182,-7,cs)
);
},
{
closed = 1;
nodes = (
(154,44,o),
(138,60,o),
(138,87,cs),
(138,114,o),
(154,130,o),
(182,130,cs),
(210,130,o),
(226,114,o),
(226,87,cs),
(226,60,o),
(210,44,o),
(182,44,cs)
);
},
{
closed = 1;
nodes = (
(788,-7,o),
(828,31,o),
(828,89,cs),
(828,146,o),
(788,184,o),
(728,184,cs),
(666,184,o),
(625,146,o),
(625,89,cs),
(625,32,o),
(666,-7,o),
(727,-7,cs)
);
},
{
closed = 1;
nodes = (
(699,46,o),
(683,62,o),
(683,89,cs),
(683,116,o),
(699,132,o),
(727,132,cs),
(754,132,o),
(770,116,o),
(770,89,cs),
(770,62,o),
(754,46,o),
(727,46,cs)
);
}
);
width = 881;
},
{
anchors = (
{
name = bottom;
pos = (477,0);
},
{
name = top;
pos = (477,550);
}
);
layerId = "54E3FB14-E6D2-4DF3-BA4A-5621168F9335";
shapes = (
{
closed = 1;
nodes = (
(146,-5,o),
(166,24,o),
(166,75,cs),
(166,126,o),
(146,155,o),
(112,155,cs),
(84,155,o),
(69,127,o),
(69,75,c),
(72,75,l),
(72,90,o),
(74,104,o),
(78,115,c),
(80,129,o),
(81,150,o),
(81,166,cs),
(81,204,ls),
(81,278,o),
(97,307,o),
(147,325,c),
(150,346,l),
(52,392,l),
(62,377,l),
(62,384,ls),
(62,474,o),
(107,535,o),
(174,535,cs),
(241,535,o),
(277,480,o),
(277,377,cs),
(277,0,l),
(300,0,l),
(328,41,o),
(361,75,o),
(419,121,c),
(426,136,l),
(468,156,o),
(477,174,o),
(477,237,cs),
(477,550,l),
(452,550,l),
(452,237,ls),
(452,182,o),
(445,168,o),
(399,132,cs),
(364,104,o),
(325,67,o),
(304,38,c),
(302,38,l),
(302,97,o),
(302,155,o),
(302,214,cs),
(302,382,ls),
(302,496,o),
(255,558,o),
(174,558,cs),
(89,558,o),
(38,482,o),
(38,384,cs),
(38,373,l),
(120,338,l),
(120,335,l),
(78,316,o),
(56,283,o),
(56,204,cs),
(56,79,ls),
(56,25,o),
(76,-5,o),
(111,-5,cs)
);
},
{
closed = 1;
nodes = (
(92,17,o),
(81,38,o),
(81,75,cs),
(81,112,o),
(92,133,o),
(112,133,cs),
(132,133,o),
(143,112,o),
(143,75,cs),
(143,38,o),
(132,17,o),
(112,17,cs)
);
},
{
closed = 1;
nodes = (
(482,-5,o),
(502,24,o),
(502,75,cs),
(502,126,o),
(483,155,o),
(450,155,cs),
(417,155,o),
(394,126,o),
(394,75,cs),
(394,24,o),
(413,-5,o),
(448,-5,cs)
);
},
{
closed = 1;
nodes = (
(428,17,o),
(417,38,o),
(417,75,cs),
(417,112,o),
(428,133,o),
(448,133,cs),
(468,133,o),
(479,112,o),
(479,75,cs),
(479,38,o),
(468,17,o),
(448,17,cs)
);
}
);
width = 541;
},
{
anchors = (
{
name = bottom;
pos = (669,0);
},
{
name = top;
pos = (669,563);
}
);
layerId = "E703E12A-5DA7-48FA-B69F-BB282FBD8E56";
shapes = (
{
closed = 1;
nodes = (
(218,-10,o),
(258,36,o),
(258,107,cs),
(258,171,o),
(226,211,o),
(174,211,cs),
(119,211,o),
(96,190,o),
(78,123,c),
(101,99,l),
(101,139,o),
(145,173,o),
(197,173,c),
(195,177,o),
(195,179,o),
(195,190,cs),
(195,199,ls),
(195,232,o),
(218,256,o),
(248,256,c),
(256,334,l),
(116,415,l),
(177,334,l),
(177,358,ls),
(177,409,o),
(198,438,o),
(235,438,cs),
(277,438,o),
(297,402,o),
(297,329,cs),
(297,0,l),
(447,0,l),
(464,66,o),
(489,98,o),
(568,158,c),
(582,174,l),
(653,222,o),
(669,245,o),
(669,301,cs),
(669,563,l),
(513,563,l),
(513,282,ls),
(513,254,o),
(507,238,o),
(489,215,cs),
(466,186,o),
(458,175,o),
(450,158,c),
(447,158,l),
(451,182,o),
(453,212,o),
(453,249,cs),
(453,334,ls),
(453,502,o),
(386,578,o),
(239,578,cs),
(112,578,o),
(30,492,o),
(30,360,cs),
(30,344,l),
(120,300,l),
(120,296,l),
(69,283,o),
(39,228,o),
(39,145,cs),
(39,138,ls),
(39,45,o),
(83,-10,o),
(158,-10,cs)
);
},
{
closed = 1;
nodes = (
(139,63,o),
(127,78,o),
(127,102,cs),
(127,126,o),
(139,141,o),
(158,141,cs),
(177,141,o),
(189,126,o),
(189,102,cs),
(189,78,o),
(177,63,o),
(158,63,cs)
);
},
{
closed = 1;
nodes = (
(658,-10,o),
(696,33,o),
(696,108,cs),
(696,183,o),
(658,226,o),
(594,226,cs),
(530,226,o),
(492,182,o),
(492,108,cs),
(492,34,o),
(530,-10,o),
(594,-10,cs)
);
},
{
closed = 1;
nodes = (
(575,68,o),
(563,83,o),
(563,107,cs),
(563,131,o),
(575,146,o),
(594,146,cs),
(613,146,o),
(625,131,o),
(625,107,cs),
(625,83,o),
(613,68,o),
(594,68,cs)
);
}
);
userData = {
com.schriftgestaltung.Glyphs.glyph.leftMetricsKey = "thoThung-thai";
com.schriftgestaltung.Glyphs.glyph.rightMetricsKey = "noNu-thai";
};
width = 726;
},
{
anchors = (
{
name = bottom;
pos = (553,0);
},
{
name = top;
pos = (553,555);
}
);
layerId = "94F80E8F-7C96-497F-B870-569C37B7A2A5";
shapes = (
{
closed = 1;
nodes = (
(175,-7,o),
(202,29,o),
(202,87,cs),
(202,144,o),
(177,179,o),
(136,179,cs),
(98,179,o),
(77,150,o),
(74,94,c),
(83,84,l),
(83,122,o),
(103,160,o),
(123,160,c),
(125,165,o),
(126,174,o),
(126,186,cs),
(126,201,ls),
(126,258,o),
(145,288,o),
(187,298,c),
(192,341,l),
(77,401,l),
(107,360,l),
(107,374,ls),
(107,449,o),
(143,499,o),
(198,499,cs),
(255,499,o),
(285,451,o),
(285,358,cs),
(285,0,l),
(358,0,l),
(382,51,o),
(411,84,o),
(478,136,c),
(487,151,l),
(541,182,o),
(553,202,o),
(553,262,cs),
(553,555,l),
(476,555,l),
(476,255,ls),
(476,205,o),
(471,194,o),
(437,167,cs),
(408,144,o),
(382,115,o),
(363,85,c),
(360,85,l),
(362,163,o),
(362,199,o),
(362,228,cs),
(362,363,ls),
(362,497,o),
(307,566,o),
(200,566,cs),
(101,566,o),
(35,490,o),
(35,375,cs),
(35,362,l),
(120,323,l),
(120,320,l),
(72,302,o),
(49,257,o),
(49,180,cs),
(49,102,ls),
(49,33,o),
(79,-7,o),
(130,-7,cs)
);
},
{
closed = 1;
nodes = (
(112,37,o),
(101,55,o),
(101,87,cs),
(101,119,o),
(112,137,o),
(130,137,cs),
(147,137,o),
(157,119,o),
(157,87,cs),
(157,55,o),
(147,37,o),
(130,37,cs)
);
},
{
closed = 1;
nodes = (
(550,-7,o),
(578,29,o),
(578,87,cs),
(578,145,o),
(550,181,o),
(506,181,cs),
(462,181,o),
(432,144,o),
(432,87,cs),
(432,29,o),
(460,-7,o),
(505,-7,cs)
);
},
{
closed = 1;
nodes = (
(487,37,o),
(477,55,o),
(477,87,cs),
(477,119,o),
(487,137,o),
(505,137,cs),
(523,137,o),
(533,119,o),
(533,87,cs),
(533,55,o),
(523,37,o),
(505,37,cs)
);
}
);
width = 613;
}
);
metricLeft = "thoThung-thai";
metricRight = "noNu-thai";
unicode = 3603;
},
